<?xml version="1.0" encoding="utf-8"?>
<!-- Generator: Adobe Illustrator 27.0.0, SVG Export Plug-In . SVG Version: 6.00 Build 0)  -->
<svg version="1.1" id="Layer_1" xmlns="http://www.w3.org/2000/svg" xmlns:xlink="http://www.w3.org/1999/xlink" x="0px" y="0px"
	 viewBox="0 0 219.8 129.4" style="enable-background:new 0 0 219.8 129.4;" xml:space="preserve">
<style type="text/css">
	.st0{fill-rule:evenodd;clip-rule:evenodd;fill:url(#SVGID_1_);}
	.st1{fill:url(#SVGID_00000159434474157276021850000005575233589187253397_);}
	.st2{fill:url(#SVGID_00000181798755362621986320000013279387123564301198_);}
	.st3{fill:url(#SVGID_00000058577406508209646180000014812958597951095984_);}
	.st4{fill:url(#SVGID_00000041978462135615418440000010257480854589474205_);}
	.st5{fill:url(#SVGID_00000144334042427134703340000009288170924986012035_);}
	.st6{fill:url(#SVGID_00000111166977743280942810000000184583581591599789_);}
	.st7{fill:url(#SVGID_00000071551443938262094230000007611101576860743097_);}
	.st8{fill:url(#SVGID_00000061452691694291341140000014298658711058268813_);}
	.st9{fill:url(#SVGID_00000090275976276916419770000006177384033909561762_);}
	.st10{fill:#50C9EF;}
	.st11{fill:#000000;}
</style>
<g>
	
		<linearGradient id="SVGID_1_" gradientUnits="userSpaceOnUse" x1="123.0303" y1="28.5778" x2="7.1366" y2="-79.0382" gradientTransform="matrix(1 0 0 -1 0 60.7874)">
		<stop  offset="0.5805" style="stop-color:#3EC6F3;stop-opacity:0"/>
		<stop  offset="1" style="stop-color:#3EC6F3"/>
	</linearGradient>
	<path class="st0" d="M88.3,0c0,0-0.6,1.4-2,3.9c-5,9-19.8,32.6-51.7,60.5c-40.9,35.8-34.2,64.5-34.2,64.5h87.9V0z"/>
	<g>
		<g>
			
				<linearGradient id="SVGID_00000114034276244154657100000014373471507731859872_" gradientUnits="userSpaceOnUse" x1="43.5708" y1="128.9193" x2="43.5708" y2="6.7503">
				<stop  offset="0" style="stop-color:#50C9EF"/>
				<stop  offset="1" style="stop-color:#50C9EF;stop-opacity:0.6"/>
			</linearGradient>
			<path style="fill:url(#SVGID_00000114034276244154657100000014373471507731859872_);" d="M0.4,128.9c-0.3-6.4,1.4-12.7,3.6-18.7
				c2.3-6,5.4-11.6,8.9-16.9C20,82.7,29.2,73.6,38.4,65c4.7-4.3,9.4-8.5,13.8-13c4.5-4.4,8.7-9.1,12.8-13.9c4.1-4.8,7.9-9.9,11.5-15
				c3.7-5.1,7.1-10.5,10.1-16l0.1,0.1c-2.9,5.7-6.1,11.1-9.7,16.4c-3.5,5.3-7.3,10.4-11.3,15.3c-4,4.9-8.3,9.6-12.8,14.1
				c-4.5,4.5-9.2,8.8-13.8,13.1c-4.6,4.3-9.2,8.7-13.6,13.3c-4.3,4.6-8.4,9.5-12,14.7c-3.6,5.2-6.7,10.7-9.1,16.6
				c-2.4,5.8-4.2,12-4.1,18.4L0.4,128.9z"/>
		</g>
		<g>
			
				<linearGradient id="SVGID_00000153695082845429522270000008248208356539851651_" gradientUnits="userSpaceOnUse" x1="43.5636" y1="128.9194" x2="43.5636" y2="14.411">
				<stop  offset="0" style="stop-color:#50C9EF"/>
				<stop  offset="1" style="stop-color:#50C9EF;stop-opacity:0.6"/>
			</linearGradient>
			<path style="fill:url(#SVGID_00000153695082845429522270000008248208356539851651_);" d="M0.4,128.9c-0.2-3,0.2-6.1,0.9-9.1
				c0.7-3,1.7-5.9,2.9-8.7c2.4-5.7,5.5-11,9.1-16c7.2-10,16.3-18.3,25.4-26.4c4.6-4,9.2-7.9,13.7-12c4.5-4.1,8.7-8.4,12.7-12.9
				c4-4.5,7.9-9.2,11.5-14.1c3.7-4.8,7-9.9,10.2-15.1l0.1,0.1c-2.9,5.3-6.2,10.5-9.7,15.4c-3.5,5-7.3,9.7-11.3,14.3
				c-4,4.6-8.2,9-12.7,13.1c-4.4,4.1-9.1,8.1-13.6,12.1c-4.6,4-9.1,8-13.4,12.3c-4.3,4.3-8.4,8.8-12,13.7
				c-3.6,4.9-6.8,10.1-9.3,15.6c-2.4,5.5-4.3,11.5-4.3,17.6L0.4,128.9z"/>
		</g>
		<g>
			
				<linearGradient id="SVGID_00000106118091003203609610000018239417283592656041_" gradientUnits="userSpaceOnUse" x1="43.5642" y1="128.9195" x2="43.5642" y2="22.0702">
				<stop  offset="0" style="stop-color:#50C9EF"/>
				<stop  offset="1" style="stop-color:#50C9EF;stop-opacity:0.6"/>
			</linearGradient>
			<path style="fill:url(#SVGID_00000106118091003203609610000018239417283592656041_);" d="M0.4,128.9c-0.2-2.9,0.2-5.9,1-8.7
				c0.7-2.9,1.8-5.6,3-8.3c2.5-5.4,5.7-10.3,9.3-15c7.3-9.3,16.3-17,25.3-24.4c4.5-3.7,9.1-7.3,13.5-11c4.4-3.7,8.6-7.8,12.6-11.9
				c4-4.2,7.9-8.5,11.5-13.1c3.7-4.5,7.1-9.2,10.2-14.1l0.1,0.1c-2.9,5-6.2,9.9-9.8,14.5c-3.5,4.6-7.3,9.1-11.3,13.4
				c-4,4.3-8.2,8.3-12.6,12.1c-4.4,3.8-8.9,7.5-13.5,11.2c-4.5,3.7-9,7.4-13.3,11.3c-4.3,3.9-8.4,8.1-12,12.7
				c-3.7,4.5-6.9,9.4-9.4,14.6c-2.5,5.2-4.5,10.9-4.4,16.7L0.4,128.9z"/>
		</g>
		<g>
			
				<linearGradient id="SVGID_00000110434605017913221820000000205410441190236564_" gradientUnits="userSpaceOnUse" x1="43.5648" y1="128.9196" x2="43.5648" y2="29.7276">
				<stop  offset="0" style="stop-color:#50C9EF"/>
				<stop  offset="1" style="stop-color:#50C9EF;stop-opacity:0.6"/>
			</linearGradient>
			<path style="fill:url(#SVGID_00000110434605017913221820000000205410441190236564_);" d="M0.4,128.9c-0.2-2.8,0.3-5.6,1-8.3
				c0.8-2.7,1.9-5.3,3.1-7.9c2.5-5,5.8-9.7,9.5-14c7.3-8.6,16.3-15.6,25.1-22.4c4.5-3.3,9-6.6,13.3-10.1c4.4-3.4,8.5-7.1,12.5-11
				c4-3.8,7.8-7.9,11.5-12.1c3.7-4.2,7.1-8.6,10.3-13.2l0.1,0.1c-3,4.7-6.3,9.2-9.9,13.5C73.4,48,69.6,52.1,65.6,56
				c-7.9,8-16.9,14.7-25.8,21.4C31,84.1,22.1,91,14.7,99.4c-3.7,4.2-7,8.7-9.6,13.6c-2.6,4.9-4.7,10.3-4.6,15.9L0.4,128.9z"/>
		</g>
		<g>
			
				<linearGradient id="SVGID_00000082343849282076058890000007140344983071038861_" gradientUnits="userSpaceOnUse" x1="43.5653" y1="128.9198" x2="43.5653" y2="37.3832">
				<stop  offset="0" style="stop-color:#50C9EF"/>
				<stop  offset="1" style="stop-color:#50C9EF;stop-opacity:0.6"/>
			</linearGradient>
			<path style="fill:url(#SVGID_00000082343849282076058890000007140344983071038861_);" d="M0.4,128.9c-0.2-2.7,0.3-5.4,1.1-8
				c0.8-2.6,2-5,3.2-7.4c2.6-4.7,6-9,9.7-13c7.4-7.9,16.2-14.2,25-20.4c4.4-3,8.8-6,13.1-9.2c4.3-3.1,8.4-6.5,12.4-10
				c4-3.5,7.8-7.2,11.5-11.1c3.7-3.8,7.1-7.9,10.4-12.2l0.1,0.1c-3,4.4-6.4,8.6-10,12.6c-3.6,4-7.4,7.8-11.3,11.4
				c-7.8,7.3-16.7,13.4-25.5,19.5c-8.8,6.1-17.5,12.3-25,20c-3.7,3.8-7.1,8-9.8,12.6c-1.3,2.3-2.5,4.7-3.4,7.2
				c-0.9,2.5-1.5,5.2-1.4,7.8L0.4,128.9z"/>
		</g>
		<g>
			
				<linearGradient id="SVGID_00000065052017263750151860000004803758788871880377_" gradientUnits="userSpaceOnUse" x1="43.567" y1="128.9199" x2="43.567" y2="45.0366">
				<stop  offset="0" style="stop-color:#50C9EF"/>
				<stop  offset="1" style="stop-color:#50C9EF;stop-opacity:0.6"/>
			</linearGradient>
			<path style="fill:url(#SVGID_00000065052017263750151860000004803758788871880377_);" d="M0.4,128.9c-0.1-1.3,0-2.6,0.2-3.9
				c0.2-1.3,0.6-2.5,1-3.7c0.9-2.4,2.1-4.7,3.4-7c2.7-4.4,6.2-8.3,9.9-11.9c7.5-7.2,16.2-12.8,24.8-18.4c4.3-2.7,8.7-5.4,12.9-8.3
				c4.3-2.8,8.3-5.9,12.3-9c4-3.2,7.8-6.6,11.4-10.1c3.7-3.5,7.2-7.2,10.4-11.2l0.1,0.1c-3,4.1-6.5,8-10,11.6
				c-3.6,3.7-7.4,7.1-11.3,10.4C57.7,74.1,49,79.6,40.4,85.1c-8.6,5.5-17.3,11.1-24.8,18c-3.7,3.5-7.2,7.3-10,11.6
				c-1.4,2.1-2.7,4.4-3.6,6.7c-0.9,2.4-1.6,4.9-1.5,7.4L0.4,128.9z"/>
		</g>
		<g>
			
				<linearGradient id="SVGID_00000024696729158987236250000017007833250194758279_" gradientUnits="userSpaceOnUse" x1="43.5654" y1="128.9201" x2="43.5654" y2="52.6878">
				<stop  offset="0" style="stop-color:#50C9EF"/>
				<stop  offset="1" style="stop-color:#50C9EF;stop-opacity:0.6"/>
			</linearGradient>
			<path style="fill:url(#SVGID_00000024696729158987236250000017007833250194758279_);" d="M0.4,128.9c-0.2-2.5,0.4-5,1.4-7.2
				c1-2.3,2.2-4.4,3.6-6.5c2.9-4.1,6.4-7.6,10.1-10.9c3.7-3.3,7.8-6.1,11.9-8.8c4.1-2.7,8.4-5.2,12.6-7.7c4.3-2.4,8.5-4.8,12.7-7.4
				c4.2-2.5,8.2-5.3,12.1-8.1c3.9-2.9,7.7-5.9,11.4-9.1c3.7-3.2,7.2-6.6,10.5-10.2l0.1,0.1c-3.1,3.8-6.5,7.3-10.1,10.6
				c-3.6,3.3-7.4,6.5-11.3,9.4c-7.8,6-16.3,10.9-24.8,15.8c-8.5,4.9-17,9.8-24.5,16.1c-3.8,3.1-7.3,6.6-10.2,10.5
				c-1.4,2-2.8,4-3.8,6.3c-1,2.2-1.7,4.6-1.7,7.1L0.4,128.9z"/>
		</g>
		<g>
			
				<linearGradient id="SVGID_00000118396048275650888290000009329915168415872397_" gradientUnits="userSpaceOnUse" x1="43.5655" y1="128.9203" x2="43.5655" y2="60.3366">
				<stop  offset="0" style="stop-color:#50C9EF"/>
				<stop  offset="1" style="stop-color:#50C9EF;stop-opacity:0.6"/>
			</linearGradient>
			<path style="fill:url(#SVGID_00000118396048275650888290000009329915168415872397_);" d="M0.4,128.9c-0.2-2.4,0.5-4.8,1.6-6.9
				c1.1-2.1,2.4-4.1,3.8-6c3-3.7,6.6-6.9,10.3-9.8c3.7-2.9,7.8-5.4,11.8-7.8c4.1-2.4,8.2-4.6,12.4-6.8c4.2-2.1,8.3-4.2,12.4-6.5
				c4.1-2.2,8.1-4.7,12-7.2c3.9-2.5,7.7-5.3,11.4-8.1c3.7-2.8,7.2-5.9,10.6-9.2l0.1,0.1c-3.2,3.5-6.6,6.6-10.2,9.6
				c-3.6,3-7.4,5.8-11.2,8.4c-7.7,5.3-16.1,9.7-24.4,14c-8.3,4.3-16.7,8.6-24.2,14.2c-3.8,2.8-7.4,5.8-10.4,9.4
				c-1.5,1.8-2.9,3.7-4,5.8c-1.1,2.1-1.9,4.3-1.8,6.7L0.4,128.9z"/>
		</g>
		<g>
			
				<linearGradient id="SVGID_00000181083539206219559110000008902687446505657987_" gradientUnits="userSpaceOnUse" x1="43.5647" y1="128.9206" x2="43.5647" y2="67.9828">
				<stop  offset="0" style="stop-color:#50C9EF"/>
				<stop  offset="1" style="stop-color:#50C9EF;stop-opacity:0.6"/>
			</linearGradient>
			<path style="fill:url(#SVGID_00000181083539206219559110000008902687446505657987_);" d="M0.4,128.9c-0.2-2.3,0.7-4.5,1.8-6.5
				c1.1-2,2.6-3.8,4.1-5.5c3.1-3.3,6.8-6.1,10.5-8.7c3.8-2.6,7.7-4.7,11.8-6.8c4-2.1,8.1-4,12.2-5.9c4.1-1.9,8.2-3.7,12.2-5.6
				c4-1.9,7.9-4.1,11.8-6.3c3.9-2.2,7.7-4.6,11.3-7.2c3.7-2.5,7.3-5.2,10.7-8.2l0.1,0.1c-3.2,3.1-6.7,6-10.3,8.6
				c-3.6,2.7-7.4,5.1-11.2,7.5c-7.7,4.7-15.9,8.5-24,12.2c-8.1,3.8-16.3,7.5-23.9,12.3c-3.8,2.4-7.4,5.1-10.6,8.3
				c-1.6,1.6-3,3.3-4.2,5.2c-1.2,1.9-2.1,4-2,6.3L0.4,128.9z"/>
		</g>
	</g>
</g>
<g>
	<g>
		<path class="st10" d="M103,77.9V49.1h18.6v4.2h-13.3v8.1h10.8v4.2h-10.8v12.4H103z"/>
		<path class="st10" d="M125.1,77.9V49.1h9.8c3.4,0,6.2,0.6,8.3,1.8c2.2,1.2,3.8,2.9,4.9,5c1.1,2.2,1.6,4.7,1.6,7.6
			c0,2.9-0.5,5.4-1.6,7.6c-1.1,2.2-2.7,3.8-4.9,5c-2.2,1.2-5,1.8-8.3,1.8H125.1z M130.3,73.4h4.3c2.4,0,4.3-0.4,5.7-1.2
			c1.4-0.8,2.4-1.9,3-3.4c0.6-1.5,0.9-3.2,0.9-5.3c0-2.1-0.3-3.8-0.9-5.3c-0.6-1.5-1.6-2.6-3-3.4c-1.4-0.8-3.3-1.2-5.7-1.2h-4.3
			V73.4z"/>
		<path class="st10" d="M166.8,78.4c-2.9,0-5.4-0.6-7.5-1.9s-3.7-3-4.8-5.2c-1.1-2.2-1.7-4.8-1.7-7.8c0-2.9,0.6-5.5,1.7-7.8
			c1.1-2.3,2.7-4,4.8-5.3c2.1-1.3,4.6-1.9,7.5-1.9c3.5,0,6.3,0.9,8.5,2.6c2.2,1.7,3.6,4.1,4.1,7.2h-5.8c-0.4-1.6-1.1-2.8-2.3-3.7
			c-1.2-0.9-2.7-1.3-4.6-1.3c-2.7,0-4.8,0.9-6.3,2.7c-1.5,1.8-2.3,4.3-2.3,7.5c0,3.2,0.8,5.6,2.3,7.4s3.6,2.7,6.3,2.7
			c1.9,0,3.5-0.4,4.6-1.3c1.2-0.8,1.9-2,2.3-3.5h5.8c-0.5,3-1.9,5.3-4.1,7C173.1,77.6,170.2,78.4,166.8,78.4z"/>
		<path class="st10" d="M192.8,78.4c-1.9,0-3.6-0.3-5.1-1c-1.5-0.7-2.8-1.7-3.7-3.1c-0.9-1.4-1.4-3.2-1.5-5.3h5.2
			c0,1.4,0.5,2.6,1.4,3.5c0.9,0.9,2.1,1.4,3.8,1.4c1.5,0,2.7-0.4,3.5-1.3c0.8-0.9,1.2-1.9,1.2-3.2c0-1.5-0.5-2.7-1.6-3.4
			c-1.1-0.8-2.5-1.2-4.2-1.2h-2.1v-4.3h2.2c1.4,0,2.6-0.3,3.5-1c0.9-0.7,1.4-1.6,1.4-2.9c0-1.1-0.4-1.9-1.1-2.6
			c-0.7-0.6-1.7-1-2.9-1c-1.3,0-2.4,0.4-3.2,1.2c-0.8,0.8-1.2,1.8-1.3,2.9h-5.1c0.1-2.7,1-4.8,2.8-6.3c1.7-1.5,4-2.3,6.8-2.3
			c2,0,3.6,0.4,5,1.1c1.4,0.7,2.4,1.6,3.1,2.8c0.7,1.2,1.1,2.4,1.1,3.8c0,1.6-0.4,3-1.3,4.1c-0.9,1.1-2,1.9-3.3,2.2
			c1.6,0.3,2.9,1.1,4,2.4c1,1.2,1.5,2.8,1.5,4.7c0,1.6-0.4,3-1.2,4.4c-0.8,1.3-1.9,2.4-3.4,3.2C196.8,78,195,78.4,192.8,78.4z"/>
	</g>
	<g>
		<path class="st11" d="M118.7,129.4c-3,0-5.7-0.5-8-1.6c-2.3-1-4.2-2.5-5.5-4.5c-1.3-1.9-2-4.3-2.1-7.1h8c0.1,1.9,0.8,3.6,2.1,4.9
			c1.3,1.3,3.1,2,5.5,2c2,0,3.6-0.5,4.8-1.4c1.2-1,1.8-2.3,1.8-3.9c0-1.7-0.5-3-1.6-4c-1-0.9-2.4-1.7-4.2-2.3
			c-1.7-0.6-3.6-1.2-5.6-1.9c-3.2-1.1-5.6-2.5-7.3-4.3c-1.7-1.7-2.5-4-2.5-6.9c0-2.4,0.5-4.5,1.7-6.3c1.2-1.8,2.8-3.1,4.9-4.1
			c2.1-1,4.5-1.4,7.2-1.4c2.8,0,5.2,0.5,7.3,1.5c2.1,1,3.8,2.4,5,4.1c1.2,1.8,1.8,3.9,1.9,6.3H124c0-1.5-0.6-2.7-1.7-3.9
			c-1.1-1.1-2.6-1.7-4.5-1.7c-1.7,0-3,0.4-4.2,1.2c-1.1,0.8-1.7,2.1-1.7,3.7c0,1.4,0.4,2.5,1.3,3.3c0.9,0.8,2,1.5,3.5,2
			c1.5,0.6,3.2,1.1,5.1,1.8c2,0.7,3.9,1.5,5.6,2.5c1.7,0.9,3,2.2,4.1,3.7c1,1.6,1.5,3.6,1.5,6c0,2.2-0.6,4.2-1.7,6
			c-1.1,1.9-2.7,3.3-4.9,4.5C124.5,128.9,121.8,129.4,118.7,129.4z"/>
		<path class="st11" d="M136.2,128.7l15.1-41.3h8.5l15.1,41.3h-8l-3.3-9.6h-16.1l-3.4,9.6H136.2z M149.6,113.3h12l-6-17.2
			L149.6,113.3z"/>
		<path class="st11" d="M179.3,128.7V87.4h7.6v41.3H179.3z"/>
		<path class="st11" d="M194,128.7V87.4h7.6v35.4h18.3v5.9H194z"/>
	</g>
</g>
</svg>
