<svg width="330" height="45" viewBox="0 0 330 45" fill="none" xmlns="http://www.w3.org/2000/svg">
  <path d="M0 8C0 3.58172 3.58172 0 8 0H12.6699V12.6H0V8Z" fill="#004C79" />
  <path d="M16.165 0H36.9999C41.4182 0 44.9999 3.58172 44.9999 8V12.6H16.165V0Z" fill="#004C79" />
  <path d="M0 32.4H28.8349V45H8C3.58173 45 0 41.4183 0 37V32.4Z" fill="#004C79" />
  <path d="M32.3301 32.4H45V37C45 41.4183 41.4182 45 37 45H32.3301V32.4Z" fill="#004C79" />
  <rect x="32.3301" y="16.2001" width="12.6699" height="12.6" fill="#004C79" />
  <rect x="16.165" y="16.2001" width="12.6699" height="12.6" fill="#00CAF2" />
  <rect y="16.2001" width="12.6699" height="12.6" fill="#004C79" />
  <path d="M72.683 32.468C71.201 32.468 69.927 32.052 68.861 31.22C67.795 30.388 67.262 29.088 67.262 27.32C67.262 25.24 68.237 23.667 70.187 22.601C72.137 21.509 75.192 20.729 79.352 20.261C79.378 19.299 79.274 18.376 79.04 17.492C78.806 16.582 78.364 15.828 77.714 15.23C77.09 14.632 76.154 14.333 74.906 14.333C73.658 14.333 72.514 14.58 71.474 15.074C70.434 15.568 69.589 16.049 68.939 16.517L68.159 15.23C68.601 14.918 69.173 14.58 69.875 14.216C70.577 13.826 71.37 13.501 72.254 13.241C73.164 12.955 74.126 12.812 75.14 12.812C76.622 12.812 77.792 13.137 78.65 13.787C79.508 14.437 80.119 15.308 80.483 16.4C80.873 17.466 81.068 18.675 81.068 20.027V32H79.586L79.43 29.582H79.313C78.351 30.336 77.311 31.012 76.193 31.61C75.075 32.182 73.905 32.468 72.683 32.468ZM72.995 30.986C74.061 30.986 75.088 30.726 76.076 30.206C77.09 29.686 78.182 28.932 79.352 27.944V21.587C76.778 21.899 74.737 22.302 73.229 22.796C71.721 23.29 70.642 23.914 69.992 24.668C69.342 25.396 69.017 26.254 69.017 27.242C69.017 28.594 69.407 29.556 70.187 30.128C70.993 30.7 71.929 30.986 72.995 30.986ZM95.1162 32.468C92.7502 32.468 90.8652 31.623 89.4612 29.933C88.0572 28.243 87.3552 25.825 87.3552 22.679C87.3552 20.651 87.7322 18.909 88.4862 17.453C89.2662 15.971 90.2802 14.827 91.5282 14.021C92.8022 13.215 94.1802 12.812 95.6622 12.812C96.8062 12.812 97.7942 13.02 98.6262 13.436C99.4842 13.826 100.381 14.385 101.317 15.113L101.239 11.681V3.959H102.955V32H101.473L101.317 29.582H101.2C100.446 30.336 99.5492 31.012 98.5092 31.61C97.4952 32.182 96.3642 32.468 95.1162 32.468ZM95.3502 30.947C96.3902 30.947 97.3782 30.687 98.3142 30.167C99.2762 29.621 100.251 28.854 101.239 27.866V16.751C100.251 15.867 99.3152 15.243 98.4312 14.879C97.5732 14.515 96.6892 14.333 95.7792 14.333C94.5312 14.333 93.4132 14.71 92.4252 15.464C91.4372 16.192 90.6442 17.18 90.0462 18.428C89.4742 19.676 89.1882 21.093 89.1882 22.679C89.1882 25.149 89.7212 27.151 90.7872 28.685C91.8532 30.193 93.3742 30.947 95.3502 30.947ZM115.394 32.468C113.912 32.468 112.638 32.052 111.572 31.22C110.506 30.388 109.973 29.088 109.973 27.32C109.973 25.24 110.948 23.667 112.898 22.601C114.848 21.509 117.903 20.729 122.063 20.261C122.089 19.299 121.985 18.376 121.751 17.492C121.517 16.582 121.075 15.828 120.425 15.23C119.801 14.632 118.865 14.333 117.617 14.333C116.369 14.333 115.225 14.58 114.185 15.074C113.145 15.568 112.3 16.049 111.65 16.517L110.87 15.23C111.312 14.918 111.884 14.58 112.586 14.216C113.288 13.826 114.081 13.501 114.965 13.241C115.875 12.955 116.837 12.812 117.851 12.812C119.333 12.812 120.503 13.137 121.361 13.787C122.219 14.437 122.83 15.308 123.194 16.4C123.584 17.466 123.779 18.675 123.779 20.027V32H122.297L122.141 29.582H122.024C121.062 30.336 120.022 31.012 118.904 31.61C117.786 32.182 116.616 32.468 115.394 32.468ZM115.706 30.986C116.772 30.986 117.799 30.726 118.787 30.206C119.801 29.686 120.893 28.932 122.063 27.944V21.587C119.489 21.899 117.448 22.302 115.94 22.796C114.432 23.29 113.353 23.914 112.703 24.668C112.053 25.396 111.728 26.254 111.728 27.242C111.728 28.594 112.118 29.556 112.898 30.128C113.704 30.7 114.64 30.986 115.706 30.986ZM131.626 40.463V13.28H133.108L133.264 15.62H133.381C134.291 14.892 135.292 14.242 136.384 13.67C137.476 13.098 138.594 12.812 139.738 12.812C142.234 12.812 144.106 13.683 145.354 15.425C146.602 17.141 147.226 19.455 147.226 22.367C147.226 24.473 146.836 26.28 146.056 27.788C145.302 29.296 144.301 30.453 143.053 31.259C141.805 32.065 140.44 32.468 138.958 32.468C138.074 32.468 137.164 32.273 136.228 31.883C135.292 31.467 134.33 30.895 133.342 30.167V40.463H131.626ZM138.88 30.947C140.154 30.947 141.272 30.583 142.234 29.855C143.222 29.127 143.989 28.126 144.535 26.852C145.107 25.552 145.393 24.057 145.393 22.367C145.393 20.833 145.198 19.468 144.808 18.272C144.418 17.05 143.781 16.088 142.897 15.386C142.039 14.684 140.895 14.333 139.465 14.333C138.529 14.333 137.554 14.606 136.54 15.152C135.552 15.672 134.486 16.426 133.342 17.414V28.529C134.408 29.413 135.409 30.037 136.345 30.401C137.307 30.765 138.152 30.947 138.88 30.947ZM159.587 32.468C157.559 32.468 156.142 31.883 155.336 30.713C154.556 29.543 154.166 28.022 154.166 26.15V15.659H151.358V13.241L154.322 13.046L154.712 7.742H157.403V13.046H162.512V15.659H157.403V26.189C157.403 27.359 157.611 28.269 158.027 28.919C158.469 29.543 159.236 29.855 160.328 29.855C160.666 29.855 161.03 29.803 161.42 29.699C161.81 29.569 162.161 29.452 162.473 29.348L163.097 31.766C162.577 31.948 162.005 32.104 161.381 32.234C160.783 32.39 160.185 32.468 159.587 32.468ZM171.498 32.468C169.912 32.468 168.586 32 167.52 31.064C166.48 30.102 165.96 28.776 165.96 27.086C165.96 25.006 166.883 23.42 168.729 22.328C170.601 21.21 173.552 20.43 177.582 19.988C177.582 19.182 177.465 18.415 177.231 17.687C177.023 16.959 176.633 16.374 176.061 15.932C175.515 15.464 174.722 15.23 173.682 15.23C172.59 15.23 171.563 15.438 170.601 15.854C169.639 16.27 168.781 16.738 168.027 17.258L166.779 15.035C167.663 14.463 168.742 13.917 170.016 13.397C171.316 12.851 172.72 12.578 174.228 12.578C176.542 12.578 178.219 13.293 179.259 14.723C180.299 16.127 180.819 18.012 180.819 20.378V32H178.167L177.894 29.738H177.777C176.893 30.466 175.918 31.103 174.852 31.649C173.812 32.195 172.694 32.468 171.498 32.468ZM172.434 29.894C173.344 29.894 174.202 29.673 175.008 29.231C175.814 28.789 176.672 28.165 177.582 27.359V22.094C174.436 22.484 172.226 23.069 170.952 23.849C169.704 24.629 169.08 25.63 169.08 26.852C169.08 27.918 169.405 28.698 170.055 29.192C170.705 29.66 171.498 29.894 172.434 29.894ZM196.337 32.468C195.453 32.468 194.53 32.26 193.568 31.844C192.632 31.402 191.748 30.804 190.916 30.05H190.799L190.526 32H187.952V4.232H191.15V11.798L191.072 15.23C191.93 14.476 192.866 13.852 193.88 13.358C194.92 12.838 195.96 12.578 197 12.578C199.47 12.578 201.342 13.449 202.616 15.191C203.89 16.933 204.527 19.273 204.527 22.211C204.527 24.369 204.137 26.215 203.357 27.749C202.603 29.283 201.602 30.453 200.354 31.259C199.132 32.065 197.793 32.468 196.337 32.468ZM195.791 29.777C197.351 29.777 198.638 29.114 199.652 27.788C200.692 26.436 201.212 24.59 201.212 22.25C201.212 20.17 200.822 18.493 200.042 17.219C199.288 15.919 198.014 15.269 196.22 15.269C195.414 15.269 194.595 15.49 193.763 15.932C192.931 16.374 192.06 17.011 191.15 17.843V27.788C191.982 28.516 192.801 29.036 193.607 29.348C194.439 29.634 195.167 29.777 195.791 29.777ZM214.072 32.468C212.876 32.468 212.005 32.104 211.459 31.376C210.939 30.622 210.679 29.556 210.679 28.178V4.232H213.877V28.412C213.877 28.906 213.968 29.27 214.15 29.504C214.332 29.712 214.54 29.816 214.774 29.816C214.878 29.816 214.969 29.816 215.047 29.816C215.151 29.79 215.294 29.764 215.476 29.738L215.905 32.156C215.697 32.26 215.45 32.338 215.164 32.39C214.878 32.442 214.514 32.468 214.072 32.468ZM229.472 32.468C227.782 32.468 226.248 32.078 224.87 31.298C223.492 30.492 222.4 29.348 221.594 27.866C220.788 26.384 220.385 24.616 220.385 22.562C220.385 20.482 220.788 18.701 221.594 17.219C222.426 15.737 223.492 14.593 224.792 13.787C226.092 12.981 227.457 12.578 228.887 12.578C231.305 12.578 233.164 13.384 234.464 14.996C235.79 16.608 236.453 18.766 236.453 21.47C236.453 21.808 236.44 22.146 236.414 22.484C236.414 22.796 236.388 23.069 236.336 23.303H223.544C223.674 25.305 224.298 26.904 225.416 28.1C226.56 29.296 228.042 29.894 229.862 29.894C230.772 29.894 231.604 29.764 232.358 29.504C233.138 29.218 233.879 28.854 234.581 28.412L235.712 30.518C234.906 31.038 233.983 31.493 232.943 31.883C231.929 32.273 230.772 32.468 229.472 32.468ZM223.505 21.002H233.645C233.645 19.078 233.229 17.622 232.397 16.634C231.591 15.62 230.447 15.113 228.965 15.113C227.639 15.113 226.443 15.633 225.377 16.673C224.337 17.687 223.713 19.13 223.505 21.002ZM256.784 32.468C254.964 32.468 253.729 31.948 253.079 30.908C252.429 29.842 252.104 28.477 252.104 26.813V14.762H249.179V13.436L252.143 13.28L252.377 7.859H253.859V13.28H259.28V14.762H253.859V26.969C253.859 28.165 254.067 29.127 254.483 29.855C254.899 30.583 255.744 30.947 257.018 30.947C257.382 30.947 257.772 30.895 258.188 30.791C258.63 30.661 259.02 30.518 259.358 30.362L259.826 31.766C259.28 31.948 258.721 32.104 258.149 32.234C257.603 32.39 257.148 32.468 256.784 32.468ZM271.4 32.468C269.918 32.468 268.54 32.091 267.266 31.337C265.992 30.557 264.965 29.439 264.185 27.983C263.405 26.501 263.015 24.733 263.015 22.679C263.015 20.573 263.405 18.792 264.185 17.336C264.965 15.854 265.992 14.736 267.266 13.982C268.54 13.202 269.918 12.812 271.4 12.812C272.908 12.812 274.299 13.202 275.573 13.982C276.847 14.736 277.874 15.854 278.654 17.336C279.434 18.792 279.824 20.573 279.824 22.679C279.824 24.733 279.434 26.501 278.654 27.983C277.874 29.439 276.847 30.557 275.573 31.337C274.299 32.091 272.908 32.468 271.4 32.468ZM271.4 30.947C272.674 30.947 273.805 30.596 274.793 29.894C275.781 29.192 276.561 28.23 277.133 27.008C277.731 25.76 278.03 24.317 278.03 22.679C278.03 21.015 277.731 19.559 277.133 18.311C276.561 17.063 275.781 16.088 274.793 15.386C273.805 14.684 272.674 14.333 271.4 14.333C270.152 14.333 269.021 14.684 268.007 15.386C267.019 16.088 266.239 17.063 265.667 18.311C265.095 19.559 264.809 21.015 264.809 22.679C264.809 24.317 265.095 25.76 265.667 27.008C266.239 28.23 267.019 29.192 268.007 29.894C269.021 30.596 270.152 30.947 271.4 30.947ZM293.441 32.468C291.959 32.468 290.581 32.091 289.307 31.337C288.033 30.557 287.006 29.439 286.226 27.983C285.446 26.501 285.056 24.733 285.056 22.679C285.056 20.573 285.446 18.792 286.226 17.336C287.006 15.854 288.033 14.736 289.307 13.982C290.581 13.202 291.959 12.812 293.441 12.812C294.949 12.812 296.34 13.202 297.614 13.982C298.888 14.736 299.915 15.854 300.695 17.336C301.475 18.792 301.865 20.573 301.865 22.679C301.865 24.733 301.475 26.501 300.695 27.983C299.915 29.439 298.888 30.557 297.614 31.337C296.34 32.091 294.949 32.468 293.441 32.468ZM293.441 30.947C294.715 30.947 295.846 30.596 296.834 29.894C297.822 29.192 298.602 28.23 299.174 27.008C299.772 25.76 300.071 24.317 300.071 22.679C300.071 21.015 299.772 19.559 299.174 18.311C298.602 17.063 297.822 16.088 296.834 15.386C295.846 14.684 294.715 14.333 293.441 14.333C292.193 14.333 291.062 14.684 290.048 15.386C289.06 16.088 288.28 17.063 287.708 18.311C287.136 19.559 286.85 21.015 286.85 22.679C286.85 24.317 287.136 25.76 287.708 27.008C288.28 28.23 289.06 29.192 290.048 29.894C291.062 30.596 292.193 30.947 293.441 30.947ZM310.958 32.468C309.424 32.468 308.657 31.48 308.657 29.504V3.959H310.373V29.738C310.373 30.544 310.646 30.947 311.192 30.947C311.27 30.947 311.361 30.947 311.465 30.947C311.569 30.921 311.712 30.895 311.894 30.869L312.206 32.273C312.024 32.325 311.842 32.364 311.66 32.39C311.478 32.442 311.244 32.468 310.958 32.468ZM323.606 32.468C322.228 32.468 320.941 32.221 319.745 31.727C318.575 31.207 317.574 30.596 316.742 29.894L317.756 28.607C318.562 29.257 319.42 29.816 320.33 30.284C321.24 30.752 322.371 30.986 323.723 30.986C325.179 30.986 326.284 30.622 327.038 29.894C327.792 29.14 328.169 28.269 328.169 27.281C328.169 26.501 327.935 25.851 327.467 25.331C326.999 24.811 326.414 24.382 325.712 24.044C325.036 23.706 324.334 23.407 323.606 23.147C322.67 22.809 321.747 22.432 320.837 22.016C319.953 21.6 319.225 21.067 318.653 20.417C318.081 19.741 317.795 18.87 317.795 17.804C317.795 16.426 318.302 15.256 319.316 14.294C320.356 13.306 321.851 12.812 323.801 12.812C324.815 12.812 325.79 12.994 326.726 13.358C327.688 13.722 328.507 14.19 329.183 14.762L328.247 15.971C327.597 15.503 326.921 15.113 326.219 14.801C325.517 14.463 324.698 14.294 323.762 14.294C322.306 14.294 321.227 14.645 320.525 15.347C319.849 16.049 319.511 16.829 319.511 17.687C319.511 18.389 319.706 18.974 320.096 19.442C320.512 19.91 321.045 20.3 321.695 20.612C322.371 20.898 323.073 21.184 323.801 21.47C324.789 21.834 325.751 22.224 326.687 22.64C327.623 23.056 328.39 23.615 328.988 24.317C329.612 25.019 329.924 25.981 329.924 27.203C329.924 28.139 329.677 29.01 329.183 29.816C328.689 30.596 327.974 31.233 327.038 31.727C326.102 32.221 324.958 32.468 323.606 32.468Z" fill="#004C79" />
</svg>
  