<svg width="956" height="248" viewBox="0 0 956 248" fill="none" xmlns="http://www.w3.org/2000/svg"><path d="M518.344 120.312v2.813h-26.063v17.813h25v2.812h-25v18.438h26.5V165H489v-44.688h29.344zm44.5 39.876c3.312 1.124 6.364 1.687 9.156 1.687 8.479 0 12.719-4.719 12.719-14.156 0-8.396-4.219-12.594-12.657-12.594-2.916 0-5.989.25-9.218.75v24.313zm-3.282-26.657c3.73-.896 7.917-1.343 12.563-1.343 10.521 0 15.781 5.197 15.781 15.593 0 11.479-5.291 17.219-15.875 17.219-2.625 0-5.687-.521-9.187-1.562v13.437h-3.282v-43.344zm40.719-13.219V165H597v-44.688h3.281zm8.781 35.407c0-6.521 4.334-9.781 13-9.781 3.063 0 6.334.208 9.813.624v-4.031c0-5.021-3.156-7.531-9.469-7.531-3.375 0-6.833.521-10.375 1.562v-2.812c3.542-1.042 7-1.562 10.375-1.562 8.5 0 12.75 3.395 12.75 10.187V165h-2l-.75-3.25c-4.104 2.167-8.083 3.25-11.937 3.25-7.604 0-11.407-3.094-11.407-9.281zm13-6.969c-6.479 0-9.718 2.292-9.718 6.875 0 4.375 2.708 6.563 8.125 6.563 4 0 7.802-1.063 11.406-3.188v-9.625c-3.479-.417-6.75-.625-9.813-.625zm27.344-28.438v3.75H645.5v-3.75h3.906zm-.312 11.876V165h-3.282v-32.812h3.282zM659.75 165v-32.812h2.344l.406 4.187c4.188-2.792 8.292-4.187 12.312-4.187 7.98 0 11.969 3.447 11.969 10.343V165H683.5v-22.562c0-4.876-2.948-7.313-8.844-7.313-3.937 0-7.812 1.385-11.625 4.156V165h-3.281zm50.281-32.812c8.979 0 13.469 4.968 13.469 14.906 0 .708-.021 1.448-.062 2.218h-24.907c0 8.584 4.542 12.876 13.625 12.876 3.729 0 7.042-.521 9.938-1.563v2.813c-2.896 1.041-6.209 1.562-9.938 1.562-11.271 0-16.906-5.594-16.906-16.781 0-10.688 4.927-16.031 14.781-16.031zm-11.5 14.187h21.813c-.125-7.625-3.563-11.437-10.313-11.437-7.291 0-11.125 3.812-11.5 11.437zM755.844 137a29.285 29.285 0 00-9.875-1.688c-8.063 0-12.094 4.136-12.094 12.407 0 9.562 4.031 14.343 12.094 14.343 3.416 0 6.708-.406 9.875-1.218V137zm3.281 26.031c-3.563 1.313-8.052 1.969-13.469 1.969-10.187 0-15.281-5.688-15.281-17.062 0-10.5 5.187-15.75 15.563-15.75 3.25 0 6.552.52 9.906 1.562v-13.438h3.281v42.719z" fill="#D1DAE0"/><path d="M536.844 148.594l-12.75-16.406H528l10.781 13.874 10.781-13.874h3.907l-12.719 16.406L553.469 165h-3.907l-10.781-13.875L528 165h-3.906l12.75-16.406z" fill="#219EBC"/><path stroke="url(#paint0_radial)" d="M483.61 216.687l173-216"/><path transform="scale(-1 1) rotate(-51.308 -50.816 767.378)" stroke="url(#paint1_radial)" d="M0-.5h276.74"/><path fill-rule="evenodd" clip-rule="evenodd" d="M36.633 48.324C17.9 58.951 2.573 67.733 2.573 67.84c0 .147 60.53 35.031 61.432 35.404.094.038.599-.346 1.122-.855 1.229-1.193 3.068-2.116 4.709-2.362 2.41-.361 4.972.525 6.846 2.368.788.776 1.026.931 1.235.805.142-.086 14.025-8.048 30.85-17.692 16.826-9.645 30.592-17.593 30.592-17.663 0-.165-68.17-38.85-68.452-38.845-.117.002-15.541 8.698-34.274 19.324zm347.616 18.918c-5.581.611-10.089 1.93-14.747 4.317a39.76 39.76 0 00-18.431 19.67 41.754 41.754 0 00-3.073 11.433c-.309 2.573-.309 8 0 10.563 1.426 11.842 7.806 22.335 17.468 28.733a40.297 40.297 0 0016.679 6.335c3.166.446 10.219.401 13.475-.085 9.032-1.349 16.023-4.894 23.04-11.683.965-.933 1.754-1.773 1.754-1.866 0-.093-2.018-2.172-4.483-4.619l-4.483-4.45-1.246 1.096c-2.947 2.593-7.532 5.708-10.119 6.874-5.782 2.606-13.637 2.971-19.616.912-6.528-2.248-11.644-6.796-14.778-13.138-5.294-10.714-3.721-24.22 3.818-32.78 3.707-4.21 9.185-7.29 14.664-8.25 3.151-.551 7.343-.448 10.66.262 4.907 1.051 9.771 3.757 15.422 8.58.381.325.729.514.803.436.072-.075 2.11-2.401 4.528-5.168l4.397-5.031-.992-.903c-6.909-6.292-14.246-9.774-23.223-11.021-2.116-.294-9.537-.434-11.517-.217zm45.83 4.865v5.031h20.808l-6.296 6.254-6.296 6.254.928 3.692.928 3.692 3.654.104c2.732.078 4.048.184 5.213.42 3.065.623 5.234 2.124 6.005 4.159.284.75.328 1.134.278 2.438-.073 1.909-.503 2.959-1.675 4.093-1.543 1.493-3.545 2.102-6.478 1.972-4.102-.182-7.123-1.562-10.449-4.77l-1.563-1.509-4.01 3.794c-2.205 2.087-4.009 3.873-4.009 3.969 0 .32 3.334 3.425 4.723 4.398 4.387 3.075 9.821 4.695 15.744 4.693 6.165-.001 10.925-1.683 14.451-5.108 1.524-1.479 2.388-2.675 3.278-4.534 1.593-3.33 2.106-7.699 1.332-11.352-1.193-5.634-5.425-9.41-12.271-10.95l-1.503-.339 6.686-6.338 6.686-6.338v-8.755h-36.164v5.03zm-241.773 35.759v39.397h13.873v-32.044h40.062V102.68h-40.062V81.008h45.206V68.47h-59.079v39.397zm74.2 0v39.409l17.575-.052c17.226-.051 17.618-.058 19.68-.392 9.459-1.527 17.44-5.432 23.628-11.559 3.047-3.017 5.112-5.903 7.095-9.914 2.758-5.579 3.936-10.838 3.936-17.569 0-6.779-1.167-11.986-3.937-17.57-5.747-11.583-16.449-18.994-30.8-21.329-1.967-.32-2.54-.33-19.602-.381l-17.575-.052v39.409zM.039 110.136l.04 38.594 34.06 19.537c18.733 10.746 34.148 19.541 34.255 19.546.155.005.195-7.229.195-35.678V116.45l-.399-.151c-3.51-1.325-5.731-4.296-5.751-7.696l-.008-1.275L32.034 89.9A89611.686 89611.686 0 00.82 72.008L0 71.543l.04 38.593zm110.794-20.839c-17.019 9.756-31.096 17.837-31.284 17.957-.292.188-.32.289-.198.71.182.633-.057 2.334-.478 3.396-.79 1.99-2.242 3.506-4.309 4.499l-1.299.625V188l.507-.303c.278-.167 15.623-8.961 34.099-19.542 18.476-10.582 33.68-19.318 33.788-19.414.155-.139.187-7.999.155-38.678l-.039-38.504-30.942 17.738zm186.151-7.93c10.619 1.76 18.123 7.962 21.226 17.54 1.507 4.651 1.772 10.561.698 15.538-2.077 9.615-8.859 16.685-18.402 19.185-3.606.944-4.147.984-14.501 1.053l-9.47.064V80.982l9.47.067c7.76.055 9.742.112 10.979.317z" fill="#fff"/><defs><radialGradient id="paint0_radial" cx="0" cy="0" r="1" gradientUnits="userSpaceOnUse" gradientTransform="matrix(79.60982 -94.81276 26238.45124 22031.19383 570.89 109.312)"><stop offset=".542" stop-color="#219EBC"/><stop offset="1" stop-color="#fff" stop-opacity=".08"/></radialGradient><radialGradient id="paint1_radial" cx="0" cy="0" r="1" gradientUnits="userSpaceOnUse" gradientTransform="matrix(123.76982 2.86598 -793.13136 34252.01845 138.37 .5)"><stop offset=".542" stop-color="#219EBC"/><stop offset="1" stop-color="#fff" stop-opacity=".08"/></radialGradient></defs></svg>