<?xml version="1.0" encoding="UTF-8"?>
<svg width="1200pt" height="1200pt" version="1.1" viewBox="0 0 1200 1200" xmlns="http://www.w3.org/2000/svg">
 <g>
  <path fill="white" d="m791.27 468.04c-11.719 0-21.137 9.4336-21.137 21.137 0 11.754 9.3828 21.137 21.137 21.137 11.719 0 21.137-9.418 21.137-21.137 0-11.754-9.3828-21.137-21.137-21.137zm-439.89 247.25h34.312v-58.41c0-9.9961 8.1133-18.102 18.102-18.102h392.41c9.9883 0 18.102 8.1055 18.102 18.102v58.41h34.312c24.535 0 44.672-20.145 44.672-44.684v-223.66c0-24.535-20.137-44.684-44.672-44.684h-497.24c-24.535 0-44.672 20.145-44.672 44.684v223.66c0 24.535 20.137 44.684 44.672 44.684zm418.72-448.37v99.141h30.07v-99.141zm-36.203 99.141v-99.141h-267.79v99.141zm-304 0v-99.141h-30.07v99.141zm-66.273 0v-117.24c0-9.9961 8.1055-18.102 18.102-18.102h436.54c9.9961 0 18.102 8.1055 18.102 18.102v117.24h12.246c44.523 0 80.875 36.363 80.875 80.887v223.66c0 44.531-36.355 80.887-80.875 80.887h-34.312v199.68c0 9.9883-8.1133 18.102-18.102 18.102h-392.41c-9.9883 0-18.102-8.1133-18.102-18.102v-199.68h-34.312c-44.523 0-80.875-36.355-80.875-80.887v-223.66c0-44.531 36.355-80.887 80.875-80.887zm118.66 528.9c-23.832 0-23.832-36.203 0-36.203h235.43c23.832 0 23.832 36.203 0 36.203zm0-72.836c-23.832 0-23.832-36.203 0-36.203h106.92c23.832 0 23.832 36.203 0 36.203zm191.29 0c-23.832 0-23.832-36.203 0-36.203h44.137c23.832 0 23.832 36.203 0 36.203zm-191.29-72.836c-23.832 0-23.832-36.203 0-36.203h235.43c23.832 0 23.832 36.203 0 36.203zm-28.93-278.84c-23.832 0-23.832-36.203 0-36.203h89.758c23.832 0 23.832 36.203 0 36.203zm-71.121 0c-23.832 0-23.832-36.203 0-36.203h8.8281c23.832 0 23.832 36.203 0 36.203zm39.668 262.94v199.67h356.2v-258.08h-356.2zm369.37-301.56c31.578 0 57.348 25.762 57.348 57.34 0 31.59-25.723 57.34-57.348 57.34-31.578 0-57.34-25.762-57.34-57.34 0-31.605 25.707-57.34 57.34-57.34z"/>
 </g>
</svg>
