<?xml version="1.0" encoding="UTF-8"?>
<svg width="1200pt" height="1200pt" version="1.1" viewBox="0 0 1200 1200" xmlns="http://www.w3.org/2000/svg">
 <g>
  <path fill="white" d="m372.91 230.11h454.18c46.332 0 84.172 37.836 84.172 84.172v571.45c0 46.332-37.836 84.172-84.172 84.172h-454.18c-46.332 0-84.172-37.836-84.172-84.172v-571.45c0-46.332 37.836-84.172 84.172-84.172zm324.3 463.18c4.6953-8.8008 15.637-12.129 24.438-7.4336 8.8008 4.6953 12.121 15.637 7.4336 24.438-25.484 47.637-75.039 77.477-129.09 77.477-80.832 0-146.38-65.535-146.38-146.37 0-80.84 65.543-146.38 146.38-146.38 54.047 0 103.6 29.848 129.09 77.477 4.6875 8.8008 1.3672 19.742-7.4336 24.438-8.8008 4.6953-19.742 1.3672-24.438-7.4336-19.234-35.953-56.457-58.215-97.211-58.215-60.812 0-110.11 49.297-110.11 110.11 0 60.805 49.297 110.11 110.11 110.11 40.754 0 77.984-22.27 97.211-58.223zm-97.211-257.78c113.71 0 205.89 92.188 205.89 205.89 0 113.71-92.188 205.88-205.89 205.88-113.71 0-205.88-92.176-205.88-205.88 0-113.71 92.176-205.89 205.88-205.89zm0 36.266c-93.684 0-169.62 75.941-169.62 169.62 0 93.676 75.949 169.62 169.62 169.62 93.684 0 169.62-75.941 169.62-169.62 0-93.684-75.941-169.62-169.62-169.62zm138.36 151.49c23.867 0 23.867 36.266 0 36.266h-38.898c-23.867 0-23.867-36.266 0-36.266zm97.121-325.61c23.867 0 23.867 36.258 0 36.258h-48.234c-23.875 0-23.875-36.258 0-36.258zm-422.72 0c23.867 0 23.867 36.258 0 36.258h-48.242c-23.867 0-23.867-36.258 0-36.258zm127.36 0c23.867 0 23.867 36.258 0 36.258h-14.301c-23.875 0-23.875-36.258 0-36.258zm67.023 0c23.867 0 23.867 36.258 0 36.258h-14.301c-23.875 0-23.875-36.258 0-36.258zm67.031 0c23.867 0 23.867 36.258 0 36.258h-14.309c-23.867 0-23.867-36.258 0-36.258zm-349.18 569.94h549.99v-466.77h-549.99zm546.39 36.258h-542.8c7.293 17.645 24.645 29.777 44.309 29.777h454.18c19.664 0 37.016-12.129 44.309-29.777zm-546.39-539.29h549.99v-50.289c0-26.312-21.602-47.906-47.906-47.906h-454.18c-26.305 0-47.906 21.602-47.906 47.906v50.289z"/>
 </g>
</svg>
