<svg xmlns="http://www.w3.org/2000/svg" role="img" viewBox="-10.81 -10.81 464.62 562.12"><title>FDC3 Conformance Framework logo</title><style>svg {enable-background:new 0 0 443.2 540.8}</style><style>.st0{fill:#5d93cd}</style><path d="M25.9 540.3c1.6-.3 3-.8 4.3-1.4 1.3-.6 2.5-1.4 3.6-2.3 1.1-.9 2.2-1.9 3.2-3l-5.6-5.7c-1.6 1.5-3.1 2.6-4.7 3.4-1.6.8-3.5 1.3-5.8 1.3-1.7 0-3.3-.3-4.7-1-1.4-.7-2.7-1.6-3.7-2.7s-1.8-2.5-2.4-4c-.6-1.5-.9-3.2-.9-4.9v-.1c0-1.7.3-3.3.9-4.8.6-1.5 1.4-2.8 2.4-4 1-1.1 2.3-2 3.7-2.7 1.4-.6 3-1 4.7-1 2 0 3.9.4 5.5 1.2 1.6.8 3.2 1.9 4.8 3.3l5.6-6.5c-.9-.9-1.9-1.8-3-2.5-1.1-.8-2.2-1.4-3.5-2-1.3-.5-2.7-1-4.2-1.3-1.5-.3-3.3-.5-5.1-.5-3.1 0-5.9.5-8.5 1.6-2.6 1.1-4.8 2.6-6.6 4.5-1.8 1.9-3.3 4.1-4.3 6.6S.1 517 .1 519.9v.1c0 2.9.5 5.6 1.5 8.1s2.5 4.7 4.3 6.6c1.8 1.9 4 3.3 6.5 4.4 2.5 1.1 5.3 1.6 8.2 1.6 1.9.1 3.7-.1 5.3-.4zm29.2-7.7c-1-.5-1.8-1.1-2.6-1.9-.7-.8-1.3-1.7-1.7-2.7-.4-1-.6-2.1-.6-3.2v-.1c0-1.1.2-2.2.5-3.2.4-1 .9-1.9 1.6-2.7.7-.8 1.5-1.4 2.5-1.8 1-.4 2.1-.7 3.4-.7 1.2 0 2.3.2 3.3.7 1 .5 1.9 1.1 2.6 1.9.7.8 1.3 1.7 1.7 2.7.4 1 .6 2.1.6 3.2v.1c0 1.1-.2 2.2-.5 3.2-.4 1-.9 1.9-1.6 2.7-.7.8-1.5 1.4-2.5 1.8-1 .4-2.1.7-3.4.7-1.2 0-2.3-.2-3.3-.7zm9.8 6.9c2-.8 3.8-2 5.3-3.4 1.5-1.5 2.7-3.1 3.5-5.1.8-1.9 1.3-4 1.3-6.2v-.1c0-2.2-.4-4.3-1.3-6.2-.8-1.9-2-3.6-3.5-5s-3.2-2.6-5.2-3.4c-2-.8-4.2-1.2-6.6-1.2-2.4 0-4.6.4-6.7 1.3-2 .8-3.8 2-5.3 3.4-1.5 1.5-2.7 3.1-3.5 5.1-.8 1.9-1.3 4-1.3 6.2v.1c0 2.2.4 4.3 1.3 6.2.8 1.9 2 3.6 3.5 5s3.2 2.6 5.2 3.4c2 .8 4.2 1.2 6.6 1.2 2.5 0 4.7-.4 6.7-1.3zm16.4.6H90V523c0-2.1.5-3.6 1.5-4.7 1-1 2.3-1.6 4-1.6 1.7 0 3 .5 3.9 1.6.9 1 1.4 2.6 1.4 4.7v17.1h8.7v-19.9c0-3.6-.9-6.3-2.7-8.4-1.8-2-4.4-3-7.7-3-1.1 0-2.1.1-3 .4-.9.3-1.7.6-2.4 1.1-.7.5-1.4 1-2 1.6-.6.6-1.1 1.2-1.6 1.9v-4.4h-8.7v30.7h-.1zm37.2 0h8.7v-23.3h6.9v-7.1H127v-1.2c0-2.2 1.1-3.3 3.2-3.3.8 0 1.5.1 2.1.2.6.1 1.2.3 1.9.5v-7.2c-.8-.3-1.7-.5-2.7-.6-1-.2-2.1-.2-3.5-.2-3.1 0-5.4.8-7.1 2.4-1.6 1.6-2.5 4.1-2.5 7.5v2h-3.6v7.2h3.6v23.1h.1zm32.3-7.5c-1-.5-1.8-1.1-2.6-1.9-.7-.8-1.3-1.7-1.7-2.7-.4-1-.6-2.1-.6-3.2v-.1c0-1.1.2-2.2.5-3.2.4-1 .9-1.9 1.6-2.7.7-.8 1.5-1.4 2.5-1.8 1-.4 2.1-.7 3.4-.7 1.2 0 2.3.2 3.3.7 1 .5 1.9 1.1 2.6 1.9.7.8 1.3 1.7 1.7 2.7.4 1 .6 2.1.6 3.2v.1c0 1.1-.2 2.2-.5 3.2-.4 1-.9 1.9-1.6 2.7-.7.8-1.5 1.4-2.5 1.8-1 .4-2.1.7-3.4.7-1.2 0-2.3-.2-3.3-.7zm9.8 6.9c2-.8 3.8-2 5.3-3.4 1.5-1.5 2.7-3.1 3.5-5.1.8-1.9 1.3-4 1.3-6.2v-.1c0-2.2-.4-4.3-1.3-6.2-.8-1.9-2-3.6-3.5-5s-3.2-2.6-5.2-3.4c-2-.8-4.2-1.2-6.6-1.2-2.4 0-4.6.4-6.7 1.3-2 .8-3.8 2-5.3 3.4s-2.7 3.1-3.5 5.1c-.8 1.9-1.3 4-1.3 6.2v.1c0 2.2.4 4.3 1.3 6.2.8 1.9 2 3.6 3.5 5s3.2 2.6 5.2 3.4c2 .8 4.2 1.2 6.6 1.2 2.5 0 4.7-.4 6.7-1.3zm16.4.6h8.7v-11.4c0-3.7.8-6.4 2.5-8.2 1.7-1.8 3.9-2.6 6.9-2.6h.5v-9.1c-2.6-.1-4.7.5-6.2 1.7-1.5 1.3-2.7 2.9-3.6 5v-6.2H177v30.8zm24 0h8.7V523c0-2.1.5-3.6 1.4-4.7.9-1 2.2-1.6 3.9-1.6 1.6 0 2.9.5 3.8 1.6.9 1 1.3 2.6 1.3 4.7v17.1h8.7V523c0-2.1.5-3.6 1.4-4.7.9-1 2.2-1.6 3.9-1.6 1.6 0 2.9.5 3.8 1.6.9 1 1.3 2.6 1.3 4.7v17.1h8.7v-20c0-3.7-.9-6.5-2.8-8.4-1.8-1.9-4.4-2.9-7.6-2.9-2.1 0-4 .4-5.6 1.2-1.6.8-3.1 2.1-4.5 3.7-.8-1.6-1.9-2.8-3.4-3.6-1.5-.8-3.2-1.3-5.2-1.3-1.1 0-2.1.1-3 .4-.9.3-1.7.6-2.4 1.1-.7.5-1.4 1-2 1.6-.6.6-1.1 1.2-1.6 1.9v-4.4H201v30.7zm62.4-6.4c-.9-.7-1.3-1.6-1.3-2.8v-.1c0-1.4.5-2.4 1.6-3.2 1.1-.7 2.5-1.1 4.4-1.1 1.1 0 2.1.1 3 .3.9.2 1.8.5 2.6.8v1.5c0 1.6-.6 2.9-1.9 3.9-1.2 1-2.9 1.5-5 1.5-1.4.2-2.6-.2-3.4-.8zm6.2 5.9c1.5-.7 2.8-1.7 3.8-2.8v3.3h8.4v-17.8c0-2.1-.3-3.9-.8-5.6-.5-1.7-1.4-3.1-2.5-4.2s-2.5-2-4.2-2.6c-1.7-.6-3.8-.9-6.2-.9-2.6 0-4.8.2-6.7.7-1.8.5-3.6 1.1-5.3 1.8l2.2 6.7c1.4-.5 2.8-.9 4-1.2 1.3-.3 2.8-.4 4.4-.4 2.2 0 3.8.5 4.9 1.4 1.1 1 1.7 2.4 1.7 4.2v.5c-1.1-.4-2.2-.7-3.4-.9-1.2-.2-2.5-.3-4.1-.3-1.8 0-3.5.2-5 .6-1.5.4-2.8 1-3.9 1.8s-1.9 1.8-2.6 3c-.6 1.2-.9 2.7-.9 4.4v.1c0 1.5.3 2.9.8 4s1.3 2.1 2.3 3c1 .8 2.1 1.4 3.4 1.8 1.3.4 2.6.6 4.1.6 2.3-.1 4.1-.5 5.6-1.2zm19.8.5h8.7V523c0-2.1.5-3.6 1.5-4.7 1-1 2.3-1.6 4-1.6 1.7 0 3 .5 3.9 1.6.9 1 1.4 2.6 1.4 4.7v17.1h8.7v-19.9c0-3.6-.9-6.3-2.7-8.4-1.8-2-4.4-3-7.7-3-1.1 0-2.1.1-3 .4-.9.3-1.7.6-2.4 1.1-.7.5-1.4 1-2 1.6-.6.6-1.1 1.2-1.6 1.9v-4.4h-8.7v30.7h-.1zm57.7-.9c1.9-1.1 3.6-2.4 5.1-4l-5.1-5.2c-1.1 1-2.2 1.8-3.2 2.4-1.1.6-2.4.9-3.8.9-1.2 0-2.3-.2-3.2-.7-1-.4-1.8-1-2.5-1.8s-1.2-1.7-1.6-2.7c-.4-1-.5-2.1-.5-3.3v-.1c0-1.1.2-2.2.5-3.2.4-1 .9-1.9 1.5-2.7.7-.8 1.5-1.4 2.4-1.8.9-.4 1.9-.7 3-.7 1.6 0 2.9.3 3.9.9 1.1.6 2.1 1.4 3.1 2.5l5.3-5.7c-1.5-1.6-3.1-2.9-5-3.8-1.9-.9-4.3-1.4-7.2-1.4-2.4 0-4.5.4-6.5 1.3-2 .8-3.7 2-5.1 3.4-1.4 1.5-2.5 3.2-3.3 5.1-.8 2-1.2 4-1.2 6.2v.1c0 2.2.4 4.2 1.2 6.2.8 1.9 1.9 3.6 3.3 5s3.1 2.6 5.1 3.4c2 .8 4.1 1.3 6.4 1.3 3 0 5.5-.5 7.4-1.6zm17.8-16.9c.3-2 1.1-3.6 2.2-4.8 1.1-1.2 2.6-1.8 4.4-1.8 1.8 0 3.3.6 4.4 1.8 1.1 1.2 1.8 2.8 2.1 4.7h-13.1v.1zm14.8 17c2.1-1 3.8-2.4 5.3-4.2l-5-4.4c-1.2 1.1-2.4 1.9-3.6 2.4-1.1.5-2.4.7-3.9.7-2 0-3.6-.5-4.9-1.5-1.3-1-2.2-2.5-2.6-4.5h21.4c0-.4.1-.8.1-1.2v-1.1c0-2.2-.3-4.3-.9-6.3-.6-2-1.5-3.8-2.8-5.3-1.2-1.5-2.8-2.8-4.7-3.7-1.9-.9-4.1-1.4-6.7-1.4-2.3 0-4.3.4-6.2 1.3-1.9.8-3.5 2-4.8 3.4-1.3 1.5-2.4 3.2-3.1 5.1-.7 2-1.1 4-1.1 6.2v.1c0 2.4.4 4.5 1.2 6.5.8 1.9 1.9 3.6 3.4 5 1.4 1.4 3.1 2.5 5.1 3.3 2 .8 4.1 1.1 6.4 1.1 2.9 0 5.4-.5 7.4-1.5z" class="st0"/><path d="M412.8 416.8c18.8 0 30.4-11.7 30.4-27.6v-.2c0-15.7-11.2-21.7-22.7-23.7l21.3-20.4v-14h-57.1v15.9H418l-20.1 20.3 2.9 11.8h7.7c10.4 0 16.5 3.9 16.5 10.7v.2c0 6.3-4.9 10.3-11.9 10.3-8.6 0-14.6-3.6-20.4-10.1l-12.8 12.2c7.2 8.6 17.7 14.6 32.9 14.6zM0 459.3h22v-51.4h63.6v-20H22v-34.8h71.8v-20H0v126.2zm140.3-20v-86.2h24.9c6.6 0 12.6 1.1 18 3.3 5.4 2.2 10 5.2 13.8 9 3.8 3.8 6.7 8.4 8.8 13.7 2.1 5.3 3.2 11 3.2 17.2v.4c0 6.2-1.1 11.9-3.2 17.1-2.1 5.3-5 9.8-8.8 13.6-3.8 3.8-8.4 6.8-13.8 8.9-5.4 2.1-11.4 3.2-18 3.2h-24.9v-.2zm-22 20h47.1c9.9 0 18.9-1.6 27.1-4.9 8.2-3.2 15.3-7.7 21.3-13.3 6-5.6 10.5-12.3 13.8-20 3.2-7.7 4.9-16 4.9-24.9v-.4c0-8.9-1.6-17.2-4.9-24.8-3.2-7.6-7.8-14.3-13.8-19.9-5.9-5.6-13-10.1-21.3-13.3-8.2-3.2-17.3-4.8-27.1-4.8h-47.1v126.3zm215.9.6c4.9-1 9.3-2.5 13.4-4.5s7.9-4.3 11.4-7 6.9-5.8 10.2-9.3L355 424.7c-5.4 5-10.9 9-16.4 12-5.5 2.9-12.1 4.4-19.8 4.4-6 0-11.6-1.2-16.7-3.5s-9.5-5.6-13.3-9.6c-3.7-4.1-6.6-8.9-8.7-14.3-2-5.5-3.1-11.3-3.1-17.4v-.4c0-6.1 1-11.9 3.1-17.3 2-5.4 4.9-10.1 8.7-14.2 3.7-4 8.1-7.2 13.3-9.6 5.1-2.3 10.7-3.5 16.7-3.5 7.2 0 13.6 1.4 19.3 4.3 5.6 2.9 11 6.7 16 11.4l14.2-16.4c-3-2.9-6.2-5.5-9.6-7.9-3.4-2.4-7-4.5-11-6.2-4-1.7-8.3-3.1-13.1-4.1-4.7-1-10-1.4-15.8-1.4-9.6 0-18.4 1.7-26.3 5.1-7.9 3.4-14.8 8.1-20.6 14.1-5.8 5.9-10.3 12.9-13.5 20.7-3.2 7.9-4.8 16.3-4.8 25.3v.4c0 9 1.6 17.5 4.9 25.4 3.3 7.9 7.8 14.8 13.5 20.6 5.7 5.8 12.5 10.4 20.3 13.8 7.8 3.4 16.3 5 25.6 5 6 0 11.4-.5 16.3-1.5z"/><path fill="#0054a6" d="M249.7 212.1V75.6l-110.1 63.5c.1.6.3 1.1.3 1.7 0 6.8-4.6 12.4-10.8 14.3v126.6l120.6-69.6z"/><path d="M136.7 131.7L245.2 69v-.3L124.9 0 4.5 68.7v.3L113 131.7c2.8-3.6 6.9-6.1 11.8-6.1 5 .1 9.1 2.5 11.9 6.1z" class="st0"/><path d="M110 139.2L0 75.6v136.5l120.5 69.6V155.1c-6.2-1.9-10.8-7.4-10.8-14.3 0-.6.3-1.1.3-1.6z"/></svg>