<?xml version="1.0" encoding="utf-8"?>
<!-- Generator: Adobe Illustrator 23.0.3, SVG Export Plug-In . SVG Version: 6.00 Build 0)  -->
<svg version="1.1" id="Layer_1" xmlns="http://www.w3.org/2000/svg" xmlns:xlink="http://www.w3.org/1999/xlink" x="0px" y="0px"
	 viewBox="0 0 612 792" style="enable-background:new 0 0 612 792;" xml:space="preserve">
<style type="text/css">
	.st0{fill:#0054A6;}
	.st1{fill:#5D93CD;}
</style>
<g>
	<path d="M636.48,415.26c18.21,0,29.41-11.32,29.41-26.73v-0.23c0-15.18-10.85-21.02-21.94-22.89l20.65-19.74v-13.53h-55.21v15.4
		h32.11L622,367.16l2.8,11.45h7.47c10.04,0,16,3.74,16,10.39v0.23c0,6.07-4.79,9.93-11.56,9.93c-8.29,0-14.13-3.5-19.73-9.81
		l-12.38,11.79C611.61,409.42,621.77,415.26,636.48,415.26L636.48,415.26z"/>
	<path d="M236.94,456.37h21.29v-49.73h61.6v-19.37h-61.6V353.6h69.45v-19.37h-90.73V456.37L236.94,456.37z M372.69,437.01V353.6
		h24.08c6.4,0,12.21,1.05,17.45,3.16c5.24,2.1,9.68,4.99,13.35,8.67c3.66,3.68,6.51,8.09,8.55,13.23
		c2.03,5.14,3.05,10.69,3.05,16.64v0.35c0,5.96-1.02,11.48-3.05,16.56c-2.04,5.08-4.89,9.46-8.55,13.14
		c-3.66,3.68-8.11,6.54-13.35,8.59c-5.23,2.05-11.05,3.07-17.45,3.07H372.69L372.69,437.01z M351.4,456.37h45.54
		c9.54,0,18.29-1.57,26.26-4.71c7.97-3.14,14.83-7.44,20.59-12.91c5.76-5.47,10.21-11.92,13.35-19.37
		c3.14-7.44,4.71-15.47,4.71-24.08v-0.35c0-8.61-1.57-16.6-4.71-23.99c-3.14-7.39-7.59-13.81-13.35-19.28
		c-5.76-5.47-12.62-9.74-20.59-12.82c-7.97-3.08-16.72-4.62-26.26-4.62H351.4V456.37L351.4,456.37z M560.35,456.98
		c4.71-0.99,9.04-2.44,13-4.36c3.95-1.92,7.65-4.19,11.08-6.8c3.43-2.62,6.72-5.61,9.86-8.99l-13.78-13.96
		c-5.23,4.89-10.53,8.75-15.88,11.6c-5.35,2.85-11.75,4.28-19.19,4.28c-5.82,0-11.2-1.14-16.14-3.4c-4.94-2.27-9.22-5.38-12.82-9.33
		c-3.61-3.95-6.4-8.58-8.38-13.87c-1.98-5.29-2.97-10.91-2.97-16.84v-0.35c0-5.93,0.99-11.52,2.97-16.75
		c1.98-5.23,4.77-9.8,8.38-13.7c3.6-3.9,7.88-6.98,12.82-9.25c4.94-2.27,10.32-3.4,16.14-3.4c6.98,0,13.2,1.4,18.67,4.19
		c5.47,2.79,10.64,6.46,15.53,10.99l13.79-15.88c-2.91-2.79-5.99-5.35-9.25-7.68c-3.26-2.32-6.81-4.33-10.64-6.02
		c-3.84-1.68-8.06-2.99-12.65-3.93c-4.6-0.93-9.68-1.4-15.27-1.4c-9.31,0-17.8,1.66-25.47,4.97c-7.68,3.32-14.33,7.85-19.94,13.61
		c-5.62,5.76-9.98,12.45-13.09,20.07c-3.11,7.62-4.66,15.79-4.66,24.51v0.35c0,8.72,1.58,16.93,4.75,24.6
		c3.16,7.68,7.53,14.34,13.09,19.98c5.56,5.64,12.12,10.09,19.68,13.35c7.56,3.26,15.82,4.89,24.78,4.89
		C550.43,458.47,555.64,457.97,560.35,456.98L560.35,456.98z"/>
	<path class="st0" d="M165.35,458.43V339.12l-96.22,55.55c0.06,0.51,0.29,0.95,0.29,1.46c0,5.98-4.03,10.84-9.47,12.49v110.65
		L165.35,458.43L165.35,458.43z"/>
	<path class="st1" d="M66.5,388.17l94.88-54.78v-0.3L56.17,273l-105.2,60.1v0.3l94.88,54.77c2.42-3.14,6.05-5.29,10.32-5.29
		C60.45,382.88,64.07,385.04,66.5,388.17L66.5,388.17z"/>
	<path d="M43.22,394.67L-53,339.12v119.3l105.39,60.85V408.62c-5.44-1.65-9.47-6.51-9.47-12.49
		C42.92,395.62,43.16,395.18,43.22,394.67L43.22,394.67z"/>
</g>
</svg>
