<?xml version="1.0" encoding="utf-8"?>
<!-- Generator: Adobe Illustrator 27.4.0, SVG Export Plug-In . SVG Version: 6.00 Build 0)  -->
<svg version="1.1" id="Layer_1" xmlns="http://www.w3.org/2000/svg" xmlns:xlink="http://www.w3.org/1999/xlink" x="0px" y="0px"
	 width="800px" height="628px" viewBox="0 0 800 628" style="enable-background:new 0 0 800 628;" xml:space="preserve">
<style type="text/css">
	.st0{fill:#0054A6;}
</style>
<g>
	<path class="st0" d="M567.1,312.8l-96.3-55.6v119.4l105.5,60.9V326.8c-5.4-1.7-9.5-6.5-9.5-12.5C566.8,313.7,567,313.3,567.1,312.8
		 M590.4,306.3l95-54.8v-0.3L580.1,191l-105.3,60.2v0.3l95,54.8c2.4-3.1,6.1-5.3,10.3-5.3S588,303.2,590.4,306.3 M689.3,376.6V257.2
		L593,312.8c0.1,0.5,0.3,0.9,0.3,1.5c0,6-4,10.8-9.5,12.5v110.7L689.3,376.6L689.3,376.6z"/>
	<path class="st0" d="M313.8,202.2l-13.2-10.3c0.6-0.7,58.1-72.7,153.6-25l-7.5,15C363.3,140.3,314.3,201.6,313.8,202.2L313.8,202.2
		z"/>
	<polygon class="st0" points="502.3,200.4 436.6,131 407.4,189.5 	"/>
	<path class="st0" d="M412.6,477.9c-18.8,0-40.2-4.5-63.9-16.3l7.5-15c83.3,41.7,132.4-19.6,132.8-20.3l13.2,10.3
		C501.9,437.2,469.3,477.9,412.6,477.9L412.6,477.9z"/>
	<polygon class="st0" points="300.6,428.1 366.3,497.5 395.5,439.1 	"/>
	<path class="st0" d="M205.3,312.8L109,257.2v119.4l105.5,60.9V326.8c-5.4-1.7-9.5-6.5-9.5-12.5C205,313.7,205.2,313.3,205.3,312.8
		 M228.6,306.3l95-54.8v-0.3L218.3,191L113,251.2v0.3l95,54.8c2.4-3.1,6.1-5.3,10.3-5.3C222.5,301,226.2,303.2,228.6,306.3
		 M327.5,376.6V257.2l-96.3,55.6c0.1,0.5,0.3,0.9,0.3,1.5c0,6-4,10.8-9.5,12.5v110.7L327.5,376.6L327.5,376.6z"/>
</g>
</svg>
