<?xml version="1.0" encoding="utf-8"?>
<!-- Generator: Adobe Illustrator 23.0.2, SVG Export Plug-In . SVG Version: 6.00 Build 0)  -->
<svg version="1.1" id="Layer_1" xmlns="http://www.w3.org/2000/svg" xmlns:xlink="http://www.w3.org/1999/xlink" x="0px" y="0px"
	 viewBox="0 0 1200 628" style="enable-background:new 0 0 1200 628;" xml:space="preserve">
<g>
	<path d="M871.7,477.6V358.2l-96.3,55.6c0.1,0.5,0.3,0.9,0.3,1.5c0,6-4,10.8-9.5,12.5v110.7L871.7,477.6L871.7,477.6z M772.7,407.3
		l95-54.8v-0.3L762.4,292l-105.3,60.2v0.3l95,54.8c2.4-3.1,6.1-5.3,10.3-5.3C766.7,402,770.3,404.1,772.7,407.3L772.7,407.3z
		 M749.4,413.8l-96.3-55.6v119.4l105.5,60.9V427.7c-5.4-1.7-9.5-6.5-9.5-12.5C749.2,414.7,749.4,414.3,749.4,413.8L749.4,413.8z"/>
	<path d="M446.6,407.3l95-54.8v-0.3L436.3,292L331,352.1v0.3l95,54.8c2.4-3.1,6.1-5.3,10.3-5.3C440.5,402,444.2,404.1,446.6,407.3
		L446.6,407.3z"/>
	<path d="M423.3,413.8L327,358.2v119.4l105.5,60.9V427.7c-5.4-1.7-9.5-6.5-9.5-12.5C423,414.7,423.2,414.3,423.3,413.8L423.3,413.8z
		"/>
	<path d="M545.5,477.6V358.2l-96.3,55.6c0.1,0.5,0.3,0.9,0.3,1.5c0,6-4,10.8-9.5,12.5v110.7L545.5,477.6L545.5,477.6z"/>
	<path d="M731.6,180.8c0-50.2-59.2-90.8-132.3-90.8c-73.1,0-132.3,40.7-132.3,90.8c0,25.2,15,48,39.1,64.5l-1.4,52l38.1-34.4
		c17.1,5.6,36.2,8.8,56.5,8.8C672.4,271.7,731.6,231,731.6,180.8L731.6,180.8z M565.3,146.9l-33.9,33.9l33.9,33.9L559,221
		l-40.2-40.2l40.2-40.2L565.3,146.9L565.3,146.9z M573.2,180.8c0,3-2.4,5.4-5.4,5.4c-3,0-5.4-2.4-5.4-5.4c0-3,2.4-5.4,5.4-5.4
		C570.7,175.4,573.2,177.8,573.2,180.8L573.2,180.8z M603.3,180.8c0,3-2.4,5.4-5.4,5.4c-3,0-5.4-2.4-5.4-5.4c0-3,2.4-5.4,5.4-5.4
		C600.8,175.4,603.3,177.8,603.3,180.8L603.3,180.8z M633.4,180.8c0,3-2.4,5.4-5.4,5.4c-3,0-5.4-2.4-5.4-5.4c0-3,2.4-5.4,5.4-5.4
		C630.9,175.4,633.4,177.8,633.4,180.8L633.4,180.8z M679.8,180.8L639.7,221l-6.3-6.3l33.9-33.9l-33.9-33.9l6.3-6.3L679.8,180.8
		L679.8,180.8z"/>
</g>
</svg>
