<?xml version="1.0" encoding="utf-8"?>
<!-- Generator: Adobe Illustrator 27.4.0, SVG Export Plug-In . SVG Version: 6.00 Build 0)  -->
<svg version="1.1" id="Layer_1" xmlns="http://www.w3.org/2000/svg" xmlns:xlink="http://www.w3.org/1999/xlink" x="0px" y="0px"
	 width="800px" height="628px" viewBox="0 0 800 628" style="enable-background:new 0 0 800 628;" xml:space="preserve">
<style type="text/css">
	.st0{fill:#0054A6;}
</style>
<path class="st0" d="M258,208.5l-2.4-1.8c1.7-2.3,3.5-4.6,5.4-6.9l2.3,1.9C261.5,203.9,259.7,206.2,258,208.5z M268.9,195.2l-2.2-2
	c1.9-2.1,4-4.3,6-6.3l2.1,2.1C272.8,191,270.8,193.1,268.9,195.2z M281,183.1l-2-2.2c2.1-1.9,4.4-3.9,6.6-5.7l1.9,2.3
	C285.3,179.3,283.1,181.2,281,183.1z M294.2,172.2l-1.8-2.4c2.3-1.7,4.7-3.4,7.1-5l1.7,2.5C298.8,168.8,296.5,170.5,294.2,172.2z
	 M308.4,162.6l-1.6-2.6c2.5-1.5,5-3,7.6-4.3l1.4,2.6C313.4,159.7,310.9,161.1,308.4,162.6z M323.5,154.4l-1.3-2.7
	c2.6-1.3,5.3-2.5,7.9-3.6l1.2,2.8C328.7,152,326.1,153.2,323.5,154.4z M339.3,147.8l-1-2.8l1.2-0.4l1,2.8L339.3,147.8z"/>
<path class="st0" d="M226.8,362.8c-0.8-2.8-1.5-5.6-2.2-8.5l2.9-0.7c0.6,2.8,1.3,5.6,2.1,8.3L226.8,362.8z M222.9,345.8
	c-0.5-2.8-1-5.7-1.3-8.6l3-0.4c0.4,2.8,0.8,5.7,1.3,8.5L222.9,345.8z M220.7,328.5c-0.2-2.9-0.4-5.8-0.5-8.7l3-0.1
	c0.1,2.8,0.3,5.7,0.5,8.6L220.7,328.5z M223.1,311.1h-3c0-2.9,0.2-5.8,0.3-8.7l3,0.2C223.3,305.4,223.2,308.3,223.1,311.1z
	 M224.2,294l-3-0.3c0.3-2.9,0.7-5.8,1.2-8.6l3,0.5C224.9,288.3,224.5,291.2,224.2,294z M226.9,277.1l-2.9-0.6c0.6-2.8,1.3-5.7,2-8.5
	l2.9,0.8C228.2,271.5,227.5,274.3,226.9,277.1z M231.3,260.5l-2.9-0.9c0.3-1,0.7-2.1,1-3.1l2.8,1C232,258.5,231.6,259.5,231.3,260.5
	z"/>
<path class="st0" d="M352.8,487.7c-2.8-0.8-5.6-1.6-8.4-2.5l0.9-2.9c2.7,0.9,5.5,1.7,8.2,2.4L352.8,487.7z M336.2,482.3
	c-2.7-1-5.4-2.1-8.1-3.3l1.2-2.8c2.6,1.1,5.3,2.2,7.9,3.2L336.2,482.3z M320.2,475.3c-2.6-1.3-5.2-2.7-7.7-4.1l1.5-2.6
	c2.5,1.4,5,2.7,7.6,4L320.2,475.3z M305,466.8c-2.4-1.5-4.9-3.1-7.3-4.8l1.7-2.5c2.3,1.6,4.8,3.2,7.2,4.7L305,466.8z M290.7,456.9
	c-2.3-1.8-4.6-3.6-6.8-5.5l1.9-2.3c2.2,1.8,4.4,3.6,6.7,5.4L290.7,456.9z M277.4,445.6c-0.3-0.3-0.7-0.6-1-1l2.1-2.2
	c0.3,0.3,0.7,0.6,1,0.9L277.4,445.6z"/>
<path class="st0" d="M447.2,487.7l-0.8-2.9l0.6-0.2l0.8,2.9L447.2,487.7z M456.2,485l-0.9-2.9c2.7-0.9,5.4-1.8,8.1-2.9l1.1,2.8
	C461.7,483.1,458.9,484.1,456.2,485z M472.5,478.7l-1.2-2.7c2.6-1.1,5.2-2.4,7.8-3.6l1.3,2.7C477.8,476.3,475.1,477.6,472.5,478.7z
	 M488.1,470.9l-1.5-2.6c2.5-1.4,5-2.9,7.4-4.4l1.6,2.5C493.1,468,490.6,469.5,488.1,470.9z M502.8,461.7l-1.7-2.5
	c2.3-1.6,4.7-3.3,6.9-5.1l1.8,2.4C507.6,458.3,505.2,460,502.8,461.7z M516.6,451l-1.9-2.3c2.2-1.9,4.3-3.8,6.4-5.7l2.1,2.2
	C521,447.2,518.8,449.1,516.6,451z"/>
<path class="st0" d="M576.3,350.2l-2.9-0.6c0.6-2.8,1.1-5.6,1.5-8.4l3,0.5C577.4,344.4,576.9,347.3,576.3,350.2z M578.9,332.9
	l-3-0.3c0.3-2.8,0.5-5.7,0.7-8.5l3,0.2C579.5,327.1,579.2,330.1,578.9,332.9z M579.9,315.5h-3c0-0.5,0-1,0-1.5c0-2.4,0-4.7-0.1-7.1
	l3-0.1c0.1,2.4,0.1,4.8,0.1,7.2C579.9,314.5,579.9,315,579.9,315.5z M576.2,298.4c-0.2-2.8-0.6-5.7-1-8.5l3-0.4
	c0.4,2.9,0.7,5.8,1,8.7L576.2,298.4z M573.9,281.4c-0.5-2.8-1.1-5.6-1.8-8.4l2.9-0.7c0.7,2.8,1.3,5.7,1.8,8.5L573.9,281.4z
	 M570,264.7c-0.8-2.7-1.7-5.5-2.6-8.2l2.8-1c0.9,2.7,1.8,5.5,2.6,8.3L570,264.7z"/>
<path class="st0" d="M525.4,189.2c-2-2-4.1-4-6.2-5.9l2-2.2c2.1,2,4.3,4,6.3,6L525.4,189.2z M512.7,177.7c-2.2-1.8-4.5-3.6-6.7-5.3
	l1.8-2.4c2.3,1.7,4.6,3.6,6.9,5.4L512.7,177.7z M499,167.4c-2.4-1.6-4.8-3.2-7.2-4.6l1.6-2.6c2.5,1.5,4.9,3.1,7.3,4.7L499,167.4z
	 M484.4,158.5c-2.5-1.4-5.1-2.7-7.6-3.9l1.3-2.7c2.6,1.3,5.2,2.6,7.8,4L484.4,158.5z M468.9,151c-2.6-1.1-5.3-2.2-8-3.1l1-2.8
	c2.7,1,5.4,2.1,8.1,3.2L468.9,151z"/>
<g>
	<path class="st0" d="M466.8,208.6v-73l-58.9,34c0.1,0.3,0.2,0.6,0.2,0.9c0,3.7-2.4,6.6-5.8,7.6v67.7L466.8,208.6L466.8,208.6z
		 M406.3,165.6l58.1-33.5v-0.2L400,95.1l-64.4,36.8v0.2l58.1,33.5c1.5-1.9,3.7-3.2,6.3-3.2C402.6,162.4,404.8,163.7,406.3,165.6
		L406.3,165.6z M392,169.6l-58.9-34v73l64.5,37.2V178c-3.3-1-5.8-4-5.8-7.6C391.9,170.2,392,169.9,392,169.6L392,169.6z"/>
	<path class="st0" d="M466.8,495.6v-73l-58.9,34c0.1,0.3,0.2,0.6,0.2,0.9c0,3.7-2.4,6.6-5.8,7.6v67.7L466.8,495.6L466.8,495.6z
		 M406.3,452.6l58.1-33.5v-0.2L400,382.1l-64.4,36.8v0.2l58.1,33.5c1.5-1.9,3.7-3.2,6.3-3.2C402.6,449.4,404.8,450.7,406.3,452.6
		L406.3,452.6z M392,456.6l-58.9-34v73l64.5,37.2V465c-3.3-1-5.8-4-5.8-7.6C391.9,457.2,392,456.9,392,456.6L392,456.6z"/>
	<g>
		<path class="st0" d="M325,271.6v-73l-58.9,34c0.1,0.3,0.2,0.6,0.2,0.9c0,3.7-2.4,6.6-5.8,7.6v67.7L325,271.6L325,271.6z
			 M264.4,228.6l58.1-33.5v-0.2l-64.4-36.8l-64.4,36.8v0.2l58.1,33.5c1.5-1.9,3.7-3.2,6.3-3.2C260.8,225.4,263,226.7,264.4,228.6
			L264.4,228.6z M250.2,232.6l-58.9-34v73l64.5,37.2V241c-3.3-1-5.8-4-5.8-7.6C250,233.2,250.2,232.9,250.2,232.6L250.2,232.6z"/>
		<path class="st0" d="M608.7,271.6v-73l-58.9,34c0.1,0.3,0.2,0.6,0.2,0.9c0,3.7-2.4,6.6-5.8,7.6v67.7L608.7,271.6L608.7,271.6z
			 M548.1,228.6l58.1-33.5v-0.2l-64.4-36.8l-64.4,36.8v0.2l58.1,33.5c1.5-1.9,3.7-3.2,6.3-3.2C544.5,225.4,546.7,226.7,548.1,228.6
			L548.1,228.6z M533.9,232.6l-58.9-34v73l64.5,37.2V241c-3.3-1-5.8-4-5.8-7.6C533.7,233.2,533.9,232.9,533.9,232.6L533.9,232.6z"/>
		<path class="st0" d="M325,432.6v-73l-58.9,34c0.1,0.3,0.2,0.6,0.2,0.9c0,3.7-2.4,6.6-5.8,7.6v67.7L325,432.6L325,432.6z
			 M264.4,389.6l58.1-33.5v-0.2l-64.4-36.8l-64.4,36.8v0.2l58.1,33.5c1.5-1.9,3.7-3.2,6.3-3.2C260.8,386.4,263,387.7,264.4,389.6
			L264.4,389.6z M250.2,393.6l-58.9-34v73l64.5,37.2V402c-3.3-1-5.8-4-5.8-7.6C250,394.2,250.2,393.9,250.2,393.6L250.2,393.6z"/>
		<path class="st0" d="M608.7,431.6v-73l-58.9,34c0.1,0.3,0.2,0.6,0.2,0.9c0,3.7-2.4,6.6-5.8,7.6v67.7L608.7,431.6L608.7,431.6z
			 M548.1,388.6l58.1-33.5v-0.2l-64.4-36.8l-64.4,36.8v0.2l58.1,33.5c1.5-1.9,3.7-3.2,6.3-3.2C544.5,385.4,546.7,386.7,548.1,388.6
			L548.1,388.6z M533.9,392.6l-58.9-34v73l64.5,37.2V401c-3.3-1-5.8-4-5.8-7.6C533.7,393.2,533.9,392.9,533.9,392.6L533.9,392.6z"/>
	</g>
</g>
<path class="st0" d="M389.7,266.3c1.1,0,2.3,0,3.3,0c0.2,0,0.4,0.1,0.5,0.1c2.2,0.1,4.4,0.4,6.5,0.9c6.5,1.5,12.3,4.4,17.3,8.9
	c8.1,7.3,12.5,16.4,13.3,27.2c0.2,3.1,0,6.1-0.5,9.1c-0.9,4.8-2.5,9.3-5,13.5c-0.1,0.1-0.1,0.2-0.2,0.4c0.1,0.1,0.2,0.2,0.3,0.3
	c7.3,7.3,14.7,14.7,22.1,22.1c0.3,0.3,0.6,0.6,0.8,1.1c0,0.4,0,0.9,0,1.3c-0.1,0.3-0.2,0.6-0.3,0.9c-0.5,1.2-1.2,2.3-2.2,3.3
	c-1.2,1.3-2.5,2.5-3.8,3.8c-1.2,1.2-2.5,2.1-4.2,2.5l-0.1,0.1c-0.4,0-0.9,0-1.3,0c-0.5-0.2-0.8-0.5-1.2-0.9
	c-7.3-7.3-14.5-14.5-21.8-21.8c-0.1-0.1-0.3-0.2-0.4-0.3c-0.1,0-0.1,0-0.1,0.1c-0.2,0.1-0.3,0.2-0.4,0.3c-5.7,3.6-11.9,5.6-18.7,6
	c-2.1,0.1-4.2,0.1-6.3-0.1s-4.2-0.5-6.2-1.1c-8-2.2-14.8-6.4-20.1-12.8c-5.5-6.5-8.5-14.1-9.1-22.6c0-0.3-0.1-0.6-0.2-1
	c0-1.1,0-2.3,0-3.5c0.1-0.1,0.1-0.3,0.1-0.4c0.1-0.5,0.1-1,0.2-1.6c0.2-2.3,0.6-4.6,1.2-6.9c4.5-16.3,19-27.9,35.8-28.8
	C389.5,266.4,389.6,266.3,389.7,266.3L389.7,266.3z M365.1,305.7c-0.1,14.4,11.7,26.3,26.3,26.3c14.5,0,26.3-11.8,26.3-26.3
	c0-14.7-11.9-26.3-26.3-26.3C376.9,279.4,365.1,291.2,365.1,305.7L365.1,305.7z"/>
</svg>
