<?xml version="1.0" encoding="utf-8"?>
<!-- Generator: Adobe Illustrator 27.4.0, SVG Export Plug-In . SVG Version: 6.00 Build 0)  -->
<svg version="1.1" id="Layer_1" xmlns="http://www.w3.org/2000/svg" xmlns:xlink="http://www.w3.org/1999/xlink" x="0px" y="0px"
	 width="800px" height="628px" viewBox="0 0 800 628" style="enable-background:new 0 0 800 628;" xml:space="preserve">
<style type="text/css">
	.st0{fill:#0054A6;}
</style>
<g>
	<path class="st0" d="M623.2,473.5V354.1l-96.3,55.6c0.1,0.5,0.3,0.9,0.3,1.5c0,6-4,10.8-9.5,12.5v110.7L623.2,473.5L623.2,473.5z
		 M524.2,403.2l95-54.8v-0.3l-105.3-60.2l-105.3,60.2v0.3l95,54.8c2.4-3.1,6.1-5.3,10.3-5.3C518.2,397.9,521.8,400.1,524.2,403.2
		L524.2,403.2z M500.9,409.7l-96.3-55.6v119.4l105.5,60.9V423.7c-5.4-1.7-9.5-6.5-9.5-12.5C500.6,410.7,500.9,410.2,500.9,409.7
		L500.9,409.7z"/>
	<path class="st0" d="M394.5,473.5V354.1l-96.3,55.6c0.1,0.5,0.3,0.9,0.3,1.5c0,6-4,10.8-9.5,12.5v110.7L394.5,473.5L394.5,473.5z
		 M295.6,403.2l95-54.8v-0.3l-105.3-60.2L180,348.1v0.3l95,54.8c2.4-3.1,6.1-5.3,10.3-5.3C289.5,397.9,293.2,400.1,295.6,403.2
		L295.6,403.2z M272.3,409.7L176,354.1v119.4l105.5,60.9V423.7c-5.4-1.7-9.5-6.5-9.5-12.5C272,410.7,272.2,410.2,272.3,409.7
		L272.3,409.7z"/>
	<path class="st0" d="M508.9,280.6V161.2l-96.3,55.6c0.1,0.5,0.3,0.9,0.3,1.5c0,6-4,10.8-9.5,12.5v110.7L508.9,280.6L508.9,280.6z
		 M409.9,210.3l95-54.8v-0.3L399.6,95l-105.3,60.2v0.3l95,54.8c2.4-3.1,6.1-5.3,10.3-5.3C403.9,205,407.5,207.1,409.9,210.3
		L409.9,210.3z M386.6,216.8l-96.3-55.6v119.4l105.5,60.9V230.7c-5.4-1.7-9.5-6.5-9.5-12.5C386.3,217.7,386.6,217.3,386.6,216.8
		L386.6,216.8z"/>
</g>
</svg>
