<?xml version="1.0" encoding="utf-8"?>
<!-- Generator: Adobe Illustrator 27.4.0, SVG Export Plug-In . SVG Version: 6.00 Build 0)  -->
<svg version="1.1" id="Layer_1" xmlns="http://www.w3.org/2000/svg" xmlns:xlink="http://www.w3.org/1999/xlink" x="0px" y="0px"
	 width="800px" height="628px" viewBox="0 0 800 628" style="enable-background:new 0 0 800 628;" xml:space="preserve">
<style type="text/css">
	.st0{fill:#0054A6;}
</style>
<g>
	<path class="st0" d="M671.7,477.6V358.2l-96.3,55.6c0.1,0.5,0.3,0.9,0.3,1.5c0,6-4,10.8-9.5,12.5v110.7L671.7,477.6L671.7,477.6z
		 M572.7,407.3l95-54.8v-0.3L562.4,292l-105.3,60.2v0.3l95,54.8c2.4-3.1,6.1-5.3,10.3-5.3C566.7,402,570.3,404.1,572.7,407.3
		L572.7,407.3z M549.4,413.8l-96.3-55.6v119.4l105.5,60.9V427.7c-5.4-1.7-9.5-6.5-9.5-12.5C549.2,414.7,549.4,414.3,549.4,413.8
		L549.4,413.8z"/>
	<path class="st0" d="M246.6,407.3l95-54.8v-0.3L236.3,292L131,352.1v0.3l95,54.8c2.4-3.1,6.1-5.3,10.3-5.3
		C240.5,402,244.2,404.1,246.6,407.3L246.6,407.3z"/>
	<path class="st0" d="M223.3,413.8L127,358.2v119.4l105.5,60.9V427.7c-5.4-1.7-9.5-6.5-9.5-12.5C223,414.7,223.2,414.3,223.3,413.8
		L223.3,413.8z"/>
	<path class="st0" d="M345.5,477.6V358.2l-96.3,55.6c0.1,0.5,0.3,0.9,0.3,1.5c0,6-4,10.8-9.5,12.5v110.7L345.5,477.6L345.5,477.6z"
		/>
	<path class="st0" d="M531.6,180.8c0-50.2-59.2-90.8-132.3-90.8S267,130.7,267,180.8c0,25.2,15,48,39.1,64.5l-1.4,52l38.1-34.4
		c17.1,5.6,36.2,8.8,56.5,8.8C472.4,271.7,531.6,231,531.6,180.8L531.6,180.8z M365.3,146.9l-33.9,33.9l33.9,33.9L359,221
		l-40.2-40.2l40.2-40.2L365.3,146.9L365.3,146.9z M373.2,180.8c0,3-2.4,5.4-5.4,5.4s-5.4-2.4-5.4-5.4s2.4-5.4,5.4-5.4
		C370.7,175.4,373.2,177.8,373.2,180.8L373.2,180.8z M403.3,180.8c0,3-2.4,5.4-5.4,5.4s-5.4-2.4-5.4-5.4s2.4-5.4,5.4-5.4
		C400.8,175.4,403.3,177.8,403.3,180.8L403.3,180.8z M433.4,180.8c0,3-2.4,5.4-5.4,5.4s-5.4-2.4-5.4-5.4s2.4-5.4,5.4-5.4
		C430.9,175.4,433.4,177.8,433.4,180.8L433.4,180.8z M479.8,180.8L439.7,221l-6.3-6.3l33.9-33.9l-33.9-33.9l6.3-6.3L479.8,180.8
		L479.8,180.8z"/>
</g>
</svg>
