<?xml version="1.0" encoding="utf-8"?>
<!-- Generator: Adobe Illustrator 23.0.3, SVG Export Plug-In . SVG Version: 6.00 Build 0)  -->
<svg version="1.1" id="Layer_1" xmlns="http://www.w3.org/2000/svg" xmlns:xlink="http://www.w3.org/1999/xlink" x="0px" y="0px"
	 viewBox="0 0 1200 628" style="enable-background:new 0 0 1200 628;" xml:space="preserve">
<g>
	<path d="M823.2,473.5V354.1l-96.3,55.6c0.1,0.5,0.3,0.9,0.3,1.5c0,6-4,10.8-9.5,12.5v110.7L823.2,473.5L823.2,473.5z M724.2,403.2
		l95-54.8v-0.3l-105.3-60.2l-105.3,60.2v0.3l95,54.8c2.4-3.1,6.1-5.3,10.3-5.3C718.2,397.9,721.8,400.1,724.2,403.2L724.2,403.2z
		 M700.9,409.7l-96.3-55.6v119.4l105.5,60.9V423.7c-5.4-1.7-9.5-6.5-9.5-12.5C700.6,410.7,700.9,410.2,700.9,409.7L700.9,409.7z"/>
	<path d="M594.5,473.5V354.1l-96.3,55.6c0.1,0.5,0.3,0.9,0.3,1.5c0,6-4,10.8-9.5,12.5v110.7L594.5,473.5L594.5,473.5z M495.6,403.2
		l95-54.8v-0.3l-105.3-60.2L380,348.1v0.3l95,54.8c2.4-3.1,6.1-5.3,10.3-5.3C489.5,397.9,493.2,400.1,495.6,403.2L495.6,403.2z
		 M472.3,409.7L376,354.1v119.4l105.5,60.9V423.7c-5.4-1.7-9.5-6.5-9.5-12.5C472,410.7,472.2,410.2,472.3,409.7L472.3,409.7z"/>
	<path d="M708.9,280.6V161.2l-96.3,55.6c0.1,0.5,0.3,0.9,0.3,1.5c0,6-4,10.8-9.5,12.5v110.7L708.9,280.6L708.9,280.6z M609.9,210.3
		l95-54.8v-0.3L599.6,95l-105.3,60.2v0.3l95,54.8c2.4-3.1,6.1-5.3,10.3-5.3C603.9,205,607.5,207.1,609.9,210.3L609.9,210.3z
		 M586.6,216.8l-96.3-55.6v119.4l105.5,60.9V230.7c-5.4-1.7-9.5-6.5-9.5-12.5C586.3,217.7,586.6,217.3,586.6,216.8L586.6,216.8z"/>
</g>
</svg>
