<?xml version="1.0" encoding="utf-8"?>
<!-- Generator: Adobe Illustrator 27.4.0, SVG Export Plug-In . SVG Version: 6.00 Build 0)  -->
<svg version="1.1" id="Layer_1" xmlns="http://www.w3.org/2000/svg" xmlns:xlink="http://www.w3.org/1999/xlink" x="0px" y="0px"
	 width="800px" height="628px" viewBox="0 0 800 628" style="enable-background:new 0 0 800 628;" xml:space="preserve">
<style type="text/css">
	.st0{fill:#FFFFFF;}
	.st1{fill:#0655A5;}
	.st2{fill:#0054A6;}
</style>
<rect x="440.5" y="104.9" transform="matrix(4.385881e-03 -1 1 4.385881e-03 204.0284 678.5884)" class="st0" width="4.6" height="263.8"/>
<rect x="214.9" y="285.4" transform="matrix(0.9806 -0.1961 0.1961 0.9806 -48.7578 83.005)" class="st0" width="359.8" height="4.6"/>
<rect x="321.9" y="101.4" transform="matrix(0.1967 -0.9805 0.9805 0.1967 -12.0189 541.0696)" class="st0" width="4.6" height="352.9"/>
<rect x="623.9" y="290.1" transform="matrix(3.634105e-02 -0.9993 0.9993 3.634105e-02 281.7111 935.9749)" class="st0" width="4.6" height="63.6"/>
<g>
	
		<rect x="312.2" y="233.7" transform="matrix(4.403708e-03 -1 1 4.403708e-03 75.7332 548.5098)" class="st1" width="2.3" height="5"/>
	<path class="st1" d="M559.5,238.5h-10.2v-2.3h10.2V238.5z M539.2,238.5H529v-2.3h10.2V238.5z M518.9,238.3h-10.2V236h10.2V238.3z
		 M498.7,238.2h-10.2v-2.3h10.2V238.2z M478.3,238.1h-10.2v-2.3h10.2V238.1z M458.1,238.1h-10.2v-2.3h10.2V238.1z M437.7,238h-10.2
		v-2.3h10.2V238z M417.5,237.9h-10.2v-2.3h10.2V237.9z M397.1,237.8h-10.2v-2.3h10.2V237.8z M376.8,237.6h-10.2v-2.3h10.2V237.6z
		 M356.5,237.6h-10.2v-2.3h10.2V237.6z M336.2,237.5h-10.2v-2.3h10.2V237.5z"/>
	<rect x="571" y="235" transform="matrix(4.403708e-03 -1 1 4.403708e-03 332.1931 808.5424)" class="st1" width="2.3" height="5"/>
</g>
<g>
	
		<rect x="566.2" y="251.8" transform="matrix(0.9805 -0.1963 0.1963 0.9805 -38.5846 116.561)" class="st1" width="5" height="2.3"/>
	<path class="st1" d="M233.3,321.2l-0.5-2.3l9.8-2l0.5,2.3L233.3,321.2z M252.9,317.3l-0.5-2.3l9.8-2l0.5,2.3L252.9,317.3z
		 M272.5,313.4l-0.5-2.3l9.8-2l0.5,2.3L272.5,313.4z M292,309.5l-0.5-2.3l9.8-2l0.5,2.3L292,309.5z M311.7,305.6l-0.5-2.3l9.8-2
		l0.5,2.3L311.7,305.6z M331.3,301.6l-0.5-2.3l9.8-2l0.5,2.3L331.3,301.6z M350.9,297.7l-0.5-2.3l9.8-2l0.5,2.3L350.9,297.7z
		 M370.5,293.8l-0.5-2.3l9.8-2l0.5,2.3L370.5,293.8z M390.2,289.8l-0.5-2.3l9.8-2l0.5,2.3L390.2,289.8z M409.7,285.9l-0.5-2.3l9.8-2
		l0.5,2.3L409.7,285.9z M429.3,282.1l-0.5-2.3l9.8-2l0.5,2.3L429.3,282.1z M448.9,278.1l-0.5-2.3l9.8-2l0.5,2.3L448.9,278.1z
		 M468.5,274.2l-0.5-2.3l9.8-2l0.5,2.3L468.5,274.2z M488.2,270.3l-0.5-2.3l9.8-2l0.5,2.3L488.2,270.3z M507.7,266.3l-0.5-2.3l9.8-2
		l0.5,2.3L507.7,266.3z M527.4,262.4l-0.5-2.3l9.8-2l0.5,2.3L527.4,262.4z M546.9,258.5l-0.5-2.3l9.8-2l0.5,2.3L546.9,258.5z"/>
	<rect x="218.3" y="321.4" transform="matrix(0.9806 -0.1958 0.1958 0.9806 -58.888 49.4777)" class="st1" width="5" height="2.3"/>
</g>
<g>
	
		<rect x="152.6" y="241.2" transform="matrix(0.1967 -0.9805 0.9805 0.1967 -115.4662 346.4803)" class="st1" width="2.3" height="5"/>
	<path class="st1" d="M482.5,310.9l-9.6-2l0.5-2.3l9.6,2L482.5,310.9z M463.3,307l-9.6-2l0.5-2.3l9.6,2L463.3,307z M444.1,303.1
		l-9.6-2l0.5-2.3l9.6,2L444.1,303.1z M424.9,299.3l-9.6-2l0.5-2.3l9.6,2L424.9,299.3z M405.7,295.4l-9.6-2l0.5-2.3l9.6,2
		L405.7,295.4z M386.4,291.6l-9.6-2l0.5-2.3l9.6,2L386.4,291.6z M367.2,287.7l-9.6-2l0.5-2.3l9.6,2L367.2,287.7z M348,283.8l-9.6-2
		l0.5-2.3l9.6,2L348,283.8z M328.8,280l-9.6-2l0.5-2.3l9.6,2L328.8,280z M309.6,276.2l-9.6-2l0.5-2.3l9.6,2L309.6,276.2z
		 M290.4,272.4l-9.6-2l0.5-2.3l9.6,2L290.4,272.4z M251.9,264.6l-9.6-2l0.5-2.3l9.6,2L251.9,264.6z M232.7,260.8l-9.6-2l0.5-2.3
		l9.6,2L232.7,260.8z M213.5,256.9l-9.6-2l0.5-2.3l9.6,2L213.5,256.9z M194.3,253l-9.6-2l0.5-2.3l9.6,2L194.3,253z M175.1,249.2
		l-9.6-2l0.5-2.3l9.6,2L175.1,249.2z"/>
	
		<rect x="493.6" y="309.6" transform="matrix(0.1967 -0.9805 0.9805 0.1967 91.4299 735.7632)" class="st1" width="2.3" height="5"/>
</g>
<g>
	
		<rect x="654.4" y="320.5" transform="matrix(3.636153e-02 -0.9993 0.9993 3.636153e-02 308.8687 966.3712)" class="st1" width="2.3" height="5"/>
	<path class="st1" d="M642.3,323.6l-10.8-0.3l0.1-2.3l10.8,0.3L642.3,323.6z M620.7,322.8l-10.8-0.3l0.1-2.3l10.8,0.3L620.7,322.8z"
		/>
	
		<rect x="595.7" y="318.3" transform="matrix(3.636153e-02 -0.9993 0.9993 3.636153e-02 254.5302 905.5638)" class="st1" width="2.3" height="5"/>
</g>
<path class="st2" d="M25.9,172.6v222.2H152c0.1,0,0.3,0,0.4,0h70.3c0.1,0,0.3,0,0.4,0h126.1V172.6H25.9z M140.2,415H25.9H5.7v-20.2
	V172.6v-20.2h20.2h323.2h20.2v20.2v222.2V415h-20.2H234.8l6.8,40.4h36.9h10.1v20.2h-10.1H233H142H96.6H86.5v-20.2h10.1h36.9
	L140.2,415L140.2,415z M160.7,415l-6.8,40.4H221l-6.8-40.4H160.7L160.7,415z"/>
<path class="st2" d="M450.9,172.6v222.2H577c0.1,0,0.3,0,0.4,0h70.3c0.1,0,0.3,0,0.4,0h126.1V172.6H450.9z M565.2,415H450.9h-20.2
	v-20.2V172.6v-20.2h20.2h323.2h20.2v20.2v222.2V415h-20.2H659.8l6.8,40.4h36.9h10.1v20.2h-10.1H658H567h-45.5h-10.1v-20.2h10.1h36.9
	L565.2,415L565.2,415z M585.7,415l-6.8,40.4H646l-6.8-40.4H585.7L585.7,415z"/>
<path class="st2" d="M156.7,263.6v-54.2L113,234.5c0,0.3,0.1,0.4,0.1,0.7c0,2.7-1.8,4.9-4.3,5.6v50.4L156.7,263.6L156.7,263.6z
	 M111.7,231.6l43.1-24.9v-0.1l-47.7-27.4l-47.8,27.4v0.1l43.1,24.9c1-1.5,2.8-2.4,4.7-2.4C109,229.2,110.7,230.1,111.7,231.6
	L111.7,231.6z M101.2,234.5l-43.7-25.3v54.2l48,27.7v-50.4c-2.5-0.7-4.3-3-4.3-5.6C101,235,101.2,234.7,101.2,234.5L101.2,234.5z"/>
<path class="st2" d="M317.7,268.6v-54.2L274,239.6c0,0.3,0.1,0.4,0.1,0.7c0,2.7-1.8,4.9-4.3,5.6v50.4L317.7,268.6L317.7,268.6z
	 M272.8,236.6l43.1-24.9v-0.1l-47.8-27.4l-47.8,27.4v0.1l43.1,24.9c1-1.5,2.8-2.4,4.7-2.4C270,234.3,271.6,235.1,272.8,236.6
	L272.8,236.6z M262.2,239.6l-43.7-25.3v54.2l48,27.7v-50.4c-2.5-0.7-4.3-3-4.3-5.6C262,240,262.2,239.7,262.2,239.6L262.2,239.6z"/>
<path class="st2" d="M218.2,353.3v-54.2l-43.7,25.2c0,0.3,0.1,0.4,0.1,0.7c0,2.7-1.8,4.9-4.3,5.6V381L218.2,353.3L218.2,353.3z
	 M173.3,321.4l43.1-24.9v-0.1L168.6,269l-47.8,27.4v0.1l43.1,24.9c1-1.5,2.8-2.4,4.7-2.4C170.5,318.9,172.1,320,173.3,321.4
	L173.3,321.4z M162.7,324.3L119,298.9v54.2l48,27.7v-50.4c-2.5-0.7-4.3-3-4.3-5.6C162.5,324.7,162.7,324.6,162.7,324.3L162.7,324.3z
	"/>
<path class="st2" d="M763.9,355.4v-54.2l-43.7,25.2c0,0.3,0.1,0.4,0.1,0.7c0,2.7-1.8,4.9-4.3,5.6v50.4L763.9,355.4L763.9,355.4z
	 M718.9,323.4l43.1-24.9v-0.1L714.3,271l-47.8,27.4v0.1l43.1,24.9c1-1.5,2.8-2.4,4.7-2.4C716.2,321,717.8,321.9,718.9,323.4
	L718.9,323.4z M708.4,326.4L664.7,301v54.2l48,27.7v-50.4c-2.5-0.7-4.3-3-4.3-5.6C708.2,326.8,708.4,326.5,708.4,326.4L708.4,326.4z
	"/>
<path class="st2" d="M671.7,267.5v-54.2l-43.7,25.2c0,0.3,0.1,0.4,0.1,0.7c0,2.7-1.8,4.9-4.3,5.6v50.4L671.7,267.5L671.7,267.5z
	 M626.9,235.5l43.1-24.9v-0.1L622.1,183l-47.8,27.4v0.1l43.1,24.9c1-1.5,2.8-2.4,4.7-2.4C624.1,233.1,625.7,234,626.9,235.5
	L626.9,235.5z M616.2,238.4l-43.7-25.3v54.2l48,27.7v-50.4c-2.5-0.7-4.3-3-4.3-5.6C616.1,238.9,616.2,238.6,616.2,238.4L616.2,238.4
	z"/>
<path class="st2" d="M597.7,358.5v-54.2L554,329.5c0,0.3,0.1,0.4,0.1,0.7c0,2.7-1.8,4.9-4.3,5.6v50.4L597.7,358.5L597.7,358.5z
	 M552.8,326.7l43.1-24.9v-0.1l-47.8-27.4l-47.8,27.4v0.1l43.1,24.9c1-1.5,2.8-2.4,4.7-2.4C550,324.1,551.6,325.2,552.8,326.7
	L552.8,326.7z M542.2,329.5l-43.7-25.3v54.2l48,27.7v-50.4c-2.5-0.7-4.3-3-4.3-5.6C542,329.9,542.2,329.8,542.2,329.5L542.2,329.5z"
	/>
</svg>
