<?xml version="1.0" encoding="utf-8"?>
<!-- Generator: Adobe Illustrator 23.0.2, SVG Export Plug-In . SVG Version: 6.00 Build 0)  -->
<svg version="1.1" id="Layer_1" xmlns="http://www.w3.org/2000/svg" xmlns:xlink="http://www.w3.org/1999/xlink" x="0px" y="0px"
	 viewBox="0 0 1200 628" style="enable-background:new 0 0 1200 628;" xml:space="preserve">
<g>
	<path d="M596,242c2.1,0,4.2,0,6.2,0c0.3,0,0.7,0.1,1,0.1c4.1,0.2,8.1,0.8,12.1,1.7c12,2.8,22.8,8.2,32,16.4
		c15,13.5,23.2,30.3,24.6,50.4c0.4,5.7,0,11.3-1,16.9c-1.6,8.9-4.7,17.2-9.3,25c-0.1,0.2-0.2,0.4-0.4,0.7c0.2,0.2,0.4,0.4,0.6,0.6
		c13.6,13.6,27.3,27.3,40.9,40.9c0.6,0.6,1.2,1.2,1.4,2c0,0.8,0,1.7,0,2.5c-0.2,0.6-0.3,1.1-0.5,1.7c-0.9,2.3-2.3,4.3-4,6.1
		c-2.3,2.4-4.6,4.7-7,7c-2.2,2.2-4.7,3.9-7.8,4.6c0,0-0.1,0.1-0.1,0.1c-0.8,0-1.6,0-2.4,0c-0.9-0.3-1.5-0.9-2.2-1.6
		c-13.5-13.5-26.9-26.9-40.4-40.4c-0.2-0.2-0.5-0.4-0.7-0.6c-0.1,0-0.2,0-0.2,0.1c-0.3,0.2-0.5,0.3-0.8,0.5
		c-10.6,6.7-22.1,10.4-34.6,11.2c-3.9,0.2-7.8,0.2-11.6-0.2c-3.9-0.4-7.7-1-11.4-2.1c-14.9-4-27.4-11.9-37.3-23.7
		c-10.2-12.1-15.8-26.1-16.9-41.9c0-0.6-0.2-1.2-0.3-1.8c0-2.1,0-4.3,0-6.4c0.1-0.2,0.1-0.5,0.1-0.7c0.1-1,0.2-1.9,0.3-2.9
		c0.4-4.3,1.2-8.5,2.3-12.7c8.3-30.2,35.1-51.7,66.3-53.4C595.5,242.1,595.7,242,596,242L596,242z M550.4,315
		c-0.1,26.6,21.6,48.7,48.7,48.8c26.9,0,48.7-21.8,48.8-48.7c0-27.2-22-48.8-48.7-48.8C572.3,266.3,550.4,288.1,550.4,315L550.4,315
		z"/>
	<path d="M552.5,150.7c19.7-5.6,31.1-26.2,25.4-45.9c-5.6-19.7-26.2-31.1-45.9-25.4c-19.7,5.6-31.1,26.2-25.4,45.9
		C512.3,145,532.8,156.4,552.5,150.7L552.5,150.7z"/>
	<path d="M667,549.9c19.7-5.6,31.1-26.2,25.4-45.9c-5.6-19.7-26.2-31.1-45.9-25.4c-19.7,5.6-31.1,26.2-25.4,45.9
		C626.8,544.1,647.3,555.5,667,549.9L667,549.9z"/>
	<path d="M434.1,273.4c5-19.9-7.1-40-27-44.9c-19.9-5-40,7.1-44.9,27c-5,19.9,7.1,40,27,44.9C409,305.4,429.1,293.3,434.1,273.4
		L434.1,273.4z"/>
	<path d="M837,373.9c5-19.9-7.1-40-27-44.9c-19.9-5-40,7.1-44.9,27c-5,19.9,7.1,40,27,44.9C811.9,405.8,832,393.7,837,373.9
		L837,373.9z"/>
	<path d="M718,192c-14.7-14.2-15.1-37.7-0.9-52.4c14.2-14.7,37.7-15.1,52.4-0.9c14.7,14.2,15.1,37.7,0.9,52.4
		C756.2,205.8,732.7,206.2,718,192L718,192z"/>
	<path d="M429.6,490.7c-14.7-14.2-15.1-37.7-0.9-52.4c14.2-14.7,37.7-15.1,52.4-0.9c14.7,14.2,15.1,37.7,0.9,52.4
		C467.8,504.5,444.3,504.9,429.6,490.7L429.6,490.7z"/>
	<polygon points="402.5,263 391.8,266.1 449.1,466 459.8,462.9 402.5,263 	"/>
	<polygon points="750,163.3 739.3,166.4 796.6,366.3 807.3,363.3 750,163.3 	"/>
	<polygon points="456.3,459.5 453.6,470.3 655.4,520.6 658.1,509.8 456.3,459.5 	"/>
	<polygon points="543.7,108.7 541,119.5 742.8,169.8 745.5,159.1 543.7,108.7 	"/>
	<polygon points="797.8,361.5 805.8,369.3 661.3,518.9 653.3,511.2 797.8,361.5 	"/>
	<polygon points="537.8,110.4 545.8,118.2 401.3,267.8 393.3,260.1 537.8,110.4 	"/>
	<path d="M557.6,168.3c2.4-0.7,3.8-3.2,3.1-5.6c-0.7-2.4-3.2-3.8-5.6-3.1c-2.4,0.7-3.8,3.2-3.1,5.6
		C552.7,167.6,555.2,169,557.6,168.3L557.6,168.3z"/>
	<path d="M562.2,184.4c2.4-0.7,3.8-3.2,3.1-5.6c-0.7-2.4-3.2-3.8-5.6-3.1c-2.4,0.7-3.8,3.2-3.1,5.6
		C557.3,183.7,559.8,185.1,562.2,184.4L562.2,184.4z"/>
	<path d="M566.8,200.5c2.4-0.7,3.8-3.2,3.1-5.6c-0.7-2.4-3.2-3.8-5.6-3.1c-2.4,0.7-3.8,3.2-3.1,5.6S564.4,201.2,566.8,200.5
		L566.8,200.5z"/>
	<path d="M571.4,216.6c2.4-0.7,3.8-3.2,3.1-5.6c-0.7-2.4-3.2-3.8-5.6-3.1s-3.8,3.2-3.1,5.6C566.5,215.9,569,217.3,571.4,216.6
		L571.4,216.6z"/>
	<path d="M576,232.7c2.4-0.7,3.8-3.2,3.1-5.6c-0.7-2.4-3.2-3.8-5.6-3.1s-3.8,3.2-3.1,5.6C571.1,232,573.6,233.4,576,232.7L576,232.7
		z"/>
	<path d="M625.5,405.3c2.4-0.7,3.8-3.2,3.1-5.6s-3.2-3.8-5.6-3.1s-3.8,3.2-3.1,5.6C620.6,404.6,623.1,406,625.5,405.3L625.5,405.3z"
		/>
	<path d="M630.2,421.4c2.4-0.7,3.8-3.2,3.1-5.6c-0.7-2.4-3.2-3.8-5.6-3.1s-3.8,3.2-3.1,5.6C625.2,420.7,627.7,422.1,630.2,421.4
		L630.2,421.4z"/>
	<path d="M634.8,437.5c2.4-0.7,3.8-3.2,3.1-5.6s-3.2-3.8-5.6-3.1c-2.4,0.7-3.8,3.2-3.1,5.6C629.9,436.8,632.4,438.2,634.8,437.5
		L634.8,437.5z"/>
	<path d="M639.4,453.6c2.4-0.7,3.8-3.2,3.1-5.6c-0.7-2.4-3.2-3.8-5.6-3.1c-2.4,0.7-3.8,3.2-3.1,5.6
		C634.5,452.9,637,454.3,639.4,453.6L639.4,453.6z"/>
	<path d="M644,469.7c2.4-0.7,3.8-3.2,3.1-5.6s-3.2-3.8-5.6-3.1c-2.4,0.7-3.8,3.2-3.1,5.6C639.1,469,641.6,470.4,644,469.7L644,469.7
		z"/>
	<path d="M451.8,277.8c0.6-2.4-0.9-4.9-3.3-5.5c-2.4-0.6-4.9,0.9-5.5,3.3c-0.6,2.4,0.9,4.9,3.3,5.5
		C448.8,281.7,451.2,280.3,451.8,277.8L451.8,277.8z"/>
	<path d="M468.1,281.9c0.6-2.4-0.9-4.9-3.3-5.5c-2.4-0.6-4.9,0.9-5.5,3.3c-0.6,2.4,0.9,4.9,3.3,5.5
		C465,285.8,467.5,284.3,468.1,281.9L468.1,281.9z"/>
	<path d="M484.3,285.9c0.6-2.4-0.9-4.9-3.3-5.5c-2.4-0.6-4.9,0.9-5.5,3.3c-0.6,2.4,0.9,4.9,3.3,5.5
		C481.3,289.8,483.7,288.4,484.3,285.9L484.3,285.9z"/>
	<path d="M500.6,290c0.6-2.4-0.9-4.9-3.3-5.5c-2.4-0.6-4.9,0.9-5.5,3.3s0.9,4.9,3.3,5.5C497.5,293.9,500,292.4,500.6,290L500.6,290z
		"/>
	<path d="M516.8,294c0.6-2.4-0.9-4.9-3.3-5.5c-2.4-0.6-4.9,0.9-5.5,3.3c-0.6,2.4,0.9,4.9,3.3,5.5C513.7,297.9,516.2,296.5,516.8,294
		L516.8,294z"/>
	<path d="M691.1,337.5c0.6-2.4-0.9-4.9-3.3-5.5c-2.4-0.6-4.9,0.9-5.5,3.3c-0.6,2.4,0.9,4.9,3.3,5.5
		C688,341.4,690.5,339.9,691.1,337.5L691.1,337.5z"/>
	<path d="M707.3,341.5c0.6-2.4-0.9-4.9-3.3-5.5c-2.4-0.6-4.9,0.9-5.5,3.3c-0.6,2.4,0.9,4.9,3.3,5.5
		C704.2,345.4,706.7,344,707.3,341.5L707.3,341.5z"/>
	<path d="M723.6,345.6c0.6-2.4-0.9-4.9-3.3-5.5c-2.4-0.6-4.9,0.9-5.5,3.3c-0.6,2.4,0.9,4.9,3.3,5.5
		C720.5,349.5,722.9,348,723.6,345.6L723.6,345.6z"/>
	<path d="M739.8,349.6c0.6-2.4-0.9-4.9-3.3-5.5c-2.4-0.6-4.9,0.9-5.5,3.3c-0.6,2.4,0.9,4.9,3.3,5.5
		C736.7,353.5,739.2,352.1,739.8,349.6L739.8,349.6z"/>
	<path d="M756,353.7c0.6-2.4-0.9-4.9-3.3-5.5c-2.4-0.6-4.9,0.9-5.5,3.3c-0.6,2.4,0.9,4.9,3.3,5.5C753,357.6,755.4,356.1,756,353.7
		L756,353.7z"/>
	<path d="M705.3,205.2c-1.8-1.7-1.8-4.6-0.1-6.4c1.7-1.8,4.6-1.9,6.4-0.1c1.8,1.7,1.9,4.6,0.1,6.4
		C709.9,206.9,707.1,206.9,705.3,205.2L705.3,205.2z"/>
	<path d="M693.6,217.2c-1.8-1.7-1.8-4.6-0.1-6.4c1.7-1.8,4.6-1.9,6.4-0.1c1.8,1.7,1.9,4.6,0.1,6.4S695.5,218.9,693.6,217.2
		L693.6,217.2z"/>
	<path d="M682,229.2c-1.8-1.7-1.8-4.6-0.1-6.4c1.7-1.8,4.6-1.9,6.4-0.1c1.8,1.7,1.9,4.6,0.1,6.4S683.8,231,682,229.2L682,229.2z"/>
	<path d="M670.4,241.3c-1.8-1.7-1.8-4.6-0.1-6.4c1.7-1.8,4.6-1.9,6.4-0.1c1.8,1.7,1.9,4.6,0.1,6.4C675.1,243,672.2,243,670.4,241.3
		L670.4,241.3z"/>
	<path d="M658.8,253.3c-1.8-1.7-1.8-4.6-0.1-6.4c1.7-1.8,4.6-1.9,6.4-0.1c1.8,1.7,1.9,4.6,0.1,6.4
		C663.4,255,660.6,255.1,658.8,253.3L658.8,253.3z"/>
	<path d="M534,382.5c-1.8-1.7-1.9-4.6-0.1-6.4c1.7-1.8,4.6-1.9,6.4-0.1c1.8,1.7,1.8,4.6,0.1,6.4C538.7,384.2,535.8,384.3,534,382.5
		L534,382.5z"/>
	<path d="M522.4,394.6c-1.8-1.7-1.9-4.6-0.1-6.4c1.7-1.8,4.6-1.9,6.4-0.1c1.8,1.7,1.8,4.6,0.1,6.4
		C527.1,396.3,524.2,396.3,522.4,394.6L522.4,394.6z"/>
	<path d="M510.8,406.6c-1.8-1.7-1.9-4.6-0.1-6.4c1.7-1.8,4.6-1.9,6.4-0.1c1.8,1.7,1.8,4.6,0.1,6.4
		C515.4,408.3,512.6,408.3,510.8,406.6L510.8,406.6z"/>
	<path d="M499.1,418.6c-1.8-1.7-1.9-4.6-0.1-6.4c1.7-1.8,4.6-1.9,6.4-0.1c1.8,1.7,1.9,4.6,0.1,6.4
		C503.8,420.3,500.9,420.4,499.1,418.6L499.1,418.6z"/>
	<path d="M487.5,430.7c-1.8-1.7-1.9-4.6-0.1-6.4c1.7-1.8,4.6-1.9,6.4-0.1c1.8,1.7,1.9,4.6,0.1,6.4
		C492.2,432.4,489.3,432.4,487.5,430.7L487.5,430.7z"/>
</g>
</svg>
