<?xml version="1.0" encoding="utf-8"?>
<!-- Generator: Adobe Illustrator 16.0.4, SVG Export Plug-In . SVG Version: 6.00 Build 0)  -->
<!DOCTYPE svg PUBLIC "-//W3C//DTD SVG 1.1//EN" "http://www.w3.org/Graphics/SVG/1.1/DTD/svg11.dtd">
<svg version="1.1"
	 id="Calque_1" xmlns:dc="http://purl.org/dc/elements/1.1/" xmlns:cc="http://creativecommons.org/ns#" xmlns:rdf="http://www.w3.org/1999/02/22-rdf-syntax-ns#" xmlns:svg="http://www.w3.org/2000/svg" xmlns:sodipodi="http://sodipodi.sourceforge.net/DTD/sodipodi-0.dtd" xmlns:inkscape="http://www.inkscape.org/namespaces/inkscape"
	 xmlns="http://www.w3.org/2000/svg" xmlns:xlink="http://www.w3.org/1999/xlink" x="0px" y="0px" width="460px" height="491px"
	 viewBox="66.14 99.445 460 491" enable-background="new 66.14 99.445 460 491" xml:space="preserve">
<g transform="translate(0,-952.36218)">
	<path d="M505.985,1173.889c0-32.937-26.491-59.858-64.178-78.13c-37.687-18.273-88.361-29.02-144.167-29.02
		s-106.479,10.747-144.17,29.02c-37.688,18.272-64.178,45.193-64.178,78.13c0.06,82.118,0,166.926,0,250.018
		c0,32.937,26.491,59.671,64.178,77.944c37.689,18.273,88.364,29.206,144.17,29.206s106.48-10.933,144.17-29.206
		c37.687-18.272,64.178-45.008,64.178-77.943 M297.64,1090.549c52.687,0,100.342,10.402,133.752,26.601
		c33.409,16.199,50.785,37.072,50.785,56.738c0,19.666-17.376,40.353-50.785,56.552c-33.41,16.199-81.065,26.788-133.752,26.788
		c-52.686,0-100.342-10.589-133.752-26.788s-50.785-36.886-50.785-56.552s17.375-40.54,50.785-56.738
		S244.954,1090.549,297.64,1090.549L297.64,1090.549z M113.103,1224.487c10.749,10.503,24.525,19.665,40.367,27.345
		c37.689,18.273,88.364,29.207,144.17,29.207s106.48-10.933,144.17-29.207c15.842-7.681,29.618-16.842,40.367-27.345
		c0,10.914,0,21.827,0,32.741c0,19.666-17.376,40.353-50.785,56.551c-33.41,16.199-81.065,26.788-133.752,26.788
		c-52.686,0-100.342-10.589-133.752-26.788s-50.785-36.886-50.785-56.551C113.103,1246.314,113.103,1235.401,113.103,1224.487
		L113.103,1224.487z M113.103,1307.827c10.749,10.503,24.525,19.665,40.367,27.345c37.689,18.273,88.364,29.207,144.17,29.207
		s106.48-10.933,144.17-29.207c15.842-7.681,29.618-16.842,40.367-27.345c0,10.914,0,21.827,0,32.74
		c0,19.666-17.376,40.353-50.785,56.551c-33.41,16.199-81.065,26.788-133.752,26.788c-52.686,0-100.342-10.589-133.752-26.788
		c-33.41-16.198-50.785-36.885-50.785-56.551C113.103,1329.654,113.103,1318.74,113.103,1307.827L113.103,1307.827z
		 M113.103,1391.166c10.749,10.503,24.525,19.665,40.367,27.345c37.689,18.273,88.364,29.207,144.17,29.207
		s106.48-10.933,144.17-29.207c15.842-7.68,29.618-16.842,40.367-27.345v32.74c0,19.665-17.376,40.353-50.785,56.552
		c-33.41,16.199-81.065,26.787-133.752,26.787c-52.686,0-100.342-10.588-133.752-26.787c-33.409-16.199-50.785-36.887-50.785-56.552
		V1391.166z"/>
</g>
<text transform="matrix(1 0 0 1 2.441406e-04 733.4688)" font-family="'HelveticaNeue-Bold'" font-size="29.764">Created by Aybige</text>
<text transform="matrix(1 0 0 1 2.441406e-04 763.2305)" font-family="'HelveticaNeue-Bold'" font-size="29.764">from the Noun Project</text>
</svg>
