<?xml version="1.0" encoding="utf-8"?>
<!-- Generator: Adobe Illustrator 23.0.2, SVG Export Plug-In . SVG Version: 6.00 Build 0)  -->
<svg version="1.1" id="Layer_1" xmlns="http://www.w3.org/2000/svg" xmlns:xlink="http://www.w3.org/1999/xlink" x="0px" y="0px"
	 viewBox="0 0 1200 628" style="enable-background:new 0 0 1200 628;" xml:space="preserve">
<g>
	<path d="M767.1,312.8l-96.3-55.6v119.4l105.5,60.9V326.8c-5.4-1.7-9.5-6.5-9.5-12.5C766.8,313.7,767,313.3,767.1,312.8
		 M790.4,306.3l95-54.8v-0.3L780.1,191l-105.3,60.2v0.3l95,54.8c2.4-3.1,6.1-5.3,10.3-5.3C784.3,301,788,303.2,790.4,306.3
		 M889.3,376.6V257.2L793,312.8c0.1,0.5,0.3,0.9,0.3,1.5c0,6-4,10.8-9.5,12.5v110.7L889.3,376.6L889.3,376.6z"/>
	<path d="M513.8,202.2l-13.2-10.3c0.6-0.7,58.1-72.7,153.6-25l-7.5,15C563.3,140.3,514.3,201.6,513.8,202.2L513.8,202.2z"/>
	<polygon points="702.3,200.4 636.6,131 607.4,189.5 702.3,200.4 	"/>
	<path d="M612.6,477.9c-18.8,0-40.2-4.5-63.9-16.3l7.5-15c83.3,41.7,132.4-19.6,132.8-20.3l13.2,10.3
		C701.9,437.2,669.3,477.9,612.6,477.9L612.6,477.9z"/>
	<polygon points="500.6,428.1 566.3,497.5 595.5,439.1 500.6,428.1 	"/>
	<path d="M405.3,312.8L309,257.2v119.4l105.5,60.9V326.8c-5.4-1.7-9.5-6.5-9.5-12.5C405,313.7,405.2,313.3,405.3,312.8 M428.6,306.3
		l95-54.8v-0.3L418.3,191L313,251.2v0.3l95,54.8c2.4-3.1,6.1-5.3,10.3-5.3C422.5,301,426.2,303.2,428.6,306.3 M527.5,376.6V257.2
		l-96.3,55.6c0.1,0.5,0.3,0.9,0.3,1.5c0,6-4,10.8-9.5,12.5v110.7L527.5,376.6L527.5,376.6z"/>
</g>
</svg>
