<?xml version="1.0" encoding="utf-8"?>
<!-- Svg Vector Icons : http://www.onlinewebfonts.com/icon -->
<!DOCTYPE svg PUBLIC "-//W3C//DTD SVG 1.1//EN" "http://www.w3.org/Graphics/SVG/1.1/DTD/svg11.dtd">
<svg version="1.1" xmlns="http://www.w3.org/2000/svg" xmlns:xlink="http://www.w3.org/1999/xlink" x="0px" y="0px" viewBox="0 0 1000 1000" enable-background="new 0 0 1000 1000" xml:space="preserve">
<metadata> Svg Vector Icons : http://www.onlinewebfonts.com/icon </metadata>
<g><g transform="translate(0.000000,511.000000) scale(0.100000,-0.100000)"><path d="M2562,1341v-3669h3669h3669v3669v3669H6231H2562V1341z M9493.7,1341v-3262.7H6231H2968.3V1341v3262.7H6231h3262.7V1341z"/><path d="M6219,3994.1V3791h1080.4h1082.8L6470,1878.8L4557.8-33.4l143.4-143.4l143.4-143.4l1905,1905l1907.4,1907.4l4.8-1075.6L8669,1341l198.4-7.2l196-7.2l2.4,121.9c0,64.5,0,674.1,0,1350.5s0,1269.2,0,1314.6l-2.4,83.7H7641.2H6219V3994.1z"/><path d="M100,2141.7v-406.3h203.2h203.2v203.2v203.2h203.2h203.2v203.2V2548H506.3H100V2141.7z"/><path d="M1323.8,2352l7.2-198.4h406.3h406.3l7.2,198.4l7.2,196h-420.7h-420.7L1323.8,2352z"/><path d="M100,922.7V516.3h203.2h203.2v406.3V1329H303.2H100V922.7z"/><path d="M100-296.3v-406.3h203.2h203.2v406.3V110H303.2H100V-296.3z"/><path d="M100-1515.4v-406.3h203.2h203.2v406.3v406.3H303.2H100V-1515.4z"/><path d="M116.7-2344.8c-9.6-7.2-16.7-286.8-16.7-621.5V-3571h203.2h203.2v621.5v621.5H319.9C217.1-2328,123.9-2335.2,116.7-2344.8z"/><path d="M7041.3-2765.5c-4.8-16.7-7.2-203.2-4.8-411.1l7.2-382.4l198.4-7.2l196-7.2v420.7v418.3h-191.2C7110.6-2734.4,7050.8-2744,7041.3-2765.5z"/><path d="M100-4383.7V-4790h406.3h406.3v203.2v203.2H709.5H506.3v203.2v203.2H303.2H100V-4383.7z"/><path d="M7031.7-4180.5v-203.2h-203.2h-203.2v-203.2V-4790h406.3H7438v406.3v406.3h-203.2h-203.2V-4180.5z"/><path d="M1323.8-4579.7l7.2-198.4h609.5H2550l7.2,198.4l7.2,196h-623.9h-623.9L1323.8-4579.7z"/><path d="M2968.3-4586.8V-4790h406.3H3781v203.2v203.2h-406.3h-406.3V-4586.8z"/><path d="M4187.3-4586.8V-4790h406.3H5000v203.2v203.2h-406.3h-406.3V-4586.8z"/><path d="M5406.3-4586.8V-4790h406.3H6219v203.2v203.2h-406.3h-406.3V-4586.8z"/></g></g>
</svg>