<?xml version="1.0"?>
<svg width="100" height="100" xmlns="http://www.w3.org/2000/svg" xmlns:svg="http://www.w3.org/2000/svg">
 <g class="layer">
  <title>Layer 1</title>
  <path d="m30.709,25.342l1.28,0c0.332,0 0.601,-0.269 0.601,-0.601l0,-4.141c0,-0.332 -0.269,-0.601 -0.601,-0.601l-1.506,0c-7.366,0 -11.59,3.813 -11.59,10.462c0,2.079 0.309,4.242 0.609,6.335c0.293,2.05 0.595,4.17 0.595,6.234c0,2.457 -0.653,4.97 -5.496,4.97c-0.332,0 -0.601,0.269 -0.601,0.601l0,3.839c0,0.332 0.269,0.601 0.601,0.601c4.927,0 5.496,2.88 5.496,5.045c0,1.486 -0.177,3.012 -0.365,4.63c-0.054,0.463 -0.108,0.931 -0.152,1.358c-0.475,2.565 -0.687,4.502 -0.687,6.281c0,7.037 4.09,10.912 11.515,10.912l1.581,0c0.332,0 0.601,-0.269 0.601,-0.601l0,-4.14c0,-0.332 -0.269,-0.601 -0.601,-0.601l-1.269,0c-3.757,-0.067 -5.432,-1.901 -5.432,-5.948c0,-1.405 0.193,-2.855 0.38,-4.257l0.141,-1.079c0.299,-1.87 0.608,-3.803 0.608,-5.871c0.063,-4.08 -1.495,-6.97 -4.425,-8.297c3.002,-1.357 4.489,-4.109 4.425,-8.197c0,-2.007 -0.28,-3.758 -0.578,-5.613l-0.175,-1.301c-0.194,-1.449 -0.376,-2.816 -0.376,-4.152c0,-4.048 1.624,-5.804 5.421,-5.868z" id="svg_1"/>
  <path d="m85.056,48.002c-4.844,0 -5.497,-2.513 -5.497,-4.97c0,-2.06 0.302,-4.176 0.598,-6.251c0.298,-2.089 0.606,-4.249 0.606,-6.319c0.001,-6.649 -4.224,-10.462 -11.59,-10.462l-1.505,0c-0.332,0 -0.601,0.269 -0.601,0.601l0,4.141c0,0.332 0.269,0.601 0.601,0.601l1.269,0c3.807,0.065 5.432,1.82 5.432,5.872c0,1.336 -0.182,2.704 -0.376,4.152l-0.173,1.283c-0.298,1.859 -0.58,3.616 -0.58,5.621c-0.065,4.096 1.423,6.849 4.425,8.206c-2.931,1.327 -4.489,4.216 -4.425,8.287c0,2.084 0.31,4.02 0.607,5.87l0.142,1.09c0.187,1.402 0.38,2.852 0.38,4.257c0,4.047 -1.676,5.881 -5.422,5.948l-1.279,0c-0.332,0 -0.601,0.269 -0.601,0.601l0,4.14c0,0.332 0.269,0.601 0.601,0.601l1.581,0c7.426,0 11.515,-3.876 11.515,-10.912c0,-2.149 -0.338,-4.429 -0.608,-6.257l-0.034,-0.237c-0.289,-2.023 -0.562,-3.935 -0.562,-5.776c0,-2.165 0.57,-5.045 5.497,-5.045c0.332,0 0.601,-0.269 0.601,-0.601l0,-3.839c-0.002,-0.334 -0.27,-0.602 -0.602,-0.602z" id="svg_2"/>
  <path d="m38.361,54.1c-1.87,0 -3.19,-1.485 -3.19,-3.465c0,-1.98 1.375,-3.465 3.3,-3.465c1.925,0 3.245,1.43 3.245,3.465c0,1.98 -1.32,3.465 -3.3,3.465l-0.055,0z" fill="black" id="svg_3"/>
  <path d="m49.746,54.1c-1.87,0 -3.19,-1.485 -3.19,-3.465c0,-1.98 1.375,-3.465 3.3,-3.465c1.925,0 3.246,1.43 3.246,3.465c0,1.98 -1.32,3.465 -3.3,3.465l-0.056,0z" id="svg_4"/>
  <path d="m61.13,54.1c-1.87,0 -3.19,-1.485 -3.19,-3.465c0,-1.98 1.375,-3.465 3.3,-3.465c1.925,0 3.246,1.43 3.246,3.465c0,1.98 -1.32,3.465 -3.3,3.465l-0.056,0z" id="svg_5"/>
  <text fill="#000000" font-family="&#x27;Helvetica Neue&#x27;, Helvetica, Arial-Unicode, Arial, Sans-serif" font-size="5px" font-weight="bold" id="svg_6" x="0" y="115">Created by Sam Smith</text>
  <text fill="#000000" font-family="&#x27;Helvetica Neue&#x27;, Helvetica, Arial-Unicode, Arial, Sans-serif" font-size="5px" font-weight="bold" id="svg_7" x="0" y="120">from the Noun Project</text>
 </g>
</svg>