<?xml version="1.0" encoding="UTF-8"?>
<svg width="1200pt" height="1200pt" version="1.1" viewBox="0 0 1200 1200" xmlns="http://www.w3.org/2000/svg">
 <path d="m166.21 208.34h167v-184.93l233.82 66.961 233.82-66.961v184.93h167c56.234 0 56.234 85.031 0 85.031h-214.42v104.69c0 10.871-0.71875 21.348-2.0508 31.32l-284.69 137.74c-44.387-25.129-80.137-69.266-93.746-133.45h-131.8l81.613-140.26h-156.53c-56.234 0-56.234-85.031 0-85.031zm393.3 85.031h-165.93c8.4961 38.016 42.41 66.422 82.98 66.422 40.535 0 74.484-28.402 82.98-66.422zm-219.03 396.4-136.05 486.76h871.5l-231.45-460.88-269.14 105.77c-41.039 16.129-65.449-45.938-24.41-62.066l279.47-109.84v-196.74l-489.96 236.99z" fill-rule="evenodd"/>
</svg>
