<?xml version="1.0" encoding="UTF-8"?>
<svg width="1200pt" height="1200pt" version="1.1" viewBox="0 0 1200 1200" xmlns="http://www.w3.org/2000/svg">
 <g>
  <path fill="white" d="m491.7 230.01h216.59c53.102 0 96.469 43.371 96.469 96.469v547.05c0 53.102-43.371 96.469-96.469 96.469h-216.59c-53.102 0-96.469-43.371-96.469-96.469v-547.05c0-53.102 43.371-96.469 96.469-96.469zm-1.0156 399.86c-16.879-16.887 8.7656-42.531 25.652-25.652l28.027 28.035c16.887 16.879-8.7656 42.531-25.645 25.645zm-30.375 36.809c-16.879-16.887 8.7656-42.531 25.652-25.652l28.027 28.027c16.879 16.887-8.7656 42.531-25.652 25.652zm223.35-62.465c16.887-16.879 42.531 8.7656 25.652 25.652l-28.035 28.027c-16.879 16.887-42.531-8.7656-25.645-25.645zm30.375 36.809c16.887-16.879 42.531 8.7656 25.652 25.652l-28.027 28.027c-16.887 16.879-42.531-8.7656-25.652-25.652zm-27.492 261.63c-23.875 0-23.875-36.273 0-36.273h25.348c23.875 0 23.875 36.273 0 36.273zm-99.219 0c-23.875 0-23.875-36.273 0-36.273h25.348c23.875 0 23.875 36.273 0 36.273zm-99.219 0c-23.875 0-23.875-36.273 0-36.273h25.348c23.875 0 23.875 36.273 0 36.273zm198.44-71.266c-23.875 0-23.875-36.266 0-36.266h25.348c23.875 0 23.875 36.266 0 36.266zm-99.219 0c-23.875 0-23.875-36.266 0-36.266h25.348c23.875 0 23.875 36.266 0 36.266zm-99.219 0c-23.875 0-23.875-36.266 0-36.266h25.348c23.875 0 23.875 36.266 0 36.266zm198.44-71.254c-23.875 0-23.875-36.273 0-36.273h25.348c23.875 0 23.875 36.273 0 36.273zm-99.219 0c-23.875 0-23.875-36.273 0-36.273h25.348c23.875 0 23.875 36.273 0 36.273zm-99.219 0c-23.875 0-23.875-36.273 0-36.273h25.348c23.875 0 23.875 36.273 0 36.273zm-14.836-463.8h253.46c10.016 0 18.137 8.1211 18.137 18.137v249.14c0 10.016-8.1211 18.137-18.137 18.137h-253.46c-10.016 0-18.129-8.1211-18.129-18.137v-249.14c0-10.016 8.1133-18.137 18.129-18.137zm235.32 36.273h-217.18v212.86h217.18zm-0.29297-66.328h-216.59c-33.07 0-60.195 27.125-60.195 60.195v547.05c0 33.07 27.125 60.195 60.195 60.195h216.59c33.07 0 60.195-27.125 60.195-60.195v-547.05c0-33.07-27.125-60.195-60.195-60.195z"/>
 </g>
</svg>
