<?xml version="1.0" encoding="UTF-8"?>
<svg width="1200pt" height="1200pt" version="1.1" viewBox="0 0 1200 1200" xmlns="http://www.w3.org/2000/svg">
 <g>
  <path fill="white" d="m248.96 446.26h32.438v-29.707c0-9.9883 8.1055-18.094 18.094-18.094h601.03c9.9883 0 18.094 8.1055 18.094 18.094v29.707h32.438c9.9883 0 18.094 8.1055 18.094 18.102v265.34c0 9.9883-8.1055 18.094-18.094 18.094h-68.094v35.641c0 9.9961-8.1055 18.102-18.102 18.102h-189.29c-9.9961 0-18.102-8.1055-18.102-18.102v-35.641h-114.91v35.641c0 9.9961-8.1055 18.102-18.102 18.102h-189.29c-9.9961 0-18.102-8.1055-18.102-18.102v-35.641h-68.094c-9.9883 0-18.094-8.1055-18.094-18.094v-265.34c0-9.9961 8.1055-18.102 18.094-18.102zm264.03 137.71v-38.578h-173.19v38.578zm36.184-38.578v38.578h57.117v-38.578zm234.88 102.4c23.824 0 23.824 36.184 0 36.184h-51.145c-23.824 0-23.824-36.184 0-36.184zm114.05 0c23.824 0 23.824 36.184 0 36.184h-51.137c-23.824 0-23.824-36.184 0-36.184zm-304.2 36.184c-23.824 0-23.824-36.184 0-36.184h12.227c23.824 0 23.824 36.184 0 36.184zm-81.688 0c-23.824 0-23.824-36.184 0-36.184h12.219c23.824 0 23.824 36.184 0 36.184zm-81.68 0c-23.824 0-23.824-36.184 0-36.184h12.219c23.812 0 23.812 36.184 0 36.184zm172.33 27.625c59.195-0.375 60.32-91.445-0.29297-91.445h-168.48c-59.953 0-60.223 91.07-0.29297 91.445h169.07zm-96.496 36.195h-153.11v17.547h153.11zm-140.17-36.195c-18.602-27.492-18.602-63.945 0-91.445h-99.129v91.445zm304.27-91.445c18.602 27.5 18.594 63.953 0 91.445h262.51v-91.445h-262.51zm-403.39-36.184h36.551v-56.672c0-9.9961 8.1055-18.102 18.102-18.102h302.68c9.9961 0 18.094 8.1055 18.094 18.102v56.672h24.688v-56.672c0-9.9961 8.1055-18.102 18.094-18.102h66.086c9.9961 0 18.094 8.1055 18.094 18.102v56.672h24.688v-56.672c0-9.9961 8.1055-18.102 18.094-18.102h66.086c9.9961 0 18.094 8.1055 18.094 18.102v56.672h36.559v-101.51h-665.9zm466.2-38.578h-29.902v38.578h29.902zm126.96 0h-29.902v38.578h29.902zm-542.63-99.129h564.84v-11.605h-564.84zm529.18 301.53h-153.11v17.547h153.11z"/>
 </g>
</svg>
