<?xml version="1.0" encoding="UTF-8"?>
<svg width="1200pt" height="1200pt" version="1.1" viewBox="0 0 1200 1200" xmlns="http://www.w3.org/2000/svg">
 <g>
  <path fill="white" d="m736.76 933.98c63.848 0 115.61-51.762 115.61-115.61 0-63.848-51.762-115.62-115.61-115.62-63.848 0-115.62 51.77-115.62 115.62 0 63.203 51.117 115.61 115.62 115.61zm-264.78-21.859c0 10.023-8.1211 18.145-18.145 18.145-10.023 0-18.156-8.1211-18.156-18.145v-13.398c-38.133-3.4727-69.621-32.176-76.727-69.746-27.938-7.5234-47.621-33.027-47.621-62.078v-247.25c0-29.062 19.68-54.562 47.621-62.09 7.6484-40.434 43.273-70.102 84.562-70.102h17.637v-67.371h-6.3281c-59.445 0-59.445-90.355 0-90.355h197.59c59.09 0 59.215 90.355 0 90.355h-6.3203v67.371h17.637c41.289 0 76.914 29.668 84.562 70.102 27.938 7.5234 47.621 33.027 47.621 62.09v158.77c56.09 23.734 92.75 78.754 92.75 139.96 0 83.895-68.016 151.91-151.91 151.91-52.512 0-100.91-26.945-128.72-71.203h-136.05zm63.5-446.7c0-23.867 36.293-23.867 36.293 0v355.7c0 23.875-36.293 23.875-36.293 0zm85.492 0c0-23.867 36.301-23.867 36.301 0v223.48c16.844-10.363 35.863-17.539 56.215-20.664v-194.72c0-27.32-22.422-49.754-49.754-49.754h-220.22c-27.32 0-49.754 22.43-49.754 49.754v339.51c0 27.32 22.43 49.754 49.754 49.754h147.93c-4.293-14.051-6.6055-28.957-6.6055-44.406 0-37.508 13.602-71.844 36.133-98.344zm-170.99 0c0-23.867 36.301-23.867 36.301 0v355.7c0 23.875-36.301 23.875-36.301 0zm211.32 364.59c-11.926-20.582 19.414-38.73 31.34-18.145l19.691 34.098 57.992-100.46c11.926-20.582 43.262-2.4375 31.34 18.156l-73.559 127.41c-6.7656 12.031-24.359 12.426-31.445 0.1875l-35.355-61.238zm98.316-161.84v-148.52c0-8.1953-3.625-15.914-9.8281-21.234v168.59c3.3125 0.28516 6.5859 0.66797 9.8281 1.1602zm-402.15 119.95v-289.71c-6.2031 5.3203-9.8359 13.031-9.8359 21.234v247.25c0 8.1953 3.6328 15.906 9.8359 21.227zm294.95-504.34c11.668 0 11.605-17.754 0-17.754h-197.59c-11.656 0-11.656 17.754 0 17.754h197.59zm-154.97 103.67h112.35v-67.371h-112.35z"/>
 </g>
</svg>
