<?xml version="1.0" encoding="UTF-8"?>
<svg width="1200pt" height="1200pt" version="1.1" viewBox="0 0 1200 1200" xmlns="http://www.w3.org/2000/svg">
 <g>
  <path fill="white" d="m859.52 884.45c-24.172-14.824-48.172-29.945-72.004-45.344l-57.383 119.54c-5.4102 11.301-20.297 13.676-29 4.9727l-31.938-31.84c-4.0977-4.0977-5.8203-9.6836-5.1484-15.031l8.8008-154.84c-32.91-23.062-65.453-46.684-97.621-70.828-13.629-10.238-27.188-20.574-40.676-30.992l-33.105 103.57c-1.125 3.5508-3.25 6.5078-5.9609 8.6562l-24.762 19.805-50.199 157.09c-4.0781 12.891-20.27 16.699-29.73 7.4805l-68.809-66.945c-4.1758-4.0625-5.9727-9.668-5.3359-15.051l36.023-364.7c-14.344-12.641-28.59-25.375-42.738-38.238-0.83984-0.76953-1.5977-1.5977-2.2578-2.4805-18.309-23.082-52.262-79.727-67.945-129.55-27.562-87.562 12.453-127.57 100-100 50.082 15.762 107.07 49.992 129.91 68.23 0.76953 0.61719 1.4727 1.2773 2.1172 1.9805 12.852 14.137 25.598 28.383 38.238 42.727l364.7-36.023c5.3828-0.63281 10.98 1.1602 15.051 5.3359l66.945 68.809c9.2188 9.4688 5.4102 25.652-7.4805 29.73l-157.09 50.199-19.805 24.762c-2.1523 2.7148-5.1055 4.8359-8.6562 5.9609l-103.57 33.105c35.008 45.297 68.961 91.418 101.82 138.3l154.84-8.8086c5.3477-0.66016 10.926 1.0547 15.031 5.1602l31.84 31.926c8.7031 8.7031 6.3281 23.602-4.9727 29l-119.55 57.383c15.477 23.938 30.66 48.059 45.566 72.344 9.9883 16.379-9.3086 34.73-25.145 24.59zm-489.37-479.13c-16.824 16.824-42.406-8.7578-25.582-25.582l35.16-35.168c16.824-16.824 42.414 8.7578 25.59 25.582zm411.15-43.211-40.941 64.73c-2.4805 3.9375-6.2383 6.5859-10.398 7.7578l-121.76 34.363c9.4883 11.711 18.906 23.484 28.242 35.32l111.03-35.488 19.77-24.777c2.5898-3.2578 6.0703-5.375 9.8086-6.293l133.48-42.656-40.594-41.711-88.641 8.7578zm-335.26-26.785c-21.441-16.754-72.211-46.996-117.05-61.113-59.141-18.621-73.398-4.3633-54.777 54.777 14.113 44.844 44.363 95.613 61.113 117.05 148.38 134.77 308.03 257.33 476.56 365.85-108.29-168.23-231.49-328.65-365.84-476.57zm137.21 103.16 130.31-36.758 22.207-35.113-196.73 19.43c14.898 17.332 29.645 34.82 44.219 52.438zm-216.65 297.29 35.113-22.207 36.758-130.3c-17.621-14.586-35.105-29.32-52.438-44.219l-19.43 196.73zm102.35-127.56-34.375 121.75c-1.1602 4.1602-3.8125 7.918-7.7461 10.398l-64.73 40.941-8.7578 88.641 41.711 40.594 42.656-133.48c0.91797-3.7383 3.0352-7.2227 6.293-9.8086l24.777-19.77 35.488-111.02c-11.836-9.3438-23.609-18.762-35.32-28.242zm317.03 99.414c11.211 16.398 22.297 32.891 33.238 49.457l100.86-48.414-8.2031-8.2031zm-28.895 111.6c-16.574-10.941-33.07-22.02-49.469-33.238l-7.1602 125.91 8.2031 8.2031 48.422-100.87z"/>
 </g>
</svg>
