<?xml version="1.0" encoding="UTF-8"?>
<svg width="1200pt" height="1200pt" version="1.1" viewBox="0 0 1200 1200" xmlns="http://www.w3.org/2000/svg">
 <g>
  <path fill="white" d="m246.55 388.67h10.418v-22.824h-10.418c-23.992 0-23.992-36.434 0-36.434h706.91c23.992 0 23.992 36.434 0 36.434h-10.418v22.824h10.418c10.059 0 18.219 8.1602 18.219 18.219v386.22c0 10.059-8.1602 18.219-18.219 18.219h-10.418v22.824h10.418c23.992 0 23.992 36.434 0 36.434h-706.91c-23.992 0-23.992-36.434 0-36.434h10.418v-22.824h-10.418c-10.059 0-18.219-8.1602-18.219-18.219v-386.22c0-10.059 8.1602-18.219 18.219-18.219zm660.05 422.66h-41.844v22.824h41.844zm18.059-36.434h10.578v-349.79h-88.695c-10.066 0-18.227-8.1602-18.227-18.219v-41.039h-456.63v41.039c0 10.059-8.1602 18.219-18.227 18.219h-88.695v349.79h88.695c10.066 0 18.227 8.1602 18.227 18.219v41.039h456.63v-41.039c0-10.059 8.1602-18.219 18.227-18.219zm-631.26 59.258h41.844v-22.824h-41.844zm613.2-468.3h-41.844v22.824h41.844zm-613.2 22.824h41.844v-22.824h-41.844zm145.39 252.1h80.637c23.984 0 23.984 36.445 0 36.445h-80.637v43.414h322.42v-241.27h-322.42v43.414h163.23c23.984 0 23.984 36.445 0 36.445h-163.23zm43.539-22.555c-23.984 0-23.984-36.434 0-36.434h70.801c23.984 0 23.984 36.434 0 36.434zm340.27 0c-23.984 0-23.984-36.434 0-36.434h10.629c23.984 0 23.984 36.434 0 36.434zm76.797 0c-23.984 0-23.984-36.434 0-36.434h10.629c23.984 0 23.984 36.434 0 36.434zm-51.305-61.938c0-23.984 36.445-23.984 36.445 0v10.629c0 23.984-36.445 23.984-36.445 0zm0 76.809c0-23.984 36.445-23.984 36.445 0v10.621c0 23.992-36.445 23.992-36.445 0zm-551.56-14.871c-23.992 0-23.992-36.434 0-36.434h18.941v-18.941c0-23.984 36.434-23.984 36.434 0v18.941h18.941c23.984 0 23.984 36.434 0 36.434h-18.941v18.941c0 23.984-36.434 23.984-36.434 0v-18.941zm124.04-175.29h358.86c10.059 0 18.219 8.1602 18.219 18.219v277.72c0 10.059-8.1602 18.219-18.219 18.219h-358.86c-10.059 0-18.219-8.1602-18.219-18.219v-277.72c0-10.059 8.1602-18.219 18.219-18.219z"/>
 </g>
</svg>
