<?xml version="1.0" encoding="UTF-8"?>
<svg width="1200pt" height="1200pt" version="1.1" viewBox="0 0 1200 1200" xmlns="http://www.w3.org/2000/svg">
 <g>
  <path fill="white" d="m719.5 460.08c94.301 0 170.75 76.449 170.75 170.75 0 94.293-76.449 170.74-170.75 170.74-94.293 0-170.74-76.449-170.74-170.74 0-94.301 76.449-170.75 170.74-170.75zm0 83.109c48.395 0 87.633 39.238 87.633 87.633s-39.238 87.633-87.633 87.633c-48.387 0-87.633-39.238-87.633-87.633s39.246-87.633 87.633-87.633zm0 36.258c-28.375 0-51.379 23-51.379 51.379 0 28.375 23 51.379 51.379 51.379 28.375 0 51.387-23 51.387-51.379 0-28.375-23.012-51.379-51.387-51.379zm158.96 286.76h-556.92c-50.277 0-91.348-41.066-91.348-91.348v-288.06c0-43.727 31.215-81 73.219-89.527v-45.344c0-10.016 8.1133-18.129 18.129-18.129h91.426c10.004 0 18.129 8.1133 18.129 18.129v43.523h447.36c50.277 0 91.348 41.066 91.348 91.348v288.06c0 50.277-41.066 91.348-91.348 91.348zm-373.52-292.4c23.867 0 23.867 36.246 0 36.246h-70.898c-23.867 0-23.867-36.246 0-36.246zm0-49.102c23.867 0 23.867 36.246 0 36.246h-70.898c-23.867 0-23.867-36.246 0-36.246zm0-49.102c23.867 0 23.867 36.246 0 36.246h-70.898c-23.867 0-23.867-36.246 0-36.246zm-165.27-80.152h55.172v-25.395h-55.172zm45.711 387.21c0 23.867-36.258 23.867-36.258 0v-303.66c0-23.867 36.258-23.867 36.258 0zm-63.836 47.289h556.92c30.266 0 55.09-24.824 55.09-55.09v-288.06c0-30.258-24.824-55.09-55.09-55.09h-556.92c-30.258 0-55.09 24.832-55.09 55.09v288.06c0 30.266 24.824 55.09 55.09 55.09zm397.96-333.61c-74.273 0-134.48 60.215-134.48 134.5 0 74.273 60.215 134.48 134.48 134.48 74.281 0 134.5-60.215 134.5-134.48 0-74.281-60.215-134.5-134.5-134.5z"/>
 </g>
</svg>
