<?xml version="1.0" encoding="UTF-8"?>
<svg width="1200pt" height="1200pt" version="1.1" viewBox="0 0 1200 1200" xmlns="http://www.w3.org/2000/svg">
 <g>
  <path fill="white" d="m767.77 675.16c62.973 0 114.02 51.055 114.02 114.03 0 62.961-51.055 114.02-114.02 114.02-62.973 0-114.03-51.047-114.03-114.02s51.055-114.03 114.03-114.03zm-386.11 205.7c-23.895 0-23.895-36.301 0-36.301h231.38c23.895 0 23.895 36.301 0 36.301zm-115.61-106.61h297.79c23.887 0 23.887 36.301 0 36.301h-297.79v36.621c0 45.602 37.391 82.984 82.992 82.984h501.9c45.609 0 82.992-37.383 82.992-82.984v-381.91c0-45.602-37.383-82.984-82.992-82.984h-501.9c-45.609 0-82.992 37.383-82.992 82.984zm92.473-83.109c23.895 0 23.895 36.293 0 36.293h-11.336c-23.887 0-23.887-36.293 0-36.293zm72.949 0c23.895 0 23.895 36.293 0 36.293h-11.336c-23.895 0-23.895-36.293 0-36.293zm72.949 0c23.895 0 23.895 36.293 0 36.293h-11.336c-23.895 0-23.895-36.293 0-36.293zm249.03-74.949v-45.219h-413.82v45.219zm0-81.512v-26.098c0-23.895 36.293-23.895 36.293 0v26.098h70.602v-82.957h-520.71v82.957zm36.293 36.293v45.219h70.602v-45.219zm-384.2-224.99 416.93-111.71c23.039-6.1602 32.418 28.855 9.3555 35.023l-286.22 76.691h305.34c65.648 0 119.29 53.645 119.29 119.29v381.91c0 65.641-53.637 119.29-119.29 119.29h-501.9c-65.648 0-119.29-53.645-119.29-119.29v-381.91c0-65.641 53.637-119.29 119.29-119.29h56.508zm-84.062 69.453h557.01c10.016 0 18.145 8.1211 18.145 18.145v200.76c0 10.023-8.1328 18.145-18.145 18.145h-557.01c-10.023 0-18.145-8.1211-18.145-18.145v-200.76c0-10.023 8.1211-18.145 18.145-18.145zm446.27 296.02c-42.934 0-77.727 34.793-77.727 77.727 0 42.926 34.793 77.727 77.727 77.727 42.926 0 77.727-34.801 77.727-77.727 0-42.934-34.801-77.727-77.727-77.727z"/>
 </g>
</svg>
