<?xml version="1.0" encoding="UTF-8"?>
<svg width="1200pt" height="1200pt" version="1.1" viewBox="0 0 1200 1200" xmlns="http://www.w3.org/2000/svg">
 <g>
  <path fill="white" d="m324.34 238.94h243.75c51.047 0 92.75 41.703 92.75 92.758v409.57c0 51.047-41.691 92.75-92.75 92.75h-43.129c0 77.367 8.4609 69.531-60.383 69.531 1.9102 12.309 12.516 21.387 25.02 21.387h322.42c14.023 0 25.324-11.301 25.324-25.324v-191.29h-15.789c-9.9688 0-18.059-8.0859-18.059-18.059v-54.152h-40.355c-9.9805 0-18.066-8.0859-18.066-18.059v-189.89c0-9.9688 8.0859-18.059 18.066-18.059h8.0156v-80.895c0-9.9805 8.0859-18.066 18.059-18.066h135.06c9.9688 0 18.059 8.0859 18.059 18.066v80.895h8.0156c9.9688 0 18.059 8.0859 18.059 18.059v189.89c0 9.9688-8.0859 18.059-18.059 18.059h-40.363v54.152c0 9.9688-8.0859 18.059-18.059 18.059h-18.457v191.29c0 33.766-27.68 61.438-61.445 61.438h-322.42c-32.258 0-59.25-25.375-61.312-57.5-69.328 0-60.82 7.9336-60.82-69.531h-43.129c-51.055 0-92.75-41.703-92.75-92.75v-409.57c0-51.047 41.691-92.758 92.75-92.758zm-18.984 329.18c-23.777 0-23.777-36.113 0-36.113h31.617c23.777 0 23.777 36.113 0 36.113zm0 48.066c-23.777 0-23.777-36.113 0-36.113h31.617c23.777 0 23.777 36.113 0 36.113zm0 48.074c-23.777 0-23.777-36.121 0-36.121h31.617c23.777 0 23.777 36.121 0 36.121zm0 48.066c-23.777 0-23.777-36.113 0-36.113h31.617c23.777 0 23.777 36.113 0 36.113zm0 48.074c-23.777 0-23.777-36.121 0-36.121h31.617c23.777 0 23.777 36.121 0 36.121zm475.84-232.69h65.203l20.922-36.23c3.3203-5.7734 9.3633-9.0156 15.586-9.0234l49.379-0.070313v-36.168h-151.09v81.492zm151.09-9.2109h-39.043l-20.074 34.773c-2.8477 6.2227-9.1328 10.551-16.434 10.551h-75.539v36.16h151.09v-81.484zm-125.02-108.39h98.941v-62.836h-98.941zm32.348 262.09h34.25v-36.086h-34.25zm-350.78 161.82h-85.25v33.418h85.25zm79.254-558.95h-243.75c-31.117 0-56.633 25.527-56.633 56.633v409.57c0 31.105 25.52 56.633 56.633 56.633h243.75c31.105 0 56.633-25.527 56.633-56.633v-409.57c0-31.105-25.52-56.633-56.633-56.633z"/>
 </g>
</svg>
