<?xml version="1.0" encoding="UTF-8"?>
<svg width="1200pt" height="1200pt" version="1.1" viewBox="0 0 1200 1200" xmlns="http://www.w3.org/2000/svg">
 <g>
  <path fill="white" d="m726.49 390.17c0 23.957-36.418 23.957-36.418 0 0-30.445 24.777-55.207 55.207-55.207 23.957 0 23.957 36.418 0 36.418-10.406 0-18.789 8.3555-18.789 18.789zm-411.38 433.17v55.402l55.055-27.695zm93.363-144.12c-23.984 0-23.984-36.426 0-36.426h7.3008c23.984 0 23.984 36.426 0 36.426zm-56.633 0c-23.977 0-23.977-36.426 0-36.426h7.3086c23.977 0 23.977 36.426 0 36.426zm387.51-131.09c-23.977 0-23.977-36.426 0-36.426h11.871c23.977 0 23.977 36.426 0 36.426zm185.52 217.38h-238.38v34.488h45.566c10.059 0 18.207 8.1602 18.207 18.207v14.629h47.809c23.984 0 23.984 36.418 0 36.418h-47.809v13.141c0 10.059-8.1484 18.219-18.207 18.219h-45.566v34.488h39.266c23.977 0 23.977 36.426 0 36.426h-260.97c-23.977 0-23.977-36.426 0-36.426h39.266v-34.488h-45.566c-10.059 0-18.219-8.1602-18.219-18.219v-13.141h-25.457l-108.57 54.625c-13.637 7.5078-27.555-2.5703-27.555-15.637v-114.39h0.042968c-0.007812-13.254 14.121-22.387 26.348-16.219l109.73 55.207h25.457v-14.629c0-10.051 8.1602-18.207 18.219-18.207h45.566v-34.488h-228.89c-10.051 0-18.207-8.1602-18.207-18.207v-444.46c0-10.051 8.1602-18.207 18.207-18.207h247.91c5.1602 0 9.8281 2.1523 13.141 5.6055l63.312 58.32v-101.87c0-10.059 8.1602-18.219 18.207-18.219h255.14c10.051 0 18.207 8.1602 18.207 18.219v103.73h33.801c10.051 0 18.207 8.1602 18.207 18.207v378.68c0 10.051-8.1602 18.207-18.207 18.207zm-238.38 70.914v27.758h27.359v-27.758zm-182.45 27.758v-27.758h-27.359v27.758zm146.02-98.676h-109.59v169.59h109.59zm-301.36-212.78c-23.977 0-23.977-36.418 0-36.418h169.29c23.977 0 23.977 36.418 0 36.418zm0-87.055c-23.977 0-23.977-36.418 0-36.418h169.29c23.977 0 23.977 36.418 0 36.418zm126.75-144.62v43.961c0 23.984-36.426 23.984-36.426 0v-43.961h-58.242v43.961c0 23.984-36.426 23.984-36.426 0v-43.961h-51.004v408.03h611.77l1.5078-342.25h-15.586v201.62c0 10.059-8.1602 18.207-18.207 18.207h-255.14c-10.051 0-18.207-8.1484-18.207-18.207v-201.62l-5.043-0.035156c-4.4023 0-8.8203-1.5781-12.309-4.793l-66.16-60.945h-40.531zm160.47 249.19h218.7v-305.35h-218.7zm109.35-279.59c54.957 0 99.516 44.559 99.516 99.516s-44.559 99.516-99.516 99.516c-54.957 0-99.516-44.559-99.516-99.516s44.559-99.516 99.516-99.516zm0 36.418c-34.848 0-63.098 28.25-63.098 63.098 0 34.848 28.25 63.098 63.098 63.098s63.086-28.25 63.086-63.098c0-34.848-28.242-63.098-63.086-63.098z"/>
 </g>
</svg>
