<?xml version="1.0" encoding="UTF-8"?>
<svg width="1200pt" height="1200pt" version="1.1" viewBox="0 0 1200 1200" xmlns="http://www.w3.org/2000/svg">
 <g>
  <path fill="white" d="m574.1 558.96h349.57v-17.137h-97.453c-23.992 0-23.992-36.445 0-36.445h97.453v-13.852h-97.453c-23.992 0-23.992-36.445 0-36.445h97.453v-16.273h-225.43c-10.066 0-18.227-8.1602-18.227-18.227v-52.262h-105.91zm195.55 178.76v-55.547c0-23.992 36.445-23.992 36.445 0v149.52h19.156v-236.29h-74.746v127.99l19.145 14.324zm-138.07-335.21c0-23.984 36.445-23.984 36.445 0v63c0 23.992-36.445 23.992-36.445 0zm-45.012 0c0-23.984 36.445-23.984 36.445 0v63c0 23.992-36.445 23.992-36.445 0zm311.34-0.14453-34.043-34.043h-147.4v34.043zm-546.35 79.492h-93.668c-23.992 0-23.992-36.445 0-36.445h93.668l0.097657-12.996c0-5.125 2.168-10.219 6.3828-13.809l54.348-46.254c3.3125-3.4531 7.9805-5.6133 13.148-5.6133h37.301c10.059 0 18.219 8.168 18.219 18.227v10.891h10.086v-10.891c0-10.059 8.1602-18.227 18.219-18.227h28.305v-16.648c0-10.059 8.168-18.219 18.227-18.219h315.53c4.6602 0 9.3203 1.7773 12.879 5.3359l70.488 70.488c3.5625 3.6602 5.2852 7.9531 5.3359 12.879v156.59c0 10.066-8.1602 18.227-18.219 18.227h-80.207v254.5c0 10.059-8.1602 18.227-18.227 18.227h-55.59c-10.059 0-18.227-8.168-18.227-18.227v-66.855l-48.262-36.105c-4.75-3.5625-7.2578-9.0078-7.2578-14.523l-0.070312-47.844-28.348-0.054687c-7.5078 0-14.539-4.6953-17.156-12.191l-26.785-76.934h-85.883c-10.059 0-18.227-8.1602-18.227-18.227v-16.648h-28.305c-10.059 0-18.219-8.1602-18.219-18.219v-10.898h-10.086v10.898c0 10.059-8.1602 18.219-18.219 18.219l-37.301-0.097656c-4.1602 0.007812-8.3359-1.4102-11.746-4.3125l-54.348-46.262c-9.6836-7.4336-7.8828-15.398-7.8828-28zm93.051-78.672h-12.516l-44.094 37.531v45.844l44.094 37.523h12.516zm269.45 192.22h-33.812l18.352 52.734h15.461zm-222.92-163.1h-10.086v62.668h10.086zm46.52-29.117h-10.078v120.9h10.078z"/>
 </g>
</svg>
