<?xml version="1.0" encoding="UTF-8"?>
<svg width="1200pt" height="1200pt" version="1.1" viewBox="0 0 1200 1200" xmlns="http://www.w3.org/2000/svg">
 <g>
  <path fill="white" d="m840.18 664.45v-76.457h-417.95l-65.863 104.3c-3.4375 5.4609-9.3203 8.4609-15.336 8.4688l-71.336 0.054688c7.0703 25.957 19.789 51.039 38.656 70.426h620.17c9.8984-21.727 8.0352-51.789-7.5977-70.426h-490.39c-23.914 0-23.914-36.363 0-36.363zm-367.77-56.41c23.914 0 23.914 36.363 0 36.363h-18.246c-23.914 0-23.914-36.363 0-36.363zm231.97 0c23.914 0 23.914 36.363 0 36.363h-18.246c-23.914 0-23.914-36.363 0-36.363zm-77.324 0c23.914 0 23.914 36.363 0 36.363h-18.246c-23.914 0-23.914-36.363 0-36.363zm-77.324 0c23.914 0 23.914 36.363 0 36.363h-18.246c-23.914 0-23.914-36.363 0-36.363zm231.98 0c23.914 0 23.914 36.363 0 36.363h-18.246c-23.922 0-23.922-36.363 0-36.363zm-332.86-215.64h84.473c10.043 0 18.184 8.1406 18.184 18.184v141.05h23.387v-71.523c0-10.043 8.1484-18.184 18.184-18.184h84.473c10.043 0 18.184 8.1406 18.184 18.184v71.523h162.63c10.043 0 18.184 8.1406 18.184 18.184v94.641l51.984 0.019531c4.293 0 8.6133 1.5156 12.078 4.5977 35.07 31.223 39.406 90.445 14.414 129.08-3.0898 5.6328-9.0703 9.4609-15.949 9.4609l-638.05-0.042969c-4.4023 0-8.8008-1.5781-12.289-4.7852-32.453-29.957-51.938-72.523-59.027-115.64-2.9023-11.418 5.6875-22.68 17.621-22.68h83.742l65.113-103.11c3.043-5.7734 9.1055-9.7109 16.086-9.7109h18.406v-141.05c0-10.043 8.1406-18.184 18.184-18.184zm66.293 36.363h-48.109v122.86h48.109zm144.22 69.523h-48.109v53.34h48.109z"/>
 </g>
</svg>
