<?xml version="1.0" encoding="UTF-8"?>
<svg width="1200pt" height="1200pt" version="1.1" viewBox="0 0 1200 1200" xmlns="http://www.w3.org/2000/svg">
 <g>
  <path fill="white" d="m506.82 319.59-78.191 45.137 44.363 76.844 78.191-45.148zm329.88 625.91c4.418 11.719-4.2227 24.52-16.977 24.52h-183.28c-46.969 0-52.422-46.102-30.008-79.039 7.3477-10.793 14.637-21.504 3.2852-29.41l-110.14-76.746c-19.547-13.586 1.1406-43.344 20.691-29.75l110.14 76.746c40.766 28.395 23.414 53.887 5.9258 79.566-2.9727 4.375-15.414 22.359 0.10547 22.359h139.92l-94.73-95.855c-1.3555-1.3828-2.4453-2.9258-3.2773-4.5703l-155.46-269.27c-13.391-0.65234-25.688-8.1758-32.41-19.781l-123.02-213.09c-10.941-18.957-4.4648-43.301 14.504-54.25l72.137-41.613c18.957-10.941 43.227-4.4648 54.18 14.504l11.754 20.43 30.723-17.734c8.6328-4.9609 19.645-2 24.625 6.6055l84.492 146.27c11.914 20.574-19.406 38.711-31.32 18.137l-75.441-130.66-15.023 8.668c31.07 53.812 62.141 107.63 93.211 161.45 6.7383 11.676 7.0234 25.902 0.96484 37.871l155.97 270.22c0.8125 1.4023 1.3555 2.75 1.8047 4.3008l46.656 170.12zm-135.55-144.96 46.77-27-152.97-264.95c-4.4258-7.6602-2.6797-17.496 4.1875-23.102 1.3398-1.0977 1.7305-3.0078 0.85547-4.5156l-30.742-53.262-78.199 45.148 30.98 53.66c0.74219 0.92969 2.1406 1.4453 3.3125 1.3281l33.648-19.43c20.566-11.906 38.703 19.406 18.137 31.32l-19.914 11.496 143.93 249.3zm-212.38-512.23-11.793-20.352c-0.94531-1.6328-3.25-2.2656-4.875-1.3203l-71.996 41.602c-1.6055 0.92969-2.2578 3.1875-1.3203 4.8008l11.781 20.414 78.199-45.148zm235.08 540.82 60.188 60.902-22.645-82.574c-12.516 7.2227-25.027 14.449-37.543 21.672z"/>
 </g>
</svg>
