<?xml version="1.0" encoding="UTF-8"?>
<svg width="1200pt" height="1200pt" version="1.1" viewBox="0 0 1200 1200" xmlns="http://www.w3.org/2000/svg">
 <path d="m1062.1 1146.1h-924.28c-20.59-0.019531-40.328-8.207-54.887-22.762-14.555-14.559-22.742-34.297-22.762-54.887v-629.34c0.019531-20.59 8.2031-40.332 22.762-54.895 14.559-14.559 34.297-22.754 54.887-22.777h924.28c20.59 0.023437 40.328 8.2188 54.887 22.777 14.559 14.562 22.742 34.305 22.762 54.895v629.34c-0.019531 20.59-8.207 40.328-22.762 54.887-14.559 14.555-34.297 22.742-54.887 22.762zm-924.28-747.16c-10.648 0.011718-20.855 4.25-28.383 11.781-7.5273 7.5312-11.758 17.742-11.766 28.391v629.34c0.011718 10.645 4.2461 20.848 11.773 28.375 7.5273 7.5273 17.73 11.762 28.375 11.773h924.28c10.645-0.011719 20.848-4.2461 28.375-11.773 7.5273-7.5273 11.762-17.73 11.773-28.375v-629.34c-0.007812-10.648-4.2383-20.859-11.766-28.391-7.5273-7.5312-17.734-11.77-28.383-11.781z"/>
 <path d="m1027.8 398.93h-157.95c-4.9727 0-9.7422-1.9766-13.258-5.4922-3.5156-3.5156-5.4922-8.2852-5.4922-13.258v-60.938c0.53516-34.555 19.277-66.254 49.293-83.379 30.016-17.121 66.844-17.121 96.859 0 30.016 17.125 48.758 48.824 49.293 83.379v60.938c0 4.9727-1.9766 9.7422-5.4922 13.258s-8.2852 5.4922-13.258 5.4922zm-139.2-37.5h120.45v-42.188c-0.41797-21.234-11.988-40.676-30.449-51.172-18.461-10.5-41.086-10.5-59.547 0-18.461 10.496-30.031 29.938-30.449 51.172z"/>
 <path d="m869.81 359.72c-1.6484 0-3.2852-0.22266-4.875-0.65625l-188.13-50.625c-4.8008-1.2891-8.8945-4.4336-11.379-8.7422-2.4805-4.3086-3.1523-9.4258-1.8633-14.227l26.133-97.055c1.2891-4.8008 4.4336-8.8945 8.7422-11.379 4.3086-2.4805 9.4258-3.1523 14.227-1.8633l205.66 55.383c6.4688 1.7422 11.516 6.8008 13.242 13.273 1.7266 6.4727-0.13281 13.375-4.875 18.105-4.7422 4.7305-11.648 6.5742-18.117 4.832l-187.5-50.508-16.406 60.938 170.04 45.75c5.918 1.5781 10.695 5.9492 12.789 11.703 2.0938 5.7578 1.2461 12.172-2.2734 17.188-3.5195 5.0117-9.2656 7.9922-15.391 7.9766z"/>
 <path d="m686.16 292.45c-1.6445-0.003906-3.2852-0.21484-4.875-0.63281l-246.09-66.258c-4.7969-1.2969-8.8828-4.4414-11.363-8.75-2.4766-4.3047-3.1445-9.4219-1.8555-14.219l17.156-63.773c1.2891-4.8008 4.4336-8.8945 8.7422-11.379 4.3086-2.4805 9.4258-3.1523 14.227-1.8633l246.09 66.258c4.7969 1.2969 8.8828 4.4414 11.363 8.75 2.4766 4.3047 3.1445 9.4219 1.8555 14.219l-17.156 63.773c-1.0742 3.9844-3.4297 7.5039-6.7031 10.012-3.2773 2.5078-7.2891 3.8672-11.414 3.8633zm-223.17-98.227 209.95 56.555 7.4062-27.562-209.95-56.555z"/>
 <path d="m448.59 194.32c-1.6562 0-3.3008-0.22266-4.8984-0.65625l-185.74-49.969c-6.4688-1.7422-11.516-6.8008-13.242-13.273-1.7266-6.4727 0.13281-13.375 4.875-18.105 4.7422-4.7305 11.648-6.5742 18.117-4.832l185.74 49.969c5.918 1.5781 10.691 5.9453 12.785 11.695 2.0977 5.7539 1.2539 12.168-2.2617 17.184-3.5117 5.0117-9.2539 7.9961-15.375 7.9883z"/>
 <path d="m222.35 175.45c-5.3555 0.023437-10.688-0.65234-15.867-2.0156-19.914-5.4062-35.691-20.598-41.848-40.293-6.1523-19.691-1.832-41.164 11.461-56.945 13.293-15.781 33.723-23.688 54.176-20.969 20.453 2.7188 38.105 15.688 46.812 34.395 8.7109 18.703 7.2695 40.559-3.8164 57.965-11.086 17.402-30.285 27.941-50.918 27.957zm-0.11719-84.047c-5.8203 0-11.43 2.1836-15.719 6.1133-4.293 3.9297-6.9531 9.3281-7.4648 15.125-0.50781 5.7969 1.1758 11.574 4.7148 16.195 3.543 4.6172 8.6836 7.7422 14.414 8.7578 5.7305 1.0117 11.633-0.15625 16.547-3.2773 4.9102-3.125 8.4727-7.9727 9.9844-13.594l18.117 4.875-18.117-4.875c1.6055-5.9531 0.77734-12.305-2.3008-17.648-3.0742-5.3438-8.1484-9.25-14.105-10.852-1.9766-0.54687-4.0195-0.82422-6.0703-0.82031z"/>
 <path d="m306.28 398.93h-126.05c-4.9727 0-9.7422-1.9766-13.258-5.4922-3.5156-3.5156-5.4922-8.2852-5.4922-13.258v-91.148c0-4.9727 1.9766-9.7422 5.4922-13.258 3.5156-3.5156 8.2852-5.4922 13.258-5.4922h126.05c4.9727 0 9.7422 1.9766 13.258 5.4922 3.5156 3.5156 5.4922 8.2852 5.4922 13.258v91.148c0 4.9727-1.9766 9.7422-5.4922 13.258-3.5156 3.5156-8.2852 5.4922-13.258 5.4922zm-107.3-37.5h88.547v-53.648h-88.547z"/>
 <path d="m488.53 398.93h-126.02c-4.9727 0-9.7422-1.9766-13.258-5.4922s-5.4922-8.2852-5.4922-13.258v-91.148c0-4.9727 1.9766-9.7422 5.4922-13.258 3.5156-3.5156 8.2852-5.4922 13.258-5.4922h126.02c4.9727 0 9.7422 1.9766 13.258 5.4922 3.5156 3.5156 5.4922 8.2852 5.4922 13.258v91.148c0 4.9727-1.9766 9.7422-5.4922 13.258-3.5156 3.5156-8.2852 5.4922-13.258 5.4922zm-107.27-37.5h88.523v-53.648h-88.523z"/>
 <path d="m1040 599.48h-879.98c-4.9727 0-9.7422-1.9766-13.258-5.4922-3.5156-3.5156-5.4922-8.2852-5.4922-13.258v-123c0-4.9727 1.9766-9.7422 5.4922-13.258 3.5156-3.5156 8.2852-5.4922 13.258-5.4922h879.98c4.9727 0 9.7422 1.9766 13.258 5.4922 3.5156 3.5156 5.4922 8.2852 5.4922 13.258v123c0 4.9727-1.9766 9.7422-5.4922 13.258-3.5156 3.5156-8.2852 5.4922-13.258 5.4922zm-861.23-37.5h842.48v-85.5h-842.48z"/>
 <path d="m222.28 537.98c-4.9727 0-9.7422-1.9766-13.258-5.4922-3.5156-3.5156-5.4922-8.2852-5.4922-13.258v-61.5c0-6.6992 3.5742-12.887 9.375-16.238 5.8008-3.3477 12.949-3.3477 18.75 0 5.8008 3.3516 9.375 9.5391 9.375 16.238v61.5c0 4.9727-1.9766 9.7422-5.4922 13.258-3.5156 3.5156-8.2852 5.4922-13.258 5.4922z"/>
 <path d="m330.19 537.98c-4.9727 0-9.7422-1.9766-13.258-5.4922-3.5156-3.5156-5.4922-8.2852-5.4922-13.258v-61.5c0-6.6992 3.5742-12.887 9.375-16.238 5.8008-3.3477 12.949-3.3477 18.75 0 5.8008 3.3516 9.375 9.5391 9.375 16.238v61.5c0 4.9727-1.9766 9.7422-5.4922 13.258-3.5156 3.5156-8.2852 5.4922-13.258 5.4922z"/>
 <path d="m438.12 537.98c-4.9727 0-9.7422-1.9766-13.258-5.4922-3.5156-3.5156-5.4922-8.2852-5.4922-13.258v-61.5c0-6.6992 3.5742-12.887 9.375-16.238 5.8008-3.3477 12.949-3.3477 18.75 0 5.8008 3.3516 9.375 9.5391 9.375 16.238v61.5c0 4.9727-1.9766 9.7422-5.4922 13.258-3.5156 3.5156-8.2852 5.4922-13.258 5.4922z"/>
 <path d="m546.09 537.98c-4.9727 0-9.7422-1.9766-13.258-5.4922-3.5156-3.5156-5.4922-8.2852-5.4922-13.258v-61.5c0-6.6992 3.5742-12.887 9.375-16.238 5.8008-3.3477 12.949-3.3477 18.75 0 5.8008 3.3516 9.375 9.5391 9.375 16.238v61.5c0 4.9727-1.9766 9.7422-5.4922 13.258-3.5156 3.5156-8.2852 5.4922-13.258 5.4922z"/>
 <path d="m653.91 537.98c-4.9727 0-9.7422-1.9766-13.258-5.4922-3.5156-3.5156-5.4922-8.2852-5.4922-13.258v-61.5c0-6.6992 3.5742-12.887 9.375-16.238 5.8008-3.3477 12.949-3.3477 18.75 0 5.8008 3.3516 9.375 9.5391 9.375 16.238v61.5c0 4.9727-1.9766 9.7422-5.4922 13.258-3.5156 3.5156-8.2852 5.4922-13.258 5.4922z"/>
 <path d="m761.88 537.98c-4.9727 0-9.7422-1.9766-13.258-5.4922-3.5156-3.5156-5.4922-8.2852-5.4922-13.258v-61.5c0-6.6992 3.5742-12.887 9.375-16.238 5.8008-3.3477 12.949-3.3477 18.75 0 5.8008 3.3516 9.375 9.5391 9.375 16.238v61.5c0 4.9727-1.9766 9.7422-5.4922 13.258-3.5156 3.5156-8.2852 5.4922-13.258 5.4922z"/>
 <path d="m869.81 537.98c-4.9727 0-9.7422-1.9766-13.258-5.4922-3.5156-3.5156-5.4922-8.2852-5.4922-13.258v-61.5c0-6.6992 3.5742-12.887 9.375-16.238 5.8008-3.3477 12.949-3.3477 18.75 0 5.8008 3.3516 9.375 9.5391 9.375 16.238v61.5c0 4.9727-1.9766 9.7422-5.4922 13.258-3.5156 3.5156-8.2852 5.4922-13.258 5.4922z"/>
 <path d="m977.72 537.98c-4.9727 0-9.7422-1.9766-13.258-5.4922-3.5156-3.5156-5.4922-8.2852-5.4922-13.258v-61.5c0-6.6992 3.5742-12.887 9.375-16.238 5.8008-3.3477 12.949-3.3477 18.75 0 5.8008 3.3516 9.375 9.5391 9.375 16.238v61.5c0 4.9727-1.9766 9.7422-5.4922 13.258-3.5156 3.5156-8.2852 5.4922-13.258 5.4922z"/>
 <path d="m357.49 1068.5c-42.773 0-84.586-12.684-120.15-36.449-35.562-23.762-63.281-57.539-79.648-97.055-16.367-39.52-20.648-83-12.305-124.95 8.3477-41.949 28.945-80.484 59.191-110.73 30.246-30.242 68.785-50.836 110.73-59.18 41.953-8.3398 85.434-4.0547 124.95 12.316 39.516 16.371 73.289 44.094 97.051 79.66 23.758 35.566 36.438 77.379 36.434 120.15-0.066406 57.332-22.875 112.3-63.418 152.83-40.543 40.539-95.508 63.34-152.84 63.402zm0-394.99c-47.41 0-92.879 18.832-126.4 52.355-33.523 33.523-52.355 78.992-52.355 126.4 0 47.41 18.832 92.879 52.355 126.4 33.523 33.523 78.992 52.355 126.4 52.355 47.41 0 92.879-18.832 126.4-52.355 33.523-33.523 52.355-78.992 52.355-126.4-0.050781-47.395-18.898-92.832-52.41-126.35-33.516-33.512-78.953-52.359-126.35-52.41z"/>
 <path d="m842.51 1068.5c-42.773 0.003907-84.59-12.676-120.16-36.438-35.566-23.758-63.289-57.535-79.66-97.051s-20.652-83-12.312-124.95c8.3438-41.953 28.941-80.488 59.188-110.73 30.246-30.246 68.781-50.844 110.73-59.188 41.953-8.3398 85.438-4.0586 124.95 12.312 39.516 16.371 73.293 44.094 97.051 79.66 23.762 35.566 36.441 77.383 36.438 120.16-0.066407 57.328-22.871 112.29-63.41 152.82-40.535 40.539-95.496 63.344-152.82 63.41zm0-394.99c-35.355-0.003906-69.918 10.477-99.32 30.113-29.398 19.641-52.312 47.559-65.848 80.219-13.531 32.664-17.074 68.609-10.18 103.29 6.8945 34.676 23.918 66.531 48.914 91.531 25 25.004 56.852 42.031 91.527 48.93 34.676 6.8984 70.621 3.3633 103.29-10.168 32.664-13.527 60.586-36.441 80.227-65.836 19.645-29.398 30.129-63.961 30.129-99.316-0.054688-47.387-18.902-92.82-52.41-126.33-33.508-33.508-78.938-52.363-126.32-52.426z"/>
 <path d="m842.51 949.8c-25.867 0-50.672-10.277-68.961-28.566-18.289-18.293-28.566-43.098-28.562-68.965 0.003906-25.867 10.281-50.672 28.57-68.961 18.293-18.285 43.102-28.559 68.969-28.555 25.867 0.003907 50.672 10.285 68.957 28.578 18.289 18.293 28.559 43.102 28.551 68.969-0.03125 25.852-10.316 50.637-28.602 68.918-18.281 18.277-43.07 28.559-68.922 28.582zm0-157.52c-15.918 0-31.188 6.3242-42.441 17.582-11.258 11.254-17.582 26.523-17.582 42.441 0 15.918 6.3242 31.188 17.582 42.441 11.254 11.258 26.523 17.582 42.441 17.582 15.918 0 31.188-6.3242 42.441-17.582 11.258-11.254 17.582-26.523 17.582-42.441 0.007812-15.93-6.3125-31.211-17.566-42.484-11.258-11.27-26.527-17.613-42.457-17.633z"/>
 <path d="m786.8 815.34c-4.9727 0.003906-9.7461-1.9688-13.266-5.4844l-83.93-83.953c-4.5352-4.7734-6.2344-11.578-4.4766-17.922s6.7188-11.305 13.062-13.062 13.148-0.058594 17.922 4.4766l83.953 83.93c3.5195 3.5156 5.5 8.2891 5.5 13.262 0 4.9766-1.9766 9.75-5.4961 13.266-3.5195 3.5195-8.293 5.4922-13.27 5.4883z"/>
 <path d="m702.84 1010.7c-4.9727-0.003906-9.7422-1.9805-13.258-5.5-3.5117-3.5156-5.4844-8.2852-5.4844-13.262 0.003907-4.9727 1.9805-9.7383 5.5-13.254l83.836-83.953c4.7383-4.7383 11.648-6.5898 18.121-4.8555s11.531 6.793 13.266 13.266c1.7344 6.4727-0.11719 13.383-4.8555 18.121l-83.953 83.953c-3.4961 3.4922-8.2305 5.4648-13.172 5.4844z"/>
 <path d="m982.15 1010.7c-4.9727 0.003907-9.7461-1.9688-13.266-5.4844l-83.93-83.953c-4.7383-4.7344-6.5938-11.641-4.8633-18.109 1.7344-6.4727 6.7852-11.531 13.254-13.266 6.4727-1.7383 13.379 0.10938 18.117 4.8438l83.953 83.953c3.5195 3.5156 5.5 8.2891 5.5 13.262 0 4.9766-1.9766 9.75-5.4961 13.266-3.5195 3.5195-8.293 5.4922-13.27 5.4883z"/>
 <path d="m898.2 815.34c-4.9727-0.003906-9.7422-1.9805-13.258-5.5-3.5117-3.5156-5.4844-8.2852-5.4844-13.262 0.003906-4.9727 1.9805-9.7383 5.5-13.254l83.93-83.93c4.7344-4.7383 11.641-6.5938 18.109-4.8633 6.4727 1.7344 11.531 6.7852 13.266 13.254 1.7383 6.4727-0.10937 13.379-4.8438 18.117l-83.953 83.953c-3.5195 3.5156-8.293 5.4883-13.266 5.4844z"/>
 <path d="m237.42 1027.8c-4.9727 0-9.7422-1.9766-13.258-5.4922-3.5156-3.5156-5.4922-8.2852-5.4922-13.258v-313.57c0-6.6992 3.5742-12.887 9.375-16.238 5.8008-3.3477 12.949-3.3477 18.75 0 5.8008 3.3516 9.375 9.5391 9.375 16.238v313.57c0 4.9727-1.9766 9.7422-5.4922 13.258-3.5156 3.5156-8.2852 5.4922-13.258 5.4922z"/>
 <path d="m317.46 1064.5c-4.9727 0-9.7422-1.9766-13.258-5.4922-3.5156-3.5156-5.4922-8.2852-5.4922-13.258v-386.88c0-6.6992 3.5742-12.887 9.375-16.238 5.8008-3.3477 12.949-3.3477 18.75 0 5.8008 3.3516 9.375 9.5391 9.375 16.238v386.88c0 4.9727-1.9766 9.7422-5.4922 13.258-3.5156 3.5156-8.2852 5.4922-13.258 5.4922z"/>
 <path d="m397.52 1064.5c-4.9727 0-9.7422-1.9766-13.258-5.4922-3.5156-3.5156-5.4922-8.2852-5.4922-13.258v-386.88c0-6.6992 3.5742-12.887 9.375-16.238 5.8008-3.3477 12.949-3.3477 18.75 0 5.8008 3.3516 9.375 9.5391 9.375 16.238v386.88c0 4.9727-1.9766 9.7422-5.4922 13.258-3.5156 3.5156-8.2852 5.4922-13.258 5.4922z"/>
 <path d="m477.59 1027.8c-4.9727 0-9.7422-1.9766-13.258-5.4922-3.5156-3.5156-5.4922-8.2852-5.4922-13.258v-313.57c0-6.6992 3.5742-12.887 9.375-16.238 5.8008-3.3477 12.949-3.3477 18.75 0 5.8008 3.3516 9.375 9.5391 9.375 16.238v313.57c0 4.9727-1.9766 9.7422-5.4922 13.258-3.5156 3.5156-8.2852 5.4922-13.258 5.4922z"/>
 <path d="m514.29 750.96h-313.57c-6.6992 0-12.887-3.5742-16.238-9.375-3.3477-5.8008-3.3477-12.949 0-18.75 3.3516-5.8008 9.5391-9.375 16.238-9.375h313.57c6.6992 0 12.887 3.5742 16.238 9.375 3.3477 5.8008 3.3477 12.949 0 18.75-3.3516 5.8008-9.5391 9.375-16.238 9.375z"/>
 <path d="m550.95 831.02h-386.88c-6.6992 0-12.887-3.5742-16.238-9.375-3.3477-5.8008-3.3477-12.949 0-18.75 3.3516-5.8008 9.5391-9.375 16.238-9.375h386.88c6.6992 0 12.887 3.5742 16.238 9.375 3.3477 5.8008 3.3477 12.949 0 18.75-3.3516 5.8008-9.5391 9.375-16.238 9.375z"/>
 <path d="m550.95 911.09h-386.88c-6.6992 0-12.887-3.5742-16.238-9.375-3.3477-5.8008-3.3477-12.949 0-18.75 3.3516-5.8008 9.5391-9.375 16.238-9.375h386.88c6.6992 0 12.887 3.5742 16.238 9.375 3.3477 5.8008 3.3477 12.949 0 18.75-3.3516 5.8008-9.5391 9.375-16.238 9.375z"/>
 <path d="m514.29 991.12h-313.57c-6.6992 0-12.887-3.5742-16.238-9.375-3.3477-5.8008-3.3477-12.949 0-18.75 3.3516-5.8008 9.5391-9.375 16.238-9.375h313.57c6.6992 0 12.887 3.5742 16.238 9.375 3.3477 5.8008 3.3477 12.949 0 18.75-3.3516 5.8008-9.5391 9.375-16.238 9.375z"/>
</svg>
