<svg xmlns="http://www.w3.org/2000/svg" viewBox="0 0 219.8 129.4"><linearGradient id="a" gradientUnits="userSpaceOnUse" x1="123.03" y1="28.578" x2="7.137" y2="-79.038" gradientTransform="matrix(1 0 0 -1 0 60.787)"><stop offset=".581" stop-color="#3ec6f3" stop-opacity="0"/><stop offset="1" stop-color="#3ec6f3"/></linearGradient><path d="M88.3 0s-.6 1.4-2 3.9c-5 9-19.8 32.6-51.7 60.5C-6.3 100.2.4 128.9.4 128.9h87.9V0z" fill-rule="evenodd" clip-rule="evenodd" fill="url(#a)"/><linearGradient id="b" gradientUnits="userSpaceOnUse" x1="43.571" y1="128.919" x2="43.571" y2="6.75"><stop offset="0" stop-color="#50c9ef"/><stop offset="1" stop-color="#50c9ef" stop-opacity=".6"/></linearGradient><path d="M.4 128.9c-.3-6.4 1.4-12.7 3.6-18.7 2.3-6 5.4-11.6 8.9-16.9C20 82.7 29.2 73.6 38.4 65c4.7-4.3 9.4-8.5 13.8-13 4.5-4.4 8.7-9.1 12.8-13.9 4.1-4.8 7.9-9.9 11.5-15 3.7-5.1 7.1-10.5 10.1-16l.1.1c-2.9 5.7-6.1 11.1-9.7 16.4-3.5 5.3-7.3 10.4-11.3 15.3-4 4.9-8.3 9.6-12.8 14.1s-9.2 8.8-13.8 13.1c-4.6 4.3-9.2 8.7-13.6 13.3-4.3 4.6-8.4 9.5-12 14.7-3.6 5.2-6.7 10.7-9.1 16.6-2.4 5.8-4.2 12-4.1 18.4l.1-.2z" fill="url(#b)"/><linearGradient id="c" gradientUnits="userSpaceOnUse" x1="43.564" y1="128.919" x2="43.564" y2="14.411"><stop offset="0" stop-color="#50c9ef"/><stop offset="1" stop-color="#50c9ef" stop-opacity=".6"/></linearGradient><path d="M.4 128.9c-.2-3 .2-6.1.9-9.1s1.7-5.9 2.9-8.7c2.4-5.7 5.5-11 9.1-16 7.2-10 16.3-18.3 25.4-26.4 4.6-4 9.2-7.9 13.7-12s8.7-8.4 12.7-12.9 7.9-9.2 11.5-14.1c3.7-4.8 7-9.9 10.2-15.1l.1.1C84 20 80.7 25.2 77.2 30.1c-3.5 5-7.3 9.7-11.3 14.3-4 4.6-8.2 9-12.7 13.1-4.4 4.1-9.1 8.1-13.6 12.1-4.6 4-9.1 8-13.4 12.3-4.3 4.3-8.4 8.8-12 13.7-3.6 4.9-6.8 10.1-9.3 15.6-2.4 5.5-4.3 11.5-4.3 17.6l-.2.1z" fill="url(#c)"/><linearGradient id="d" gradientUnits="userSpaceOnUse" x1="43.564" y1="128.919" x2="43.564" y2="22.07"><stop offset="0" stop-color="#50c9ef"/><stop offset="1" stop-color="#50c9ef" stop-opacity=".6"/></linearGradient><path d="M.4 128.9c-.2-2.9.2-5.9 1-8.7.7-2.9 1.8-5.6 3-8.3 2.5-5.4 5.7-10.3 9.3-15C21 87.6 30 79.9 39 72.5c4.5-3.7 9.1-7.3 13.5-11s8.6-7.8 12.6-11.9c4-4.2 7.9-8.5 11.5-13.1 3.7-4.5 7.1-9.2 10.2-14.1l.1.1c-2.9 5-6.2 9.9-9.8 14.5-3.5 4.6-7.3 9.1-11.3 13.4-4 4.3-8.2 8.3-12.6 12.1-4.4 3.8-8.9 7.5-13.5 11.2-4.5 3.7-9 7.4-13.3 11.3-4.3 3.9-8.4 8.1-12 12.7-3.7 4.5-6.9 9.4-9.4 14.6C2.5 117.5.5 123.2.6 129l-.2-.1z" fill="url(#d)"/><linearGradient id="e" gradientUnits="userSpaceOnUse" x1="43.565" y1="128.92" x2="43.565" y2="29.728"><stop offset="0" stop-color="#50c9ef"/><stop offset="1" stop-color="#50c9ef" stop-opacity=".6"/></linearGradient><path d="M.4 128.9c-.2-2.8.3-5.6 1-8.3.8-2.7 1.9-5.3 3.1-7.9 2.5-5 5.8-9.7 9.5-14 7.3-8.6 16.3-15.6 25.1-22.4 4.5-3.3 9-6.6 13.3-10.1 4.4-3.4 8.5-7.1 12.5-11 4-3.8 7.8-7.9 11.5-12.1 3.7-4.2 7.1-8.6 10.3-13.2l.1.1c-3 4.7-6.3 9.2-9.9 13.5-3.5 4.5-7.3 8.6-11.3 12.5-7.9 8-16.9 14.7-25.8 21.4-8.8 6.7-17.7 13.6-25.1 22-3.7 4.2-7 8.7-9.6 13.6-2.6 4.9-4.7 10.3-4.6 15.9H.4z" fill="url(#e)"/><linearGradient id="f" gradientUnits="userSpaceOnUse" x1="43.565" y1="128.92" x2="43.565" y2="37.383"><stop offset="0" stop-color="#50c9ef"/><stop offset="1" stop-color="#50c9ef" stop-opacity=".6"/></linearGradient><path d="M.4 128.9c-.2-2.7.3-5.4 1.1-8 .8-2.6 2-5 3.2-7.4 2.6-4.7 6-9 9.7-13 7.4-7.9 16.2-14.2 25-20.4 4.4-3 8.8-6 13.1-9.2 4.3-3.1 8.4-6.5 12.4-10s7.8-7.2 11.5-11.1c3.7-3.8 7.1-7.9 10.4-12.2l.1.1c-3 4.4-6.4 8.6-10 12.6-3.6 4-7.4 7.8-11.3 11.4-7.8 7.3-16.7 13.4-25.5 19.5s-17.5 12.3-25 20c-3.7 3.8-7.1 8-9.8 12.6-1.3 2.3-2.5 4.7-3.4 7.2-.9 2.5-1.5 5.2-1.4 7.8l-.1.1z" fill="url(#f)"/><linearGradient id="g" gradientUnits="userSpaceOnUse" x1="43.567" y1="128.92" x2="43.567" y2="45.037"><stop offset="0" stop-color="#50c9ef"/><stop offset="1" stop-color="#50c9ef" stop-opacity=".6"/></linearGradient><path d="M.4 128.9c-.1-1.3 0-2.6.2-3.9.2-1.3.6-2.5 1-3.7.9-2.4 2.1-4.7 3.4-7 2.7-4.4 6.2-8.3 9.9-11.9 7.5-7.2 16.2-12.8 24.8-18.4 4.3-2.7 8.7-5.4 12.9-8.3 4.3-2.8 8.3-5.9 12.3-9 4-3.2 7.8-6.6 11.4-10.1 3.7-3.5 7.2-7.2 10.4-11.2l.1.1c-3 4.1-6.5 8-10 11.6-3.6 3.7-7.4 7.1-11.3 10.4-7.8 6.6-16.5 12.1-25.1 17.6-8.6 5.5-17.3 11.1-24.8 18-3.7 3.5-7.2 7.3-10 11.6-1.4 2.1-2.7 4.4-3.6 6.7-.9 2.4-1.6 4.9-1.5 7.4l-.1.1z" fill="url(#g)"/><linearGradient id="h" gradientUnits="userSpaceOnUse" x1="43.565" y1="128.92" x2="43.565" y2="52.688"><stop offset="0" stop-color="#50c9ef"/><stop offset="1" stop-color="#50c9ef" stop-opacity=".6"/></linearGradient><path d="M.4 128.9c-.2-2.5.4-5 1.4-7.2 1-2.3 2.2-4.4 3.6-6.5 2.9-4.1 6.4-7.6 10.1-10.9 3.7-3.3 7.8-6.1 11.9-8.8 4.1-2.7 8.4-5.2 12.6-7.7 4.3-2.4 8.5-4.8 12.7-7.4 4.2-2.5 8.2-5.3 12.1-8.1 3.9-2.9 7.7-5.9 11.4-9.1 3.7-3.2 7.2-6.6 10.5-10.2l.1.1c-3.1 3.8-6.5 7.3-10.1 10.6-3.6 3.3-7.4 6.5-11.3 9.4-7.8 6-16.3 10.9-24.8 15.8s-17 9.8-24.5 16.1c-3.8 3.1-7.3 6.6-10.2 10.5-1.4 2-2.8 4-3.8 6.3-1 2.2-1.7 4.6-1.7 7.1z" fill="url(#h)"/><linearGradient id="i" gradientUnits="userSpaceOnUse" x1="43.566" y1="128.92" x2="43.566" y2="60.337"><stop offset="0" stop-color="#50c9ef"/><stop offset="1" stop-color="#50c9ef" stop-opacity=".6"/></linearGradient><path d="M.4 128.9c-.2-2.4.5-4.8 1.6-6.9 1.1-2.1 2.4-4.1 3.8-6 3-3.7 6.6-6.9 10.3-9.8 3.7-2.9 7.8-5.4 11.8-7.8 4.1-2.4 8.2-4.6 12.4-6.8 4.2-2.1 8.3-4.2 12.4-6.5 4.1-2.2 8.1-4.7 12-7.2 3.9-2.5 7.7-5.3 11.4-8.1s7.2-5.9 10.6-9.2l.1.1c-3.2 3.5-6.6 6.6-10.2 9.6-3.6 3-7.4 5.8-11.2 8.4-7.7 5.3-16.1 9.7-24.4 14-8.3 4.3-16.7 8.6-24.2 14.2-3.8 2.8-7.4 5.8-10.4 9.4-1.5 1.8-2.9 3.7-4 5.8-1.1 2.1-1.9 4.3-1.8 6.7l-.2.1z" fill="url(#i)"/><linearGradient id="j" gradientUnits="userSpaceOnUse" x1="43.565" y1="128.921" x2="43.565" y2="67.983"><stop offset="0" stop-color="#50c9ef"/><stop offset="1" stop-color="#50c9ef" stop-opacity=".6"/></linearGradient><path d="M.4 128.9c-.2-2.3.7-4.5 1.8-6.5s2.6-3.8 4.1-5.5c3.1-3.3 6.8-6.1 10.5-8.7 3.8-2.6 7.7-4.7 11.8-6.8 4-2.1 8.1-4 12.2-5.9 4.1-1.9 8.2-3.7 12.2-5.6 4-1.9 7.9-4.1 11.8-6.3 3.9-2.2 7.7-4.6 11.3-7.2 3.7-2.5 7.3-5.2 10.7-8.2l.1.1c-3.2 3.1-6.7 6-10.3 8.6-3.6 2.7-7.4 5.1-11.2 7.5-7.7 4.7-15.9 8.5-24 12.2-8.1 3.8-16.3 7.5-23.9 12.3-3.8 2.4-7.4 5.1-10.6 8.3-1.6 1.6-3 3.3-4.2 5.2-1.2 1.9-2.1 4-2 6.3l-.3.2z" fill="url(#j)"/><path d="M103 77.9V49.1h18.6v4.2h-13.3v8.1h10.8v4.2h-10.8V78H103zm22.1 0V49.1h9.8c3.4 0 6.2.6 8.3 1.8 2.2 1.2 3.8 2.9 4.9 5 1.1 2.2 1.6 4.7 1.6 7.6 0 2.9-.5 5.4-1.6 7.6-1.1 2.2-2.7 3.8-4.9 5-2.2 1.2-5 1.8-8.3 1.8h-9.8zm5.2-4.5h4.3c2.4 0 4.3-.4 5.7-1.2 1.4-.8 2.4-1.9 3-3.4.6-1.5.9-3.2.9-5.3 0-2.1-.3-3.8-.9-5.3-.6-1.5-1.6-2.6-3-3.4-1.4-.8-3.3-1.2-5.7-1.2h-4.3v19.8zm36.5 5c-2.9 0-5.4-.6-7.5-1.9s-3.7-3-4.8-5.2c-1.1-2.2-1.7-4.8-1.7-7.8 0-2.9.6-5.5 1.7-7.8s2.7-4 4.8-5.3c2.1-1.3 4.6-1.9 7.5-1.9 3.5 0 6.3.9 8.5 2.6 2.2 1.7 3.6 4.1 4.1 7.2h-5.8c-.4-1.6-1.1-2.8-2.3-3.7-1.2-.9-2.7-1.3-4.6-1.3-2.7 0-4.8.9-6.3 2.7-1.5 1.8-2.3 4.3-2.3 7.5s.8 5.6 2.3 7.4 3.6 2.7 6.3 2.7c1.9 0 3.5-.4 4.6-1.3 1.2-.8 1.9-2 2.3-3.5h5.8c-.5 3-1.9 5.3-4.1 7-2.2 1.8-5.1 2.6-8.5 2.6zm26 0c-1.9 0-3.6-.3-5.1-1-1.5-.7-2.8-1.7-3.7-3.1-.9-1.4-1.4-3.2-1.5-5.3h5.2c0 1.4.5 2.6 1.4 3.5.9.9 2.1 1.4 3.8 1.4 1.5 0 2.7-.4 3.5-1.3.8-.9 1.2-1.9 1.2-3.2 0-1.5-.5-2.7-1.6-3.4-1.1-.8-2.5-1.2-4.2-1.2h-2.1v-4.3h2.2c1.4 0 2.6-.3 3.5-1 .9-.7 1.4-1.6 1.4-2.9 0-1.1-.4-1.9-1.1-2.6-.7-.6-1.7-1-2.9-1-1.3 0-2.4.4-3.2 1.2-.8.8-1.2 1.8-1.3 2.9h-5.1c.1-2.7 1-4.8 2.8-6.3 1.7-1.5 4-2.3 6.8-2.3 2 0 3.6.4 5 1.1 1.4.7 2.4 1.6 3.1 2.8.7 1.2 1.1 2.4 1.1 3.8 0 1.6-.4 3-1.3 4.1-.9 1.1-2 1.9-3.3 2.2 1.6.3 2.9 1.1 4 2.4 1 1.2 1.5 2.8 1.5 4.7 0 1.6-.4 3-1.2 4.4-.8 1.3-1.9 2.4-3.4 3.2-1.5.8-3.3 1.2-5.5 1.2z" fill="#50c9ef"/><path d="M118.7 129.4c-3 0-5.7-.5-8-1.6-2.3-1-4.2-2.5-5.5-4.5-1.3-1.9-2-4.3-2.1-7.1h8c.1 1.9.8 3.6 2.1 4.9 1.3 1.3 3.1 2 5.5 2 2 0 3.6-.5 4.8-1.4 1.2-1 1.8-2.3 1.8-3.9 0-1.7-.5-3-1.6-4-1-.9-2.4-1.7-4.2-2.3-1.7-.6-3.6-1.2-5.6-1.9-3.2-1.1-5.6-2.5-7.3-4.3-1.7-1.7-2.5-4-2.5-6.9 0-2.4.5-4.5 1.7-6.3 1.2-1.8 2.8-3.1 4.9-4.1 2.1-1 4.5-1.4 7.2-1.4 2.8 0 5.2.5 7.3 1.5 2.1 1 3.8 2.4 5 4.1 1.2 1.8 1.8 3.9 1.9 6.3H124c0-1.5-.6-2.7-1.7-3.9-1.1-1.1-2.6-1.7-4.5-1.7-1.7 0-3 .4-4.2 1.2-1.1.8-1.7 2.1-1.7 3.7 0 1.4.4 2.5 1.3 3.3.9.8 2 1.5 3.5 2 1.5.6 3.2 1.1 5.1 1.8 2 .7 3.9 1.5 5.6 2.5 1.7.9 3 2.2 4.1 3.7 1 1.6 1.5 3.6 1.5 6 0 2.2-.6 4.2-1.7 6-1.1 1.9-2.7 3.3-4.9 4.5-1.9 1.3-4.6 1.8-7.7 1.8zm17.5-.7l15.1-41.3h8.5l15.1 41.3h-8l-3.3-9.6h-16.1l-3.4 9.6h-7.9zm13.4-15.4h12l-6-17.2-6 17.2zm29.7 15.4V87.4h7.6v41.3h-7.6zm14.7 0V87.4h7.6v35.4h18.3v5.9H194z"/></svg>