<?xml version="1.0" encoding="UTF-8"?>
<!-- Generator: Adobe Illustrator 27.6.1, SVG Export Plug-In . SVG Version: 6.00 Build 0)  -->
<svg xmlns="http://www.w3.org/2000/svg" xmlns:xlink="http://www.w3.org/1999/xlink" version="1.1" id="Layer_1" x="0px" y="0px" width="5482.1px" height="1243.6px" viewBox="0 0 5482.1 1243.6" style="enable-background:new 0 0 5482.1 1243.6;" xml:space="preserve">
<style type="text/css">
	.st0{fill:#2F6EAE;}
	.st1{fill:#083044;}
	.st2{fill-rule:evenodd;clip-rule:evenodd;fill:#083044;}
</style>
<g>
	<g>
		<path class="st0" d="M610,89.5L524.6,4.1c-5.4-5.4-14.1-5.4-19.5,0l-85.3,85.3c-5.4,5.4-5.4,14.1,0,19.5l85.4,85.4    c5.4,5.4,14.1,5.4,19.5,0L610,109C615.4,103.6,615.4,94.9,610,89.5z"></path>
		<path class="st0" d="M609.7,1134.8l-85.4-85.4c-5.4-5.4-14.1-5.4-19.5,0l-85.3,85.3c-5.4,5.4-5.4,14.1,0,19.5l85.4,85.4    c5.4,5.4,14.1,5.4,19.5,0l85.3-85.3C615.1,1148.8,615.1,1140.1,609.7,1134.8z"></path>
		<path class="st1" d="M1029.1,617.8c-3.4-75.2-43.3-152.6-120.6-229.9L761.2,240.6c-23.2-23.2-45.8-37-71.3-35.9    c-25.1,1.1-49.7,16.9-77.1,44.3c-114.5,114.1-227,226.2-341,341c-25.8,25.8-20.4,44.4,13.2,78l47.9,47.9    c5.9,5.9,15.6,5.8,21.7-0.3l324.8-324.8c4.8-4.8,9.4-6.5,13.2-6.6c3.9-0.1,7.7,1.3,11,4.7l102,102c41.3,41.3,63.3,78.9,69.7,113.2    c0.8,4.3,1.4,8.7,1.7,13c2.6,36.3-12.6,71-45.4,104.8c-0.9,0.9-1.7,1.9-2.6,2.8L575.3,978.4c-6,6-6.2,15.8-0.3,21.7l83.6,83.6    c5.9,5.9,15.6,5.8,21.7-0.3L934,829.7C999.1,764.7,1032.5,693.2,1029.1,617.8L1029.1,617.8z"></path>
		<path class="st1" d="M0.2,625.7c3.4,75.2,38.1,147.4,115.4,224.7L268,1002.8c23.2,23.2,45.8,37.1,71.3,35.9    c25.1-1.1,49.7-16.9,77.1-44.3c114.5-114.1,227-226.2,341-341c25.8-25.8,20.4-44.4-13.2-78l-47.8-47.8c-5.9-5.9-15.6-5.8-21.7,0.3    L349.9,852.7c-4.8,4.8-9.4,6.5-13.2,6.6c-3.9,0.1-7.7-1.3-11-4.7L218.6,747.5c-41.3-41.3-58.2-73.7-64.6-108    c-0.8-4.3-1.4-8.7-1.7-13c-2.6-36.3,12.6-71,45.4-104.8c0.9-0.9,1.7-1.9,2.6-2.8L454,265.2c6-6,6.2-15.8,0.3-21.7l-83.6-83.6    c-5.9-5.9-15.6-5.8-21.7,0.3L95.2,413.8C30.2,478.8-3.2,550.2,0.2,625.7L0.2,625.7z"></path>
	</g>
	<path class="st2" d="M5249.1,332.5h-109c-70.9,0-129.6,21.5-170.3,66.5c-40.7,44.8-62.6,111.6-62.6,199.9s21.9,155.2,62.6,199.9   c40.9,44.9,99.5,66.5,170.3,66.5h109c70.5,0,129-21.5,170-66.5c40.9-44.8,63-111.6,63-200s-22.1-155.2-63-200   c-40.9-44.9-99.6-66.5-170-66.5V332.5z M5149.9,448.5h89.5c43.3,0,73,11.4,92.2,34.5c19.4,23.5,29.4,60.9,29.4,116.1   c0,55.2-10,92.3-29.4,115.6c-19.1,23-48.9,34.1-92.2,34.1h-89.5c-43.9,0-73.6-11.1-92.6-34.1c-19.3-23.3-29.2-60.3-29.2-115.6   c0-55.2,9.7-92.6,29.2-116.1C5076.3,459.8,5106.1,448.5,5149.9,448.5z"></path>
	<path class="st1" d="M4701.2,344.5c0-6.7,5.4-12.1,12.1-12.1h95.8c6.7,0,12.1,5.4,12.1,12.1v508.8c0,6.7-5.4,12.1-12.1,12.1h-95.8   c-6.7,0-12.1-5.4-12.1-12.1V344.5z"></path>
	<path class="st2" d="M4227.4,332.4h-106.6c-64,0-114.2,18.7-148.2,57.5c-33.9,38.8-50.4,96.3-50.4,171.6v499.6   c0,6.8,5.6,12.4,12.4,12.4h95.3c6.9,0,12.3-5.6,12.3-12.4V879.3c0-6.8,2.1-9,3.8-10.8c2.5-2.5,5-3.5,10.5-3.5h170.8   c70.4,0,128.9-21.8,169.5-66.7c40.6-44.8,62.5-111.5,62.5-199.8s-21.9-155.2-62.5-199.8c-40.7-44.9-99-66.5-169.5-66.5   L4227.4,332.4z M4042.3,735.8V566.3c0-43.9,8-73,24.7-91.1c16.4-18,43-27.1,84.3-27.1h65.3c43.9,0,73.6,11.4,92.6,34.5   c19.3,23.5,29.1,60.9,29.1,116.1s-9.7,92.3-29.1,115.5c-19,23-48.7,34.1-92.6,34.1h-161.5C4048.2,748.2,4042.3,743.7,4042.3,735.8z   "></path>
	<path class="st2" d="M3621.5,332.5h-108.8c-70.8,0-129.4,21.5-170,66.5c-40.7,44.8-62.5,111.6-62.5,199.9s21.8,155.2,62.5,199.9   c40.8,44.9,99.3,66.5,170,66.5h108.8c70.3,0,128.8-21.5,169.7-66.5c40.8-44.8,62.9-111.6,62.9-200s-22.1-155.2-62.9-200   c-40.8-44.9-99.4-66.5-169.7-66.5V332.5z M3522.5,448.5h89.3c43.2,0,72.9,11.4,92,34.5c19.4,23.5,29.4,60.9,29.4,116.1   c0,55.2-10,92.3-29.4,115.6c-19.1,23-48.8,34.1-92,34.1h-89.3c-43.8,0-73.5-11.1-92.4-34.1c-19.3-23.3-29.1-60.3-29.1-115.6   c0-55.2,9.7-92.6,29.1-116.1C3449,459.8,3478.7,448.5,3522.5,448.5z"></path>
	<path class="st2" d="M3300.3,353.2c8-7.7,2.6-20.9-8.3-20.9h-178.5c-52.1,0-90,12-114.4,39.1c-24.3,27-34,67-34,119.7v362.1   c0,6.9,5.6,12.1,12.1,12.1h95.9c6.9,0,12.1-5.6,12.1-12.1V506.8c0-21.4,5-35.7,13.7-44.5c8.9-8.8,23-14,45-14l82.1,1.1   c4.1,0,8.4-2.4,9.7-6.1c3-9.2,14.8-34.1,26-49.2C3272.9,378.9,3279.2,371,3300.3,353.2z"></path>
	<path class="st2" d="M2710.6,332.5h-167.9c-66.2,0-113.8,18.5-144.6,50.9c-30.8,32.2-44,77.2-44,127.4V687   c0,50.2,13.1,95.2,44,127.4c30.8,32.4,78.4,50.9,144.6,50.9c0,0,304.8,0,312.6,0s12.4-5.6,12.4-12.4v-92c0-6.8-5.6-12.4-12.4-12.4   h-313.5c-27.1,0-44.7-7.1-55.5-18c-10.8-10.8-16.1-26.4-16.1-45.5v-17c0-5.6,4.4-12.3,12.6-12.3h226.6c64.7,0,110.9-13.6,141-40.8   c30.3-27.4,42.7-67.2,42.7-116c0-51.2-13.4-93.3-43.8-122.5c-30.4-29.1-76.4-44.1-138.9-44.1L2710.6,332.5z M2469.2,547.8v-36   c0-19,5.3-35.1,16.7-46.7c11.3-11.4,29.4-19,56.8-19h166.9c24.6,0,41.2,6.1,51.8,16c10.4,9.8,15.8,24.3,15.8,42.7   s-4.9,31.5-15.3,40.7c-10.6,9.3-28,15-55.4,15h-224.2c-7.3,0-13.1-5.1-13.1-13V547.8z"></path>
	<path class="st2" d="M1945.2,344c0-6.9,5.6-12.1,12.1-12.1h70.5c6.3,0,11.7-4,12.8-10.3c0-0.7,0.1-1.4,0.1-2.1v-81.8c0,0,0-0.7,0-1   v-14.8c0-6.9,5.6-12.4,12.4-12.4h96.2c6.9,0,12.4,5.6,12.4,12.4v97.8c0,6.7,4.7,12.4,12.4,12.4h118.6c6.8,0,12.4,5.1,12.4,12v88   c0,6.9-5.6,12.4-12.4,12.4h-118.6c-7,0-12.4,5.4-12.4,12.4V685c0,28.3,5.1,45.1,14.3,55c9,9.7,23.7,14.4,47.4,14.4h69.2   c6.9,0,12.4,5.6,12.4,12.4V853c0,6.9-5.6,12.4-12.4,12.4h-90.8c-54.2,0-95.3-10.9-122.6-41.1c-27-30-38.5-77.1-38.5-145.2V543.7   c0-59.7-19.2-147.4-89.2-189C1947.1,352,1945.2,347.8,1945.2,344z"></path>
	<path class="st1" d="M1685.6,332.4c-69.3,0-168.8,0-168.8,0c-26.7,0-47.6,5-61.6,20c-13.8,14.8-19,37.5-19,68.3v432.6   c0,6.8,5.2,12.1,12.1,12.1h95.8c7.2,0,12.3-4.9,12.3-12.1V463.8c0-5.3,1.9-9.6,4.1-11.8s4.7-3.8,12.1-3.8h114.8   c137.2,0,149.8,69.9,149.8,112.6s0,292.3,0,292.3c0,6.8,5.2,12.1,12.1,12.1h97.6c6.8,0,12.4-5.6,12.4-12.4V589   c0-22.5,4.7-122.7-55.7-183.1C1838.6,341,1754.9,332.4,1685.6,332.4z"></path>
	<path class="st1" d="M1234.2,344.5c0-6.7,5.4-12.1,12.1-12.1h95.8c6.7,0,12.1,5.4,12.1,12.1v508.8c0,6.7-5.4,12.1-12.1,12.1h-95.8   c-6.7,0-12.1-5.4-12.1-12.1V344.5z"></path>
	<path class="st0" d="M4701.2,166.5c0-6.2,5-11.2,11.2-11.2h97.7c6.2,0,11.2,5,11.2,11.2v97.6c0,6.2-5,11.2-11.2,11.2h-97.7   c-6.2,0-11.2-5-11.2-11.2V166.5z"></path>
	<path class="st0" d="M1234.2,166.5c0-6.2,5-11.2,11.2-11.2h97.7c6.2,0,11.2,5,11.2,11.2v97.6c0,6.2-5,11.2-11.2,11.2h-97.7   c-6.2,0-11.2-5-11.2-11.2V166.5z"></path>
	<path class="st0" d="M4495.2,756.5c0-6.2,5-11.2,11.2-11.2h97.7c6.2,0,11.2,5,11.2,11.2v97.6c0,6.2-5,11.2-11.2,11.2h-97.7   c-6.2,0-11.2-5-11.2-11.2V756.5z"></path>
</g>
</svg>
