<?xml version="1.0" encoding="UTF-8"?>
<svg id="Layer_1" data-name="Layer 1" xmlns="http://www.w3.org/2000/svg" xmlns:xlink="http://www.w3.org/1999/xlink" viewBox="0 0 864 193.0903">
  <g id="type">
    <path id="type_CompoundPathItem_" data-name="type &amp;lt;CompoundPathItem&amp;gt;" d="m203.9284,42.1398v-19.4084h19.409v19.4084h-19.409Zm-.165,94.2975V55.2991h19.4081v81.1381h-19.4081Z" style="fill: #1a2a34; stroke-width: 0px;"/>
    <a xlink:href="84.958431372549">
      <path id="type_PathItem_" data-name="type &amp;lt;PathItem&amp;gt;" d="m237.1076,136.4373V55.2988h17.6394l1.7696,7.8526h.7933c2.3475-2.5624,5.7533-4.8108,10.1832-6.7284,4.4308-1.9177,9.3241-2.8931,14.6807-2.8931,6.9433,0,13.1428,1.4714,18.5986,4.414,5.4549,2.9426,9.7036,7.2079,12.7461,12.8288,3.0416,5.6208,4.5624,12.2169,4.5624,19.805v45.8595h-20.0364v-43.2966c0-4.1666-.86-7.7703-2.5629-10.8287-1.7191-3.0419-4.1162-5.4225-7.2074-7.1418-3.1083-1.7027-6.4636-2.5624-10.1011-2.5624-3.8521,0-7.4066.8762-10.6628,2.6451-3.2571,1.7689-5.7695,4.1991-7.5391,7.2906-1.7687,3.1078-2.645,6.629-2.645,10.5802v43.2975h-20.2014l-.0171.0163Z" style="fill: #1a2a34; stroke-width: 0px;"/>
    </a>
    <a xlink:href="84.958431372549">
      <path id="type_PathItem_-2" data-name="type &amp;lt;PathItem&amp;gt;" d="m352.8151,136.4373c-6.5304,0-11.5228-1.6525-14.9944-4.9753-3.4716-3.3066-5.207-7.9691-5.207-13.9532V38.9988h19.4081v16.2839h18.4498v18.2843h-18.4498v39.9247c0,1.8183.43,3.157,1.2891,4.017.86.86,2.1825,1.2892,4.0008,1.2892h13.1428v17.6394h-17.6394Z" style="fill: #1a2a34; stroke-width: 0px;"/>
    </a>
    <path id="type_CompoundPathItem_-2" data-name="type &amp;lt;CompoundPathItem&amp;gt;" d="m418.1161,138.2068c-8.0178,0-15.309-1.8516-21.8881-5.5387-6.5799-3.6862-11.7382-8.7453-15.474-15.1594-3.7366-6.4149-5.6208-13.6386-5.6208-21.6573s1.8679-15.1263,5.6208-21.6563c3.7358-6.5136,8.9274-11.6054,15.5561-15.2258,6.6295-3.637,14.0028-5.4554,22.1368-5.4554s14.8782,1.7688,21.2427,5.2901c6.3653,3.5213,11.3911,8.3652,15.0773,14.515,3.687,6.1499,5.5387,12.9614,5.5387,20.45,0,1.9175-.0829,3.6862-.2488,5.2899-.165,1.6037-.347,2.7279-.5616,3.3725h-64.623c.5292,3.7366,1.9012,7.0595,4.0837,9.9362,2.1816,2.8929,4.9428,5.1249,8.2657,6.7278,3.3058,1.6037,6.8937,2.4142,10.7457,2.4142,4.5958,0,8.4974-.86,11.704-2.5629,3.2075-1.7029,5.6703-3.7358,7.3733-6.1004h20.6819c-1.6038,4.282-4.1171,8.3162-7.5391,12.1015-3.422,3.8025-7.8358,6.9432-13.2248,9.4566-5.4062,2.5125-11.6886,3.7691-18.8465,3.7691v.0333Zm22.6156-49.3978c-.43-3.4219-1.6533-6.5463-3.6871-9.3733-2.0329-2.8269-4.6454-5.1083-7.852-6.8111-3.2075-1.7028-6.7954-2.5626-10.7457-2.5626-4.282,0-8.0683.8267-11.3911,2.4798-3.3058,1.6532-6.0337,3.9015-8.1828,6.7285-2.1329,2.8269-3.5212,6.0176-4.1658,9.5386h46.0245Z" style="fill: #1a2a34; stroke-width: 0px;"/>
    <a xlink:href="84.958431372549">
      <path id="type_PathItem_-3" data-name="type &amp;lt;PathItem&amp;gt;" d="m472.803,136.4373V55.2992h16.8461l1.6037,7.0591h.8096c1.3892-2.1326,3.2904-3.8519,5.6875-5.1249,2.3971-1.2729,5.3728-1.9177,8.8941-1.9177h14.9115v18.2842h-13.4736c-5.2404,0-9.1916,1.3557-11.8699,4.0835-2.6775,2.7277-4.017,6.7119-4.017,11.9523v46.8187h-19.4081l.0162-.0171Z" style="fill: #1a2a34; stroke-width: 0px;"/>
    </a>
    <path id="type_CompoundPathItem_-3" data-name="type &amp;lt;CompoundPathItem&amp;gt;" d="m567.1994,138.206c-8.0178,0-15.3081-1.8183-21.8881-5.4558-6.58-3.6366-11.7545-8.712-15.5561-15.2252-3.8025-6.5141-5.6874-13.7378-5.6874-21.6573s1.9012-15.1263,5.6874-21.6564c3.7854-6.5136,8.9761-11.6053,15.5561-15.2258,6.58-3.637,13.8702-5.4555,21.8881-5.4555s15.474,1.8186,22.0539,5.4555c6.5791,3.637,11.7536,8.7122,15.5561,15.2258,3.7862,6.5301,5.6866,13.7378,5.6866,21.6564s-1.9003,15.1269-5.6866,21.6573c-3.8025,6.5132-8.977,11.6049-15.5561,15.2252-6.5799,3.6375-13.9198,5.4558-22.0539,5.4558Zm0-18.284c4.282,0,8.1837-1.0088,11.7049-3.0416,3.5212-2.0337,6.3807-4.8608,8.5794-8.4974,2.1987-3.6375,3.2904-7.8033,3.2904-12.5153s-1.0916-8.877-3.2904-12.5143c-2.1987-3.637-5.0583-6.464-8.5794-8.4974-3.5212-2.0334-7.4399-3.0419-11.7049-3.0419s-8.1999,1.025-11.787,3.0419c-3.5879,2.0334-6.4149,4.8604-8.4974,8.4974-2.0833,3.6373-3.1245,7.8031-3.1245,12.5143s1.0412,8.8778,3.1245,12.5153c2.0825,3.6366,4.9096,6.4637,8.4974,8.4974,3.5871,2.0329,7.5049,3.0416,11.787,3.0416Z" style="fill: #1a2a34; stroke-width: 0px;"/>
    <path id="type_CompoundPathItem_-4" data-name="type &amp;lt;CompoundPathItem&amp;gt;" d="m621.7384,168.5094V55.2988h17.1598l1.7696,9.4562h.8096c2.6783-3.422,6.2329-6.1499,10.6628-8.1832,4.4308-2.0334,9.4899-3.0419,15.1602-3.0419,7.0587,0,13.6053,1.7854,19.6398,5.3728,6.0337,3.5875,10.8287,8.5801,14.3499,14.9944,3.5212,6.4144,5.2899,13.7382,5.2899,21.9706s-1.7687,15.5569-5.2899,21.971c-3.5212,6.4141-8.3161,11.4074-14.3499,14.9944-6.0345,3.5879-12.5973,5.3729-19.6398,5.3729-5.5549,0-10.4815-.9917-14.7465-2.9587-4.282-1.9842-7.7041-4.4145-10.2661-7.2912h-.8104v40.5696h-19.7227l-.0163-.0162Zm42.5033-48.4224c4.1658,0,7.9683-1.0079,11.3903-3.0416s6.1499-4.8933,8.1837-8.5803c2.0337-3.6862,3.0416-7.8853,3.0416-12.5803s-1.025-8.8941-3.0416-12.581c-2.0338-3.6866-4.7616-6.5134-8.1837-8.4973-3.422-1.9838-7.2245-2.9592-11.3903-2.9592s-8.1332.992-11.539,2.9592c-3.422,1.9839-6.1499,4.8107-8.1837,8.4973-2.0329,3.687-3.0416,7.8861-3.0416,12.581s1.0087,8.8941,3.0416,12.5803c2.0338,3.6871,4.7616,6.5466,8.1837,8.5803s7.2741,3.0416,11.539,3.0416Z" style="fill: #1a2a34; stroke-width: 0px;"/>
    <a xlink:href="84.958431372549">
      <path id="type_PathItem_-4" data-name="type &amp;lt;PathItem&amp;gt;" d="m711.0603,136.2552v-19.4081h19.409v19.4081h-19.409Z" style="fill: #1a2a34; stroke-width: 0px;"/>
    </a>
    <path id="type_CompoundPathItem_-5" data-name="type &amp;lt;CompoundPathItem&amp;gt;" d="m744.1575,42.1398v-19.4084h19.409v19.4084h-19.409Zm-.165,94.2975V55.2991h19.4081v81.1381h-19.4081Z" style="fill: #1a2a34; stroke-width: 0px;"/>
    <path id="type_CompoundPathItem_-6" data-name="type &amp;lt;CompoundPathItem&amp;gt;" d="m820.6829,138.206c-8.0178,0-15.3081-1.8183-21.888-5.4558-6.58-3.6366-11.7545-8.712-15.5561-15.2252-3.8025-6.5141-5.6875-13.7378-5.6875-21.6573s1.9012-15.1263,5.6875-21.6564c3.7853-6.5136,8.9761-11.6053,15.5561-15.2258,6.5799-3.637,13.8702-5.4555,21.888-5.4555s15.474,1.8186,22.054,5.4555c6.5791,3.637,11.7536,8.7122,15.5526,15.2258,3.7871,6.5301,5.7105,13.7378,5.7105,21.6564s-1.9063,15.1269-5.7105,21.6573c-3.782,6.5132-8.9736,11.6049-15.5526,15.2252-6.58,3.6375-13.9199,5.4558-22.054,5.4558Zm0-18.284c4.2821,0,8.1837-1.0088,11.7049-3.0416,3.5212-2.0337,6.3807-4.8608,8.5795-8.4974,2.1996-3.6375,3.2904-7.8033,3.2904-12.5153s-1.0908-8.877-3.2904-12.5143c-2.1987-3.637-5.0583-6.464-8.5795-8.4974s-7.4399-3.0419-11.7049-3.0419-8.1999,1.025-11.7869,3.0419c-3.5879,2.0334-6.4141,4.8604-8.4974,8.4974-2.0833,3.6373-3.1246,7.8031-3.1246,12.5143s1.0412,8.8778,3.1246,12.5153c2.0833,3.6366,4.9095,6.4637,8.4974,8.4974,3.587,2.0329,7.5057,3.0416,11.7869,3.0416Z" style="fill: #1a2a34; stroke-width: 0px;"/>
  </g>
  <g id="logoMark">
    <a xlink:href="38.2407843137255">
      <path id="logoMark_PathItem_" data-name="logoMark &amp;lt;PathItem&amp;gt;" d="m112.9463,82.0642l-54.6201,54.6201-35.807-35.8071c-2.4205-2.4201-2.4205-6.326,0-8.7299l50.2467-50.247-14.5399-14.5398-1.3521,1.3521,1.1518-1.5524L7.8625,77.3233c-10.4833,10.4829-10.4833,27.494,0,37.9773l50.4636,50.4638,69.1597-69.1607-14.5396-14.5395Z" style="fill: #ff7d45; stroke-width: 0px;"/>
    </a>
    <a xlink:href="38.2407843137255">
      <path id="logoMark_PathItem_-2" data-name="logoMark &amp;lt;PathItem&amp;gt;" d="m85.6862,164.0111l-14.54,14.5396,14.54,14.5396,14.5396-14.5396-14.5396-14.5396Z" style="fill: #ff7d45; stroke-width: 0px;"/>
    </a>
    <a xlink:href="38.2407843137255">
      <path id="logoMark_PathItem_-3" data-name="logoMark &amp;lt;PathItem&amp;gt;" d="m85.587,0l-14.5401,14.5399,14.5401,14.5397,14.5396-14.5397L85.587,0Z" style="fill: #ff7d45; stroke-width: 0px;"/>
    </a>
    <a xlink:href="38.2407843137255">
      <path id="logoMark_PathItem_-4" data-name="logoMark &amp;lt;PathItem&amp;gt;" d="m163.1605,77.7068l-50.2134-50.3635L43.787,96.5037l14.5398,14.5396,54.6203-54.6205,35.8071,35.8073c2.4201,2.4201,2.4201,6.326,0,8.7299l-50.2467,50.2467,14.5396,14.5405,34.1375-34.1384,15.9587-15.9587c10.4833-10.4833,10.4833-27.4601.0171-37.9602h-.0171l.0171.0168Z" style="fill: #ff7d45; stroke-width: 0px;"/>
    </a>
  </g>
</svg>