<svg width="956" height="248" viewBox="0 0 956 248" fill="none" xmlns="http://www.w3.org/2000/svg">
<path d="M518.344 120.312V123.125H492.281V140.938H517.281V143.75H492.281V162.188H518.781V165H489V120.312H518.344ZM562.844 160.188C566.156 161.312 569.208 161.875 572 161.875C580.479 161.875 584.719 157.156 584.719 147.719C584.719 139.323 580.5 135.125 572.062 135.125C569.146 135.125 566.073 135.375 562.844 135.875V160.188ZM559.562 133.531C563.292 132.635 567.479 132.188 572.125 132.188C582.646 132.188 587.906 137.385 587.906 147.781C587.906 159.26 582.615 165 572.031 165C569.406 165 566.344 164.479 562.844 163.438V176.875H559.562V133.531ZM600.281 120.312V165H597V120.312H600.281ZM609.062 155.719C609.062 149.198 613.396 145.938 622.062 145.938C625.125 145.938 628.396 146.146 631.875 146.562V142.531C631.875 137.51 628.719 135 622.406 135C619.031 135 615.573 135.521 612.031 136.562V133.75C615.573 132.708 619.031 132.188 622.406 132.188C630.906 132.188 635.156 135.583 635.156 142.375V165H633.156L632.406 161.75C628.302 163.917 624.323 165 620.469 165C612.865 165 609.062 161.906 609.062 155.719ZM622.062 148.75C615.583 148.75 612.344 151.042 612.344 155.625C612.344 160 615.052 162.188 620.469 162.188C624.469 162.188 628.271 161.125 631.875 159V149.375C628.396 148.958 625.125 148.75 622.062 148.75ZM649.406 120.312V124.062H645.5V120.312H649.406ZM649.094 132.188V165H645.812V132.188H649.094ZM659.75 165V132.188H662.094L662.5 136.375C666.688 133.583 670.792 132.188 674.812 132.188C682.792 132.188 686.781 135.635 686.781 142.531V165H683.5V142.438C683.5 137.562 680.552 135.125 674.656 135.125C670.719 135.125 666.844 136.51 663.031 139.281V165H659.75ZM710.031 132.188C719.01 132.188 723.5 137.156 723.5 147.094C723.5 147.802 723.479 148.542 723.438 149.312H698.531C698.531 157.896 703.073 162.188 712.156 162.188C715.885 162.188 719.198 161.667 722.094 160.625V163.438C719.198 164.479 715.885 165 712.156 165C700.885 165 695.25 159.406 695.25 148.219C695.25 137.531 700.177 132.188 710.031 132.188ZM698.531 146.375H720.344C720.219 138.75 716.781 134.938 710.031 134.938C702.74 134.938 698.906 138.75 698.531 146.375ZM755.844 137C752.677 135.875 749.385 135.312 745.969 135.312C737.906 135.312 733.875 139.448 733.875 147.719C733.875 157.281 737.906 162.062 745.969 162.062C749.385 162.062 752.677 161.656 755.844 160.844V137ZM759.125 163.031C755.562 164.344 751.073 165 745.656 165C735.469 165 730.375 159.312 730.375 147.938C730.375 137.438 735.562 132.188 745.938 132.188C749.188 132.188 752.49 132.708 755.844 133.75V120.312H759.125V163.031Z" fill="#D1DAE0"/>
<path d="M536.844 148.594L524.094 132.188H528L538.781 146.062L549.562 132.188H553.469L540.75 148.594L553.469 165H549.562L538.781 151.125L528 165H524.094L536.844 148.594Z" fill="#219EBC"/>
<line x1="483.61" y1="216.687" x2="656.61" y2="0.687425" stroke="url(#paint0_radial)"/>
<line y1="-0.5" x2="276.74" y2="-0.5" transform="matrix(-0.625136 -0.780516 -0.780516 0.625136 618 248)" stroke="url(#paint1_radial)"/>
<path fill-rule="evenodd" clip-rule="evenodd" d="M36.6329 48.3244C17.8998 58.9506 2.57267 67.7327 2.57267 67.8402C2.57267 67.9865 63.1038 102.871 64.0049 103.244C64.0988 103.282 64.604 102.898 65.1274 102.389C66.3556 101.196 68.1949 100.273 69.8357 100.027C72.2458 99.6656 74.8083 100.552 76.6817 102.395C77.47 103.171 77.7083 103.326 77.9169 103.2C78.0591 103.114 91.9418 95.1524 108.767 85.508C125.593 75.8633 139.359 67.9152 139.359 67.8452C139.359 67.6797 71.1895 28.9946 70.9075 29C70.7895 29.0022 55.3659 37.6982 36.6329 48.3244ZM384.249 67.2419C378.668 67.8533 374.16 69.1728 369.502 71.5587C361.231 75.7951 354.746 82.7163 351.071 91.2283C349.527 94.8064 348.47 98.7393 347.998 102.662C347.689 105.235 347.689 110.662 347.998 113.225C349.424 125.067 355.804 135.56 365.466 141.958C370.514 145.301 376.178 147.453 382.145 148.293C385.311 148.739 392.364 148.694 395.62 148.208C404.652 146.859 411.643 143.314 418.66 136.525C419.625 135.592 420.414 134.752 420.414 134.659C420.414 134.566 418.396 132.487 415.931 130.04L411.448 125.59L410.202 126.686C407.255 129.279 402.67 132.394 400.083 133.56C394.301 136.166 386.446 136.531 380.467 134.472C373.939 132.224 368.823 127.676 365.689 121.334C360.395 110.62 361.968 97.1136 369.507 88.5538C373.214 84.3445 378.692 81.2632 384.171 80.3042C387.322 79.7528 391.514 79.8559 394.831 80.5663C399.738 81.6171 404.602 84.3228 410.253 89.1454C410.634 89.471 410.982 89.66 411.056 89.5821C411.128 89.5067 413.166 87.181 415.584 84.414L419.981 79.383L418.989 78.4801C412.08 72.1878 404.743 68.7057 395.766 67.4587C393.65 67.1649 386.229 67.0252 384.249 67.2419ZM430.079 72.1074V77.1384H440.483H450.887L444.591 83.3923L438.295 89.6462L439.223 93.3382L440.151 97.0301L443.805 97.1343C446.537 97.2123 447.853 97.3184 449.018 97.5549C452.083 98.1767 454.252 99.6784 455.023 101.713C455.307 102.463 455.351 102.847 455.301 104.151C455.228 106.06 454.798 107.11 453.626 108.244C452.083 109.737 450.081 110.346 447.148 110.216C443.046 110.034 440.025 108.654 436.699 105.446L435.136 103.937L431.126 107.731C428.921 109.818 427.117 111.604 427.117 111.7C427.117 112.02 430.451 115.125 431.84 116.098C436.227 119.173 441.661 120.793 447.584 120.791C453.749 120.79 458.509 119.108 462.035 115.683C463.559 114.204 464.423 113.008 465.313 111.149C466.906 107.819 467.419 103.45 466.645 99.797C465.452 94.1629 461.22 90.3862 454.374 88.8461L452.871 88.508L459.557 82.1699L466.243 75.8318V71.454V67.0765H448.161H430.079V72.1074ZM188.306 107.866V147.263H195.243H202.179V131.241V115.219H222.21H242.241V108.95V102.68H222.21H202.179V91.8444V81.0084H224.782H247.385V74.739V68.4697H217.845H188.306V107.866ZM262.506 107.866V147.275L280.081 147.223C297.307 147.172 297.699 147.165 299.761 146.831C309.22 145.304 317.201 141.399 323.389 135.272C326.436 132.255 328.501 129.369 330.484 125.358C333.242 119.779 334.42 114.52 334.42 107.789C334.42 101.01 333.253 95.803 330.483 90.219C324.736 78.6363 314.034 71.2248 299.683 68.8904C297.716 68.5703 297.143 68.5591 280.081 68.509L262.506 68.4571V107.866ZM0.0392822 110.136L0.0785644 148.73L34.1387 168.267C52.8718 179.013 68.2867 187.808 68.3938 187.813C68.5492 187.818 68.5886 180.584 68.5886 152.135V116.45L68.1903 116.299C64.6791 114.974 62.4589 112.003 62.4388 108.603L62.4313 107.328L32.0343 89.9004C15.316 80.3152 1.26903 72.2636 0.818691 72.0078L0 71.5426L0.0392822 110.136ZM110.833 89.2973C93.8142 99.0532 79.7367 107.134 79.5493 107.254C79.257 107.442 79.2288 107.543 79.3506 107.964C79.5334 108.597 79.2938 110.298 78.8725 111.36C78.0826 113.35 76.6309 114.866 74.5644 115.859L73.2651 116.484V152.242V188L73.7717 187.697C74.0504 187.53 89.395 178.736 107.871 168.155C126.347 157.573 141.551 148.837 141.659 148.741C141.814 148.602 141.846 140.742 141.814 110.063L141.775 71.5593L110.833 89.2973ZM296.984 81.3665C307.603 83.1279 315.107 89.3287 318.21 98.9068C319.717 103.558 319.982 109.468 318.908 114.445C316.831 124.06 310.049 131.13 300.506 133.63C296.9 134.574 296.359 134.614 286.005 134.683L276.535 134.747V107.864V80.9818L286.005 81.049C293.765 81.1041 295.747 81.1613 296.984 81.3665Z" fill="white"/>
<defs>
<radialGradient id="paint0_radial" cx="0" cy="0" r="1" gradientUnits="userSpaceOnUse" gradientTransform="translate(570.89 109.312) rotate(-49.9814) scale(123.803 34261.2)">
<stop offset="0.541667" stop-color="#219EBC"/>
<stop offset="1" stop-color="white" stop-opacity="0.08"/>
</radialGradient>
<radialGradient id="paint1_radial" cx="0" cy="0" r="1" gradientUnits="userSpaceOnUse" gradientTransform="translate(138.37 0.499563) rotate(1.32649) scale(123.803 34261.2)">
<stop offset="0.541667" stop-color="#219EBC"/>
<stop offset="1" stop-color="white" stop-opacity="0.08"/>
</radialGradient>
</defs>
</svg>
