<?xml version="1.0" encoding="UTF-8"?>
<svg width="1200pt" height="1200pt" version="1.1" viewBox="0 0 1200 1200" xmlns="http://www.w3.org/2000/svg">
 <g>
  <path fill="white" d="m895.48 359.68h-162.48v-34.008c0-46.855-37.785-84.641-84.641-84.641h-98.242c-46.855 0-84.641 37.785-84.641 84.641v34.008h-160.97c-18.137 0-32.496 14.359-32.496 32.496 0 18.137 14.359 32.496 32.496 32.496h36.273l36.273 504.06c1.5117 16.625 15.113 30.23 32.496 30.23h381.64c17.383 0 30.984-12.848 32.496-30.23l36.273-504.06h36.273c18.137 0 32.496-14.359 32.496-32.496 0.003906-18.137-15.109-32.496-33.25-32.496zm-364.25-34.008c0-10.578 9.0703-19.648 19.648-19.648h98.242c10.578 0 19.648 9.0703 19.648 19.648v34.008h-137.54zm229.74 568.3h-321.93l-33.25-469.3h388.44z"/>
 </g>
</svg>
