<?xml version="1.0" encoding="UTF-8"?>
<svg width="512pt" height="512pt" version="1.1" viewBox="0 0 512 512" xmlns="http://www.w3.org/2000/svg">
 <path fill="grey" d="m69.762 230.56h120.05c9.9023 0 19.398-3.9336 26.398-10.934 7.0039-7 10.938-16.496 10.938-26.398v-120.05c0-9.8984-3.9336-19.395-10.938-26.398-7-7-16.496-10.934-26.398-10.934h-120.05c-9.9023 0-19.398 3.9336-26.398 10.934-7.0039 7.0039-10.938 16.5-10.938 26.398v120.05c0 9.9023 3.9336 19.398 10.938 26.398 7 7 16.496 10.934 26.398 10.934zm-5.332-157.39h-0.003907c0-2.9453 2.3906-5.332 5.3359-5.332h120.05c1.4141 0 2.7734 0.5625 3.7734 1.5625s1.5625 2.3555 1.5625 3.7695v120.05c0 1.4141-0.5625 2.7695-1.5625 3.7695-1 1.0039-2.3594 1.5625-3.7734 1.5625h-120.05c-2.9453 0-5.3359-2.3867-5.3359-5.332zm-32 365.65-0.003907 0.003906c0 9.8984 3.9336 19.395 10.938 26.398 7 7 16.496 10.934 26.398 10.934h120.05c9.9023 0 19.398-3.9336 26.398-10.934 7.0039-7.0039 10.938-16.5 10.938-26.398v-120.05c0-9.9023-3.9336-19.398-10.938-26.398-7-7-16.496-10.934-26.398-10.934h-120.05c-9.9023 0-19.398 3.9336-26.398 10.934-7.0039 7-10.938 16.496-10.938 26.398zm32-120.05-0.003907 0.003907c0-2.9453 2.3906-5.332 5.3359-5.332h120.05c1.4141 0 2.7734 0.55859 3.7734 1.5625 1 1 1.5625 2.3555 1.5625 3.7695v120.05c0 1.4141-0.5625 2.7695-1.5625 3.7695s-2.3594 1.5625-3.7734 1.5625h-120.05c-2.9453 0-5.3359-2.3867-5.3359-5.332zm377.81-282.67-120.05 0.003907c-9.9023 0-19.398 3.9336-26.398 10.938-7.0039 7-10.938 16.496-10.938 26.398v119.79c0 9.9023 3.9336 19.398 10.938 26.398 7 7 16.496 10.934 26.398 10.934h120.05c9.9023 0 19.398-3.9336 26.398-10.934 7.0039-7 10.938-16.496 10.938-26.398v-120.05c0-9.8984-3.9336-19.395-10.938-26.398-7-7-16.496-10.934-26.398-10.934zm5.332 157.39v0.003907c0 1.4141-0.5625 2.7734-1.5625 3.7734s-2.3555 1.5625-3.7734 1.5625h-120.05c-2.9453 0-5.3359-2.3906-5.3359-5.3359v-120.32c0-2.9453 2.3906-5.332 5.3359-5.332h120.05c1.418 0 2.7734 0.5625 3.7734 1.5625s1.5625 2.3555 1.5625 3.7695zm-5.332 88.215-120.05 0.003906c-9.9023 0-19.398 3.9336-26.398 10.934-7.0039 7.0039-10.938 16.496-10.938 26.398v119.79c0 9.8984 3.9336 19.395 10.938 26.398 7 7 16.496 10.934 26.398 10.934h120.05c9.9023 0 19.398-3.9336 26.398-10.934 7.0039-7.0039 10.938-16.5 10.938-26.398v-120.05c0-9.9023-3.9336-19.398-10.938-26.398-7-7-16.496-10.934-26.398-10.934zm5.332 157.39v0.003906c0 1.4141-0.5625 2.7695-1.5625 3.7695s-2.3555 1.5625-3.7734 1.5625h-120.05c-2.9453 0-5.3359-2.3867-5.3359-5.332v-120.32c0-2.9453 2.3906-5.332 5.3359-5.332h120.05c1.418 0 2.7734 0.55859 3.7734 1.5625 1 1 1.5625 2.3555 1.5625 3.7695z"/>
</svg>
