<?xml version="1.0" encoding="UTF-8"?>
<svg width="512pt" height="512pt" version="1.1" viewBox="0 0 512 512" xmlns="http://www.w3.org/2000/svg">
 <path d="m256.06-0.015625c-141.2 0-256.06 114.77-256.06 255.97s114.87 256.06 256.06 256.06 255.94-114.87 255.94-256.06-114.74-255.97-255.94-255.97zm0 32.031c123.9 0 223.94 100.04 223.94 223.94s-100.04 224.03-223.94 224.03-224.06-100.13-224.06-224.03 100.16-223.94 224.06-223.94zm-96.844 80.531c-4.1289 0.16016-8.0352 1.9141-10.902 4.8906-2.8633 2.9766-4.4688 6.9453-4.4727 11.078v255c0.011719 5.5391 2.8867 10.68 7.6016 13.59 4.7148 2.9062 10.598 3.168 15.555 0.69141l255-127.44c3.5938-1.7695 6.3984-4.8203 7.8516-8.5547 1.4531-3.7344 1.4531-7.875 0-11.609-1.4531-3.7344-4.2578-6.7852-7.8516-8.5547l-255-127.44c-2.4141-1.1992-5.0898-1.7695-7.7812-1.6562zm16.656 41.812 203.12 101.59-203.12 101.69z" fill="#fff"/>
</svg>
