<svg width="330" height="45" viewBox="0 0 330 45" fill="none" xmlns="http://www.w3.org/2000/svg"><path d="M0 8a8 8 0 018-8h4.67v12.6H0V8zm16.165-8H37a8 8 0 018 8v4.6H16.165V0zM0 32.4h28.835V45H8a8 8 0 01-8-8v-4.6zm32.33 0H45V37a8 8 0 01-8 8h-4.67V32.4zm0-16.2H45v12.6H32.33z" fill="#004C79"/><path fill="#00CAF2" d="M16.165 16.2h12.67v12.6h-12.67z"/><path fill="#004C79" d="M0 16.2h12.67v12.6H0zm72.683 16.268c-1.482 0-2.756-.416-3.822-1.248-1.066-.832-1.599-2.132-1.599-3.9 0-2.08.975-3.653 2.925-4.719 1.95-1.092 5.005-1.872 9.165-2.34a9.739 9.739 0 00-.312-2.769c-.234-.91-.676-1.664-1.326-2.262-.624-.598-1.56-.897-2.808-.897-1.248 0-2.392.247-3.432.741s-1.885.975-2.535 1.443l-.78-1.287c.442-.312 1.014-.65 1.716-1.014a11.66 11.66 0 012.379-.975 9.57 9.57 0 012.886-.429c1.482 0 2.652.325 3.51.975.858.65 1.469 1.521 1.833 2.613.39 1.066.585 2.275.585 3.627V32h-1.482l-.156-2.418h-.117a21.426 21.426 0 01-3.12 2.028 7.608 7.608 0 01-3.51.858zm.312-1.482c1.066 0 2.093-.26 3.081-.78 1.014-.52 2.106-1.274 3.276-2.262v-6.357c-2.574.312-4.615.715-6.123 1.209-1.508.494-2.587 1.118-3.237 1.872a3.74 3.74 0 00-.975 2.574c0 1.352.39 2.314 1.17 2.886.806.572 1.742.858 2.808.858zm22.121 1.482c-2.366 0-4.25-.845-5.655-2.535-1.404-1.69-2.106-4.108-2.106-7.254 0-2.028.377-3.77 1.131-5.226.78-1.482 1.794-2.626 3.042-3.432a7.589 7.589 0 014.134-1.209c1.144 0 2.132.208 2.964.624.858.39 1.755.949 2.691 1.677l-.078-3.432V3.959h1.716V32h-1.482l-.156-2.418h-.117c-.754.754-1.65 1.43-2.69 2.028-1.015.572-2.146.858-3.394.858zm.234-1.521c1.04 0 2.028-.26 2.964-.78.962-.546 1.937-1.313 2.925-2.301V16.751c-.988-.884-1.924-1.508-2.808-1.872a6.727 6.727 0 00-2.652-.546 5.386 5.386 0 00-3.354 1.131c-.988.728-1.78 1.716-2.379 2.964-.572 1.248-.858 2.665-.858 4.251 0 2.47.533 4.472 1.6 6.006 1.065 1.508 2.586 2.262 4.562 2.262zm20.044 1.521c-1.482 0-2.756-.416-3.822-1.248-1.066-.832-1.599-2.132-1.599-3.9 0-2.08.975-3.653 2.925-4.719 1.95-1.092 5.005-1.872 9.165-2.34a9.739 9.739 0 00-.312-2.769c-.234-.91-.676-1.664-1.326-2.262-.624-.598-1.56-.897-2.808-.897-1.248 0-2.392.247-3.432.741s-1.885.975-2.535 1.443l-.78-1.287c.442-.312 1.014-.65 1.716-1.014a11.66 11.66 0 012.379-.975 9.57 9.57 0 012.886-.429c1.482 0 2.652.325 3.51.975.858.65 1.469 1.521 1.833 2.613.39 1.066.585 2.275.585 3.627V32h-1.482l-.156-2.418h-.117a21.426 21.426 0 01-3.12 2.028 7.608 7.608 0 01-3.51.858zm.312-1.482c1.066 0 2.093-.26 3.081-.78 1.014-.52 2.106-1.274 3.276-2.262v-6.357c-2.574.312-4.615.715-6.123 1.209-1.508.494-2.587 1.118-3.237 1.872a3.74 3.74 0 00-.975 2.574c0 1.352.39 2.314 1.17 2.886.806.572 1.742.858 2.808.858zm15.92 9.477V13.28h1.482l.156 2.34h.117a18.624 18.624 0 013.003-1.95c1.092-.572 2.21-.858 3.354-.858 2.496 0 4.368.871 5.616 2.613 1.248 1.716 1.872 4.03 1.872 6.942 0 2.106-.39 3.913-1.17 5.421-.754 1.508-1.755 2.665-3.003 3.471a7.398 7.398 0 01-4.095 1.209c-.884 0-1.794-.195-2.73-.585-.936-.416-1.898-.988-2.886-1.716v10.296h-1.716zm7.254-9.516c1.274 0 2.392-.364 3.354-1.092.988-.728 1.755-1.729 2.301-3.003.572-1.3.858-2.795.858-4.485 0-1.534-.195-2.899-.585-4.095-.39-1.222-1.027-2.184-1.911-2.886-.858-.702-2.002-1.053-3.432-1.053-.936 0-1.911.273-2.925.819-.988.52-2.054 1.274-3.198 2.262v11.115c1.066.884 2.067 1.508 3.003 1.872.962.364 1.807.546 2.535.546zm20.707 1.521c-2.028 0-3.445-.585-4.251-1.755-.78-1.17-1.17-2.691-1.17-4.563V15.659h-2.808v-2.418l2.964-.195.39-5.304h2.691v5.304h5.109v2.613h-5.109v10.53c0 1.17.208 2.08.624 2.73.442.624 1.209.936 2.301.936.338 0 .702-.052 1.092-.156l1.053-.351.624 2.418c-.52.182-1.092.338-1.716.468a7.082 7.082 0 01-1.794.234zm11.911 0c-1.586 0-2.912-.468-3.978-1.404-1.04-.962-1.56-2.288-1.56-3.978 0-2.08.923-3.666 2.769-4.758 1.872-1.118 4.823-1.898 8.853-2.34 0-.806-.117-1.573-.351-2.301a3.3 3.3 0 00-1.17-1.755c-.546-.468-1.339-.702-2.379-.702a7.679 7.679 0 00-3.081.624 15.03 15.03 0 00-2.574 1.404l-1.248-2.223c.884-.572 1.963-1.118 3.237-1.638 1.3-.546 2.704-.819 4.212-.819 2.314 0 3.991.715 5.031 2.145 1.04 1.404 1.56 3.289 1.56 5.655V32h-2.652l-.273-2.262h-.117a16.199 16.199 0 01-2.925 1.911 7.109 7.109 0 01-3.354.819zm.936-2.574c.91 0 1.768-.221 2.574-.663.806-.442 1.664-1.066 2.574-1.872v-5.265c-3.146.39-5.356.975-6.63 1.755-1.248.78-1.872 1.781-1.872 3.003 0 1.066.325 1.846.975 2.34.65.468 1.443.702 2.379.702zm23.903 2.574c-.884 0-1.807-.208-2.769-.624a10.845 10.845 0 01-2.652-1.794h-.117l-.273 1.95h-2.574V4.232h3.198v7.566l-.078 3.432a12.592 12.592 0 012.808-1.872c1.04-.52 2.08-.78 3.12-.78 2.47 0 4.342.871 5.616 2.613s1.911 4.082 1.911 7.02c0 2.158-.39 4.004-1.17 5.538-.754 1.534-1.755 2.704-3.003 3.51a7.147 7.147 0 01-4.017 1.209zm-.546-2.691c1.56 0 2.847-.663 3.861-1.989 1.04-1.352 1.56-3.198 1.56-5.538 0-2.08-.39-3.757-1.17-5.031-.754-1.3-2.028-1.95-3.822-1.95-.806 0-1.625.221-2.457.663-.832.442-1.703 1.079-2.613 1.911v9.945c.832.728 1.651 1.248 2.457 1.56.832.286 1.56.429 2.184.429zm18.281 2.691c-1.196 0-2.067-.364-2.613-1.092-.52-.754-.78-1.82-.78-3.198V4.232h3.198v24.18c0 .494.091.858.273 1.092.182.208.39.312.624.312h.273c.104-.026.247-.052.429-.078l.429 2.418a2.76 2.76 0 01-.741.234c-.286.052-.65.078-1.092.078zm15.4 0c-1.69 0-3.224-.39-4.602-1.17-1.378-.806-2.47-1.95-3.276-3.432-.806-1.482-1.209-3.25-1.209-5.304 0-2.08.403-3.861 1.209-5.343.832-1.482 1.898-2.626 3.198-3.432s2.665-1.209 4.095-1.209c2.418 0 4.277.806 5.577 2.418 1.326 1.612 1.989 3.77 1.989 6.474 0 .338-.013.676-.039 1.014 0 .312-.026.585-.078.819h-12.792c.13 2.002.754 3.601 1.872 4.797 1.144 1.196 2.626 1.794 4.446 1.794.91 0 1.742-.13 2.496-.39.78-.286 1.521-.65 2.223-1.092l1.131 2.106c-.806.52-1.729.975-2.769 1.365-1.014.39-2.171.585-3.471.585zm-5.967-11.466h10.14c0-1.924-.416-3.38-1.248-4.368-.806-1.014-1.95-1.521-3.432-1.521-1.326 0-2.522.52-3.588 1.56-1.04 1.014-1.664 2.457-1.872 4.329zm33.279 11.466c-1.82 0-3.055-.52-3.705-1.56-.65-1.066-.975-2.431-.975-4.095V14.762h-2.925v-1.326l2.964-.156.234-5.421h1.482v5.421h5.421v1.482h-5.421v12.207c0 1.196.208 2.158.624 2.886.416.728 1.261 1.092 2.535 1.092.364 0 .754-.052 1.17-.156.442-.13.832-.273 1.17-.429l.468 1.404c-.546.182-1.105.338-1.677.468-.546.156-1.001.234-1.365.234zm14.616 0a7.975 7.975 0 01-4.134-1.131c-1.274-.78-2.301-1.898-3.081-3.354-.78-1.482-1.17-3.25-1.17-5.304 0-2.106.39-3.887 1.17-5.343.78-1.482 1.807-2.6 3.081-3.354a7.774 7.774 0 014.134-1.17c1.508 0 2.899.39 4.173 1.17 1.274.754 2.301 1.872 3.081 3.354.78 1.456 1.17 3.237 1.17 5.343 0 2.054-.39 3.822-1.17 5.304-.78 1.456-1.807 2.574-3.081 3.354a8.046 8.046 0 01-4.173 1.131zm0-1.521c1.274 0 2.405-.351 3.393-1.053s1.768-1.664 2.34-2.886c.598-1.248.897-2.691.897-4.329 0-1.664-.299-3.12-.897-4.368-.572-1.248-1.352-2.223-2.34-2.925-.988-.702-2.119-1.053-3.393-1.053a5.825 5.825 0 00-3.393 1.053c-.988.702-1.768 1.677-2.34 2.925-.572 1.248-.858 2.704-.858 4.368 0 1.638.286 3.081.858 4.329.572 1.222 1.352 2.184 2.34 2.886a5.825 5.825 0 003.393 1.053zm22.041 1.521a7.975 7.975 0 01-4.134-1.131c-1.274-.78-2.301-1.898-3.081-3.354-.78-1.482-1.17-3.25-1.17-5.304 0-2.106.39-3.887 1.17-5.343.78-1.482 1.807-2.6 3.081-3.354a7.774 7.774 0 014.134-1.17c1.508 0 2.899.39 4.173 1.17 1.274.754 2.301 1.872 3.081 3.354.78 1.456 1.17 3.237 1.17 5.343 0 2.054-.39 3.822-1.17 5.304-.78 1.456-1.807 2.574-3.081 3.354a8.046 8.046 0 01-4.173 1.131zm0-1.521c1.274 0 2.405-.351 3.393-1.053s1.768-1.664 2.34-2.886c.598-1.248.897-2.691.897-4.329 0-1.664-.299-3.12-.897-4.368-.572-1.248-1.352-2.223-2.34-2.925-.988-.702-2.119-1.053-3.393-1.053a5.825 5.825 0 00-3.393 1.053c-.988.702-1.768 1.677-2.34 2.925-.572 1.248-.858 2.704-.858 4.368 0 1.638.286 3.081.858 4.329.572 1.222 1.352 2.184 2.34 2.886a5.825 5.825 0 003.393 1.053zm17.517 1.521c-1.534 0-2.301-.988-2.301-2.964V3.959h1.716v25.779c0 .806.273 1.209.819 1.209h.273c.104-.026.247-.052.429-.078l.312 1.404a4.093 4.093 0 01-.546.117 2.616 2.616 0 01-.702.078zm12.648 0c-1.378 0-2.665-.247-3.861-.741-1.17-.52-2.171-1.131-3.003-1.833l1.014-1.287c.806.65 1.664 1.209 2.574 1.677.91.468 2.041.702 3.393.702 1.456 0 2.561-.364 3.315-1.092.754-.754 1.131-1.625 1.131-2.613 0-.78-.234-1.43-.702-1.95a5.586 5.586 0 00-1.755-1.287 18.973 18.973 0 00-2.106-.897 36.366 36.366 0 01-2.769-1.131c-.884-.416-1.612-.949-2.184-1.599-.572-.676-.858-1.547-.858-2.613 0-1.378.507-2.548 1.521-3.51 1.04-.988 2.535-1.482 4.485-1.482a8 8 0 012.925.546c.962.364 1.781.832 2.457 1.404l-.936 1.209a11.37 11.37 0 00-2.028-1.17c-.702-.338-1.521-.507-2.457-.507-1.456 0-2.535.351-3.237 1.053-.676.702-1.014 1.482-1.014 2.34 0 .702.195 1.287.585 1.755.416.468.949.858 1.599 1.17.676.286 1.378.572 2.106.858.988.364 1.95.754 2.886 1.17.936.416 1.703.975 2.301 1.677.624.702.936 1.664.936 2.886a4.91 4.91 0 01-.741 2.613c-.494.78-1.209 1.417-2.145 1.911-.936.494-2.08.741-3.432.741z"/></svg>