<svg xmlns="http://www.w3.org/2000/svg" viewBox="0 0 893.1 129"><defs><style>.d{fill:#1c89ea}.e{fill:#606369}</style></defs><g id="b"><g id="c"><path class="e" d="M183.6 58.2L127.9 2.5C126.3.9 124.1 0 121.8 0s-4.6.9-6.2 2.5l-10.8 10.9c-.8.8-.9 2.1-.1 2.9l.1.1 7.7 7.8c.9.8 2.3.8 3.2 0l4.7-4.7c.8-.8 2.1-.9 2.9-.1l.1.1 43.4 43.4c.8.8.9 2.1.1 2.9l-.1.1-43.4 43.4c-.8.8-2.1.9-2.9.1l-.1-.1L77 65.9c-.8-.8-.9-2.1-.1-2.9l.1-.1 4.4-4.4c.8-.9.8-2.3 0-3.2l-7.8-7.7c-.8-.8-2.1-.9-2.9-.1l-.1.1L60 58.1c-3.4 3.4-3.4 9 0 12.4l55.7 55.7c1.7 1.7 3.9 2.6 6.2 2.6 2.3 0 4.5-1 6.1-2.6l55.7-55.7c3.4-3.3 3.5-8.8.1-12.2l-.1-.1z"/><path class="d" d="M2.6 70.6l55.7 55.7c1.7 1.7 3.9 2.6 6.2 2.6 2.3 0 4.5-1 6.1-2.6l10.9-10.8c.8-.9.8-2.3 0-3.2l-7.8-7.7c-.8-.8-2.1-.9-2.9-.1l-.1.1-4.7 4.7c-.8.8-2.1.9-2.9.1l-.1-.1L19.6 66c-.8-.8-.9-2.1-.1-2.9l.1-.1L63 19.6c.8-.8 2.1-.9 2.9-.1l.1.1L109.4 63c.8.8.9 2.1.1 2.9l-.1.1-4.4 4.4c-.8.8-.9 2.1-.1 2.9l.1.1 7.7 7.8c.9.8 2.3.8 3.2 0l10.5-10.6c3.4-3.3 3.5-8.8.1-12.2l-.1-.1L70.7 2.5C69 .9 66.8 0 64.5 0c-2.3 0-4.6.9-6.2 2.5L2.6 58.2c-3.4 3.4-3.4 9 0 12.4z"/><path class="e" d="M217.1 65c0-18.1 12.5-30.5 28.7-30.5S272 43.7 273 58.7l-7.7.5c-.7-10.7-7.5-17.8-19.4-17.8s-20.5 9.1-20.5 23.7 8.6 23.6 21.2 23.6 18.1-6.9 19.1-17h-17.9v-6.3h25.3v29h-7.4V84c-2.6 7.5-10.9 11.6-20 11.6-16.6 0-28.6-12.2-28.6-30.5zm74.6-29.3v58.7H284V35.7h7.7zm38.4 18h7.7v40.7h-7.7v-7.2c-2 4.8-7.2 8.3-13.3 8.3-10.6 0-14.5-7-14.5-16.5V53.6h7.7v24.6c0 6.8 3 11.2 9.4 11.2s10.7-4.8 10.7-12.4V53.6zm99.8 18.4H440v6.6h-10.1v15.7H422V78.7h-30.8v-7.6l29-35.4h9.8v36.4zm-31.8 0H422V42.9l-23.9 29.2zm88.2 15.3v7h-43.2v-4.7l16.6-14.3c9.2-8 16.1-14 16.1-22.6s-3.9-11.7-11.6-11.7-12.5 5.1-12.5 13.7.2 3.5.7 5.3l-8-.4c-.4-1.9-.7-3.7-.7-5.5 0-12 8.1-19.8 20.6-19.8s19.9 8 19.9 18-9 18.7-17.5 25.7l-11.1 9.1h30.7z"/><path class="d" d="M553 94.4h-41.8V35.7h41v6.7H519v18.5h26.4v6.6H519v20.2h34v6.7zm17.1 0h-7.7V53.7h7.7V61c2-4.9 7.5-8.4 13.5-8.4 10.6 0 14.9 7.1 14.9 16.6v25.3h-7.7V69.9c0-6.8-3.3-11.1-9.7-11.1s-11 4.8-11 12.3v23.4zm40.3-35.1h-6.2v-4.2l2.6-.5c3.8-.7 4.7-2.6 5.6-6.5l1.2-5.7h4.4v11.3h11.5v5.6H618V84c0 3.6 1.5 5.3 5 5.3s5.3-1.1 7.6-2.4v5.2c-3 2.2-6 3.4-10.4 3.4s-9.9-2.7-9.9-10.6V59.3zm97.6 2.1c-2.2-1.2-3.8-1.7-6.3-1.7-5.9 0-10.3 5.3-10.3 13.1v21.5h-7.7V53.7h7.7V62c1.5-4.7 5.7-9.4 11.6-9.4s4.4.7 5.8 1.9l-.7 7zm14.7 48.6H715V53.7h7.7v8.6c1.8-5 7-9.7 14.6-9.7 12 0 18.6 9.5 18.6 21.5s-6.6 21.4-18.6 21.4-12.9-4.6-14.6-9.6V110zm-.2-34.9c0 8.9 5.7 14.2 13 14.2s12.4-6 12.4-15.3-4.4-15.3-12.4-15.3-13 5.2-13 14.1v2.3zm66.3-13.7c-2.2-1.2-3.8-1.7-6.3-1.7-5.9 0-10.3 5.3-10.3 13.1v21.5h-7.7V53.7h7.7V62c1.5-4.7 5.7-9.4 11.6-9.4s4.4.7 5.8 1.9l-.7 7zm6.8-25.7h8v8.8h-8v-8.8zm7.9 18v40.7h-7.7V53.7h7.7zm14.6 26.5c.7 6.2 5.1 9.6 12.1 9.6s9.4-2 9.4-6.1-2.7-5.1-7.7-6.1l-6.9-1.2c-7.6-1.2-12.2-4.5-12.2-11.5s6.2-12.5 15.7-12.5 17.1 5 17.9 14.4l-6.2.4c-.9-6.2-4.8-9.1-11.6-9.1s-8.5 2.3-8.5 6.1 2.1 4.9 6.2 5.7l7.6 1.2c8.2 1.4 13 4.5 13 11.8s-7.2 12.5-16.7 12.5-17.9-4.8-18.6-14.8l6.5-.5z"/><path class="e" d="M379.5 81.2c-1.9 5.4-5.8 8.3-12.1 8.3s-13-5.6-13.3-13.5h32.4v-3.1c0-11.1-6.6-20.3-19.6-20.3s-20.6 9.2-20.6 22.1 8.9 20.9 21 20.9 16.1-4.9 18.6-13.1l-6.4-1.2zm-12.6-22.8c7.7 0 11.4 6 11.7 12.5h-24.3c.9-6.7 5.3-12.5 12.7-12.5z"/><path class="d" d="M668.2 81.2c-1.9 5.4-5.8 8.3-12.1 8.3s-13-5.6-13.3-13.5h32.4v-3.1c0-11.1-6.6-20.3-19.6-20.3S635 61.8 635 74.7s8.9 20.9 21 20.9 16.1-4.9 18.6-13.1l-6.4-1.2zm-12.6-22.8c7.7 0 11.4 6 11.7 12.5H643c.9-6.7 5.3-12.5 12.7-12.5zm230.5 22.8c-1.9 5.4-5.8 8.3-12.1 8.3s-13-5.6-13.3-13.5h32.4v-3.1c0-11.1-6.6-20.3-19.6-20.3s-20.6 9.2-20.6 22.1 8.9 20.9 21 20.9 16.1-4.9 18.6-13.1l-6.4-1.2zm-12.6-22.8c7.7 0 11.4 6 11.7 12.5h-24.3c.9-6.7 5.3-12.5 12.7-12.5z"/></g></g></svg>