<?xml version="1.0" encoding="UTF-8"?>
<svg width="1200pt" height="1200pt" version="1.1" viewBox="0 0 1200 1200" xmlns="http://www.w3.org/2000/svg">
 <g>
  <path fill="white" d="m832.59 890.86c17.059-3.6523 32.641-12.602 44.496-25.387v-39.773h-18.477c-23.797 0-23.797-36.195 0-36.195h18.477v-39.773c-11.898-12.863-27.422-21.727-44.496-25.387zm14.238-200.21c24.402-67.266 28.625-140.49 12.078-210.12l-42.176-23.812c-2.75-1.5352-5.125-3.8125-6.8086-6.7383-92.453-160.6-325.88-161.19-419.18-1.125-1.5547 3.2305-4.0781 6.0234-7.4453 7.9102l-42.191 23.77c-16.547 69.629-12.336 142.86 12.078 210.12 4.6406-1.2852 9.3906-2.3047 14.227-3.0352v-23.449c0-9.9883 8.1055-18.094 18.102-18.094h85.332c9.9883 0 18.094 8.1055 18.094 18.094v286.89c0 9.9883-8.1055 18.094-18.094 18.094h-85.332c-9.9961 0-18.102-8.1055-18.102-18.094v-23.449c-30.266-4.5703-57.52-20.406-76.645-44.324-2.6602-3.3203-3.9453-7.293-3.9375-11.238l-0.097657-64.426v-60.008c-38.059-72.926-48.422-154.27-33.57-230.73 32.375-166.62 178.53-286 346.85-286 168.34 0 314.46 119.38 346.85 286 14.852 76.457 4.4883 157.81-33.578 230.73v60.008l-0.089844 64.426c0 3.9453-1.2852 7.918-3.9375 11.238-19.129 23.922-46.387 39.754-76.656 44.324v23.449c0 9.9883-8.0977 18.094-18.094 18.094h-85.332c-9.9883 0-18.094-8.1055-18.094-18.094v-286.89c0-9.9883 8.1055-18.094 18.094-18.094h85.332c9.9961 0 18.094 8.1055 18.094 18.094v23.449c4.8477 0.73047 9.5938 1.75 14.238 3.0352zm53.367-186.86c10.523 67.828 3.5273 137.28-20.324 201.67 3.5078 2.2578 6.8984 4.6875 10.148 7.2852 26.922-60.66 33.473-126.67 21.352-189.09-1.0078-5.1953-2.1523-10.363-3.418-15.504l-7.7578-4.3633zm-152.93 429.17h49.145v-250.69h-49.145zm-447.46-429.17-7.7461 4.3633c-1.2656 5.1406-2.4102 10.309-3.418 15.504-12.129 62.418-5.5703 128.43 21.352 189.09 3.25-2.5977 6.6328-5.0234 10.148-7.2734-23.852-64.398-30.848-133.84-20.332-201.68zm23.117 245.95v39.773h18.477c23.797 0 23.797 36.195 0 36.195h-18.477v39.773c11.852 12.781 27.438 21.734 44.488 25.387v-166.51c-17.066 3.6602-32.59 12.531-44.488 25.387zm567.65-292.86c-50.582-115.66-164.7-189.82-290.56-189.82-125.86 0-239.99 74.164-290.56 189.82l52.012-29.293c107.72-179.43 369.38-179.42 477.1 0zm-486.96 476.08h49.137v-250.69h-49.137z"/>
 </g>
</svg>
