<?xml version="1.0" encoding="UTF-8"?>
<svg width="1200pt" height="1200pt" version="1.1" viewBox="0 0 1200 1200" xmlns="http://www.w3.org/2000/svg">
 <g>
  <path fill="white" d="m818.63 791.52 30.465-48.004c-172.26 25.02-346.99 30.992-520.55 17.809l17.422 30.195zm56.234-88.598 39.578-62.355c-208.69 40.746-422.06 53.234-634.2 37.113l26.277 45.512c189.46 16.414 380.54 9.5781 568.34-20.27zm-450.34-116.84c23.914 0 23.914 36.363 0 36.363h-10.629c-23.914 0-23.914-36.363 0-36.363zm181.6 0c23.914 0 23.914 36.363 0 36.363h-10.629c-23.914 0-23.914-36.363 0-36.363zm-60.535 0c23.914 0 23.914 36.363 0 36.363h-10.629c-23.914 0-23.914-36.363 0-36.363zm-60.535 0c23.922 0 23.922 36.363 0 36.363h-10.621c-23.914 0-23.914-36.363 0-36.363zm181.61 0c23.914 0 23.914 36.363 0 36.363h-10.629c-23.914 0-23.914-36.363 0-36.363zm-126.48-117.06v-78.977c0-23.914 36.363-23.914 36.363 0v78.977h13.719v-15.969c0-23.922 36.363-23.922 36.363 0v15.969h15.859c10.043 0 18.184 8.1406 18.184 18.184v36.758h63.953c10.031 0 18.172 8.1406 18.172 18.184v88.902c68.844-8.4062 137.39-19.887 205.4-34.426 15.637-3.9883 28.707 13.344 19.832 27.332l-123.65 194.8c-3.1328 5.4531-9.0234 9.1328-15.773 9.1328l-493.08-0.042969c-6.2578-0.007812-12.336-3.25-15.691-9.0508l-88.285-152.95c-7.2383-12.477 2.5625-28.445 17.309-27.117 29.598 2.6875 59.242 4.8008 88.891 6.3555v-102.93c0-10.043 8.1484-18.184 18.184-18.184h13.121v-36.758c0-10.043 8.1406-18.184 18.184-18.184h59.555c10.043 0 18.184 8.1406 18.184 18.184v36.758h41.176v-36.758c0-10.043 8.1406-18.184 18.184-18.184h15.852zm-111.57 54.938v-18.574h-23.188v18.574zm195.7 0v-18.574h-81.797v18.574zm-250.19 36.363v86.355c110.89 4.0625 222 0.21484 332.33-11.504v-74.852h-332.33z"/>
 </g>
</svg>
