<?xml version="1.0" encoding="UTF-8"?>
<svg width="1200pt" height="1200pt" version="1.1" viewBox="0 0 1200 1200" xmlns="http://www.w3.org/2000/svg">
 <path d="m439.18 73.688c-70.453 0-128.21 57.797-128.21 128.26v768.94c0 49.781-39 88.781-88.781 88.781s-88.875-39-88.875-88.781v-612c0.046875-8.8594-3.4688-17.391-9.75-23.672s-14.812-9.7969-23.672-9.7969c-8.8594 0.046876-17.344 3.6094-23.531 9.8906-6.2344 6.2344-9.75 14.766-9.7031 23.578v612c0 85.594 69.984 155.48 155.53 155.48h782.9c70.453 0 128.21-57.75 128.21-128.21l0.046875-796.22c0-70.453-57.75-128.26-128.21-128.26zm0 66.75h565.97c34.688 0 61.5 26.859 61.5 61.5v796.22c0 34.688-26.859 61.5-61.5 61.5h-655.55c17.672-25.219 28.078-55.828 28.078-88.781v-768.94c0-34.688 26.859-61.5 61.5-61.5zm88.594 152.81 0.046875-0.046875c-18.422-0.09375-33.422 14.766-33.469 33.188v215.29c0.046875 18.422 15.047 33.281 33.469 33.234h192.89c18.328-0.09375 33.141-14.906 33.188-33.234v-215.29c-0.046875-18.281-14.859-33.141-33.188-33.188zm311.26 30.984 0.046875-0.046875c-18.328 0.046875-33.141 14.906-33.188 33.188-0.046875 8.8594 3.4219 17.344 9.6562 23.625s14.672 9.7969 23.531 9.8438h74.531c8.8594-0.046875 17.297-3.5625 23.531-9.8438s9.7031-14.766 9.7031-23.625c-0.09375-18.281-14.906-33.141-33.234-33.188zm-616.87 1.2188 0.046875-0.046875c-8.8594 0-17.391 3.5156-23.672 9.7969s-9.7969 14.812-9.7969 23.672v558.32c0.046875 8.8594 3.6094 17.297 9.8906 23.531 6.2812 6.2344 14.766 9.7031 23.578 9.7031 18.328-0.09375 33.141-14.906 33.234-33.234v-558.32c0-8.8125-3.4688-17.344-9.7031-23.578-6.2344-6.2812-14.672-9.8438-23.531-9.8906zm338.81 34.453h126.24l0.046875 148.6h-126.24zm278.06 117.66 0.046875-0.046875c-18.328 0.046875-33.141 14.906-33.188 33.188-0.046875 8.8594 3.4219 17.344 9.6562 23.625s14.672 9.7969 23.531 9.8438h74.531c8.8594-0.046875 17.297-3.5625 23.531-9.8438s9.7031-14.766 9.7031-23.625c-0.09375-18.281-14.906-33.141-33.234-33.188zm-311.26 211.08 0.046875-0.046875c-8.8594-0.046875-17.344 3.4219-23.625 9.6562s-9.8438 14.719-9.8438 23.578c-0.046875 8.9062 3.4688 17.438 9.75 23.719s14.812 9.7969 23.719 9.75h385.82-0.046875c8.8594-0.046875 17.297-3.5625 23.531-9.8438s9.7031-14.766 9.7031-23.625c-0.046875-18.328-14.906-33.188-33.234-33.234zm0 151.82 0.046875-0.09375c-8.8594 0-17.344 3.4688-23.625 9.7031-6.2812 6.2344-9.8438 14.719-9.8438 23.578-0.046875 8.9062 3.4688 17.438 9.75 23.719s14.812 9.7969 23.719 9.75h385.82-0.046875c8.8594-0.046876 17.297-3.5625 23.531-9.8438s9.7031-14.766 9.7031-23.625c-0.046875-18.328-14.906-33.188-33.234-33.281z"/>
</svg>
