<?xml version="1.0" encoding="utf-8"?>
<!-- Generator: Adobe Illustrator 25.2.1, SVG Export Plug-In . SVG Version: 6.00 Build 0)  -->
<svg version="1.1" id="Layer_1" xmlns="http://www.w3.org/2000/svg" xmlns:xlink="http://www.w3.org/1999/xlink" x="0px" y="0px"
	 viewBox="0 0 628 220" style="enable-background:new 0 0 628 220;" xml:space="preserve">
<style type="text/css">
	.st0{fill:#FFFFFF;}
</style>
<g>
	<path class="st0" d="M628.2,109.8c-0.2,1-0.5,2.1-0.7,3.1c-2.3,8.2-7.8,13.5-15.9,15.4c-13.7,3.2-25.8,0.3-35.7-10.2
		c-0.2-0.2-0.4-0.5-0.7-0.8c3.6-3.4,7.1-6.8,10.6-10.2c1.3,1.2,2.4,2.4,3.7,3.5c4.3,3.7,9.3,5.3,15,4.9c6-0.5,9.7-5.6,8.1-11.1
		c-0.8-2.5-2.6-4-4.9-5c-2.7-1.2-5.6-1.5-8.5-1.5c-2.1,0-4.3,0-6.5,0c-0.6-2.2-0.9-4.5-1.7-6.6c-0.9-2.4-0.3-4,1.6-5.8
		c4.7-4.3,9-9,13.5-13.5c0.2-0.2,0.5-0.5,0.9-1c-9.3,0-18.4,0-27.6,0c0-4.5,0-8.9,0-13.4c15.9,0,31.7,0,47.6,0
		c0,0.2,0.1,0.5,0.1,0.7c0,3.4,0,6.8,0,10.3c0,0.5-0.5,1.2-0.9,1.6c-5.5,5.3-11,10.5-16.5,15.8c-0.1,0.1-0.1,0.1-0.3,0.3
		c0.8,0.2,1.4,0.3,2.1,0.5c3.5,0.8,6.9,2.1,9.8,4.3c3.7,2.8,5.8,6.5,6.6,11c0,0.2,0.1,0.4,0.2,0.7
		C628.2,105.1,628.2,107.5,628.2,109.8z"/>
	<g>
		<path class="st0" d="M2.8,59c0.4-0.3,0.7-0.5,1-0.6c27.9-15.9,55.7-31.8,83.6-47.8c0.6-0.3,0.9-0.3,1.5,0
			c27.9,15.9,55.7,31.9,83.6,47.8c0.2,0.1,0.5,0.3,1,0.6c-25.7,14.9-51.3,29.6-76.9,44.4c-2.2-2.6-4.8-4.2-8.3-4.3
			c-3.5,0-6.2,1.6-8.4,4.3C54.1,88.6,28.5,73.8,2.8,59z"/>
		<path class="st0" d="M91.1,209.4c0-0.5,0-0.9,0-1.2c0-29,0-58.1,0-87.1c0-0.8,0.2-1.2,1-1.6c3.8-1.6,6.1-4.5,6.6-8.6
			c0-0.4,0.2-0.8,0-1.1c-0.5-1.2,0.3-1.5,1.1-2c25.3-14.6,50.5-29.2,75.8-43.8c0.2-0.1,0.4-0.2,0.7-0.4c0,0.4,0.1,0.7,0.1,1
			c0,31.5,0,63.1,0,94.6c0,0.6-0.1,1-0.7,1.3c-27.9,16.1-55.9,32.2-83.8,48.3C91.8,209.1,91.5,209.2,91.1,209.4z"/>
		<path class="st0" d="M-0.2,63.6c26,15,51.9,30,77.8,44.9c-0.8,3.6,1.3,8.9,6.5,11c0.7,0.3,0.9,0.6,0.9,1.3c0,29.2,0,58.4,0,87.5
			c0,0.3,0,0.6,0,1c-0.4-0.2-0.7-0.3-0.9-0.5c-27.8-16.1-55.7-32.2-83.5-48.2c-0.6-0.4-0.8-0.7-0.8-1.4c0-31.5,0-63,0-94.5
			C-0.2,64.4-0.2,64.1-0.2,63.6z"/>
	</g>
	<path class="st0" d="M356.5,165c0-35.3,0-70.4,0-105.6c0.4,0,0.8,0,1.2,0c13.2,0,26.5-0.1,39.7,0c14.5,0.2,27.5,4.6,38.3,14.4
		c8.7,7.9,13.9,17.7,15.6,29.3c1.6,10.8,0.6,21.3-4,31.3c-5.8,12.7-15.6,21.2-28.4,26.4c-7,2.8-14.2,4.1-21.7,4.1
		c-13.1,0-26.2,0-39.3,0C357.4,165,356.9,165,356.5,165z M374.9,148.2c0.3,0,0.5,0,0.7,0c6.8,0,13.6,0.1,20.4,0
		c3.2-0.1,6.4-0.4,9.5-1.1c10.7-2.4,18.6-8.5,23.3-18.5c3.7-8,4.2-16.3,2.5-24.8C430,96.9,427,91,422,86.1c-7-6.7-15.5-9.7-25-9.9
		c-7-0.1-14,0-20.9,0c-0.4,0-0.7,0-1.1,0C374.9,100.3,374.9,124.2,374.9,148.2z"/>
	<path class="st0" d="M553.7,87.8c-3.6-3.3-7.4-6.1-11.5-8.5c-12.1-7-29.5-6.5-41.1,4.3c-6.4,6-10,13.4-11.3,22
		c-1.3,8.8-0.2,17.3,3.9,25.3c5.4,10.3,13.7,16.7,25.3,18.4c9.9,1.5,19.2-0.7,27.3-6.7c2.8-2.1,5.4-4.2,8-6.2
		c4,3.8,8.1,7.8,12.2,11.7c-4.8,5.2-10.2,9.5-16.3,12.8c-7.3,3.9-15.2,5.6-23.5,5.9c-13.4,0.6-25.6-2.8-36.3-11.1
		c-11.3-8.8-17.9-20.5-20-34.6c-1.8-11.8-0.4-23.2,5.1-33.9c8.5-16.6,22.2-26.4,40.7-29.1c10.4-1.5,20.7-0.5,30.6,3.3
		c7.2,2.8,13.3,7.2,19,12.6C561.7,78.6,557.8,83.2,553.7,87.8z"/>
	<path class="st0" d="M264.7,122c0,14.4,0,28.6,0,42.9c-6.1,0-12.2,0-18.4,0c0-35.1,0-70.3,0-105.5c26.1,0,52.2,0,78.3,0
		c0,5.5,0,11.1,0,16.7c-20,0-39.9,0-59.9,0c0,9.7,0,19.3,0,29c17.7,0,35.4,0,53.1,0c0,5.7,0,11.2,0,16.8
		C300.2,122,282.5,122,264.7,122z"/>
</g>
</svg>
