<?xml version="1.0" encoding="UTF-8"?>
<svg width="1200pt" height="1200pt" version="1.1" viewBox="0 0 1200 1200" xmlns="http://www.w3.org/2000/svg">
 <path d="m848.36 476.41c-34.883-144.34-103.15-299.69-170.59-299.69-3.3359 0-6.6719 0.39453-9.875 1.1641-14.699 3.5508-26.398 14.746-34.992 32.93-0.91016 0.71875-1.9062 1.2734-2.6641 2.2305-37.754 48.266-172.95 207.67-327.18 244.95l-117.84 30.406c-0.46875 0.10937-0.92578 0.25391-1.3789 0.39453-36.109 9.9258-66.59 32.641-86.207 64.344-20.52 33.191-26.762 72.406-17.555 110.46 9.2031 38.039 32.664 70.094 66.07 90.238 33.254 20.062 72.574 26.027 110.7 16.824l24.434-5.9023h0.023438 0.011718l29.387-7.1055 97.512 200.36c12.695 26.062 38.879 41.258 66.109 41.258 10.766 0 21.695-2.3633 32.004-7.3789 36.371-17.723 51.562-61.727 33.852-98.113l-78.84-162c140.77-1.1875 284.53 64.234 317.39 80.172 11.762 8.7617 23.676 13.621 35.566 13.621 3.3359 0 6.6719-0.39453 9.875-1.1758 31.129-7.5234 49.02-48.91 51.742-119.7 2.4531-63.562-7.3242-144.64-27.547-228.29zm-598.86 263.93c-30.059 7.2852-61.055 2.5781-87.254-13.223-26.207-15.805-44.641-40.98-51.852-70.859-7.2227-29.879-2.3398-60.695 13.777-86.734 15.875-25.691 40.871-43.922 70.465-51.371l10.391-2.5195 53.773 222.46zm243.17 223.5c-20.902 10.176-46.234 1.4414-56.398-19.477l-35.387-72.707 76.906-34.738 34.332 70.535c10.188 20.902 1.4492 46.199-19.453 56.387zm-28.535-154.99-76.906 34.738-45.469-93.434 36.121-8.7344c16.211-3.9102 32.797-6.4922 49.547-8.0039zm-93.602-97.75-81.406 19.668-53.773-222.47 75.059-18.18c129.7-31.344 245-142.43 307.03-212.41-0.55078 6.3711-1.0078 12.949-1.2852 19.883-1.2852 33.098 0.82812 71.004 5.9414 111.49 0.070313 0.57422-0.070312 1.1289 0.058594 1.7148 0.046875 0.19141 0.19141 0.32422 0.23828 0.51562 4.7031 36.613 11.809 75.277 21.312 114.57 9.3125 38.531 21.023 77.832 34.441 114.77 0.070312 0.73047-0.097656 1.4297 0.085937 2.1602 0.51562 2.125 1.5234 3.9375 2.7617 5.5781 15.395 41.258 32.953 79.105 51.695 109.2-83.902-33.273-231.66-78.059-362.16-46.496zm284.93-288.25c23.508 6.4688 51.406 38.555 63.227 87.406 11.723 48.551 1.7891 89.578-15.996 106.31-10.199-29.352-19.945-61.957-28.656-98.016-7.9062-32.711-14.074-64.883-18.574-95.699zm189.29 280.66c-2.2695 58.453-15.648 87.613-27.91 90.574-0.81641 0.20312-1.6562 0.28906-2.543 0.28906-2.7617 0-5.832-0.85156-9.168-2.4961-1.3086-1.6445-2.9414-3.0586-4.9219-4.0938-0.64844-0.33594-2.3281-1.2109-4.8477-2.4609-22.57-18.613-53.039-65.711-81.348-138.12 35.16-21.602 50.484-80.258 35.004-144.29-15.562-64.367-56.195-109.77-97.668-112.46-3.6016-33.156-5.0742-64.223-4.0195-91.668 2.2578-58.453 15.637-87.602 27.898-90.562 0.81641-0.20312 1.6562-0.28906 2.543-0.28906 30.086 0 97.344 98.219 140.27 275.82 19.57 80.945 29.051 158.98 26.711 219.76z"/>
 <path d="m967.51 466.79c-6.8867-0.14453-13.094-4.8828-14.809-11.891-2.0508-8.3633 3.0703-16.812 11.438-18.863l101.93-25.008c8.3516-2.0625 16.812 3.0703 18.863 11.438 2.0508 8.3633-3.0703 16.812-11.438 18.863l-101.93 25.008c-1.3555 0.33203-2.7227 0.48828-4.0547 0.45312z"/>
 <path d="m890.29 296.32c-4.1758-0.17969-8.2695-2.0391-11.195-5.4727-5.5938-6.5625-4.7891-16.414 1.7773-21.996l91.906-78.168c6.5508-5.5664 16.414-4.7891 21.984 1.7773 5.5938 6.5625 4.7891 16.414-1.7773 21.996l-91.906 78.168c-3.1211 2.6641-6.9844 3.8633-10.789 3.6953z"/>
 <path d="m1104.7 681.38c-2.0508 0.34766-4.2109 0.30078-6.3828-0.23828l-112.99-27.91c-8.375-2.0625-13.465-10.523-11.398-18.875 2.0391-8.3633 10.477-13.512 18.875-11.398l112.99 27.91c8.375 2.0625 13.465 10.523 11.398 18.875-1.5117 6.2031-6.5625 10.617-12.492 11.637z"/>
</svg>
