<?xml version="1.0" encoding="UTF-8"?>
<svg width="1200pt" height="1200pt" version="1.1" viewBox="0 0 1200 1200" xmlns="http://www.w3.org/2000/svg">
 <path d="m890.63 253.13c-41.766 0.42188-75.328 34.641-75 76.406v83.391c14.156 9.5156 26.812 21.094 37.5 34.359v-117.75c-0.375-21.094 16.406-38.484 37.5-38.906 9.9375 0 19.406 4.0312 26.297 11.203 7.2188 7.4062 11.25 17.344 11.203 27.703v337.13c0 7.6875-2.3438 15.188-6.7969 21.469l-45.281 64.734c-8.8594 12.562-13.594 27.609-13.547 42.984v216.66h-253.13v-170.63c0-10.359-8.3906-18.75-18.75-18.75s-18.75 8.3906-18.75 18.75v281.72c0.375 21.094-16.406 38.484-37.5 38.906-9.9375 0-19.406-4.0312-26.297-11.203-7.2188-7.4062-11.25-17.344-11.203-27.703v-354.84c0.046875-41.391 33.609-74.953 75-75h16.734c-8.9531-11.391-16.359-23.906-22.078-37.219-59.906 2.8594-107.06 52.219-107.16 112.22v354.84c-0.046875 20.109 7.7812 39.469 21.797 53.859 13.922 14.438 33.141 22.594 53.203 22.547 41.25-0.42188 74.578-33.75 75-75h206.26v56.25c0 10.359 8.3906 18.75 18.75 18.75 10.359 0 18.75-8.3906 18.75-18.75v-57.094c27.047-4.5938 46.828-27.984 46.875-55.406v-272.9c0-7.6875 2.3438-15.188 6.7969-21.469l45.281-64.688v-0.046875c8.8594-12.562 13.594-27.609 13.547-42.984v-337.13c0.046876-20.109-7.7812-39.469-21.797-53.859-13.922-14.438-33.141-22.594-53.203-22.547zm-28.125 815.63c0 10.359-8.3906 18.75-18.75 18.75h-234.37v-37.5h253.13z"/>
 <path d="m590.63 590.63c0 72.469 58.781 131.26 131.26 131.26 72.477 0 131.26-58.781 131.26-131.26v-37.5c0-72.469-58.781-131.26-131.26-131.26-72.477 0-131.26 58.781-131.26 131.26zm37.5-37.5c0-51.797 41.953-93.75 93.75-93.75s93.75 41.953 93.75 93.75v37.5c0 51.797-41.953 93.75-93.75 93.75s-93.75-41.953-93.75-93.75z"/>
 <path d="m582.24 448.03c5.8125 2.9062 12.703 2.5781 18.234-0.84375s8.9062-9.4219 8.9062-15.938v-70.5c47.719-52.453 66.703-124.97 50.672-194.02-15.984-69.094-64.875-125.9-130.78-152.02-65.953-26.062-140.48-18.141-199.4 21.281-58.969 39.375-94.781 105.23-95.859 176.11-1.125 70.875 32.719 137.81 90.422 178.97 57.703 41.203 131.95 51.422 198.66 27.375zm-132.24-54.281c-55.359 0.046875-107.58-25.547-141.42-69.375-33.797-43.828-45.375-100.83-31.266-154.36 14.109-53.531 52.219-97.5 103.27-118.97 51-21.469 109.08-18.047 157.22 9.2344 48.141 27.328 80.859 75.422 88.594 130.26 7.7344 54.797-10.453 110.06-49.172 149.63-3.4219 3.5156-5.3438 8.2031-5.3438 13.125v47.625l-39.422-19.734c-4.8281-2.3906-10.453-2.625-15.469-0.5625-21.234 8.6719-44.016 13.125-66.984 13.125z"/>
 <path d="m450 103.12c-41.391 0.046875-74.953 33.609-75 75 0 10.359 8.3906 18.75 18.75 18.75s18.75-8.3906 18.75-18.75c0-15.188 9.1406-28.828 23.156-34.641s30.141-2.5781 40.875 8.1094c10.688 10.734 13.922 26.859 8.1094 40.875s-19.453 23.156-34.641 23.156c-10.359 0-18.75 8.3906-18.75 18.75v65.625c0 10.359 8.3906 18.75 18.75 18.75s18.75-8.3906 18.75-18.75v-49.266c36.562-9.4219 60.422-44.578 55.641-82.031-4.7344-37.5-36.609-65.578-74.391-65.578z"/>
</svg>
