<?xml version="1.0" encoding="UTF-8"?>
<svg width="1200pt" height="1200pt" version="1.1" viewBox="0 0 1200 1200" xmlns="http://www.w3.org/2000/svg">
 <g>
  <path d="m600 269.38c181.84 0 330.62 148.78 330.62 330.62 0 122.8-68.488 236.16-177.12 292.84l-21.254 11.809-21.254-42.508 21.254-11.809c18.895-9.4453 35.426-21.254 51.957-35.426l-33.062-33.062 33.062-33.062 33.062 33.062c37.781-42.508 59.035-99.188 66.121-158.23h-47.23v-47.23h44.871c-4.7227-61.402-28.34-115.72-66.125-158.23l-33.062 33.062-33.062-33.062 33.062-35.426c-44.871-37.785-99.188-61.402-158.23-66.125l-0.003907 47.23h-47.23v-44.871c-61.402 4.7227-115.72 28.34-158.23 66.125l33.062 33.062-33.062 33.062-33.062-33.062c-37.785 44.871-61.402 99.188-66.125 158.23l44.867 0.003907v47.23h-44.871c4.7227 61.402 28.34 115.72 66.125 158.23l33.062-33.062 33.062 33.062-33.062 33.062c49.598 42.512 113.36 68.488 181.85 68.488 14.168 0 28.34 0 42.508-2.3633l23.617-4.7227 7.0859 47.23-23.617 4.7227c-16.531 2.3633-33.062 4.7227-51.957 4.7227-181.84 0-330.62-148.78-330.62-330.62 0-181.84 151.14-332.98 332.99-332.98z"/>
  <path d="m600 670.85c-40.148 0-70.848-30.699-70.848-70.848 0-40.148 30.699-70.848 70.848-70.848 11.809 0 21.254 2.3633 30.699 7.0859l87.379-87.383 33.062 33.062-87.379 87.379c4.7227 9.4453 7.0859 18.895 7.0859 30.699 0 40.148-30.703 70.852-70.848 70.852zm-23.617-70.852c0 14.168 9.4453 23.617 23.617 23.617 14.168 0 23.617-9.4453 23.617-23.617 0-14.168-9.4453-23.617-23.617-23.617-14.172 0.003907-23.617 9.4492-23.617 23.617z"/>
  <path d="m694.46 718.08h-188.93v47.23h188.93z"/>
 </g>
</svg>
