<?xml version="1.0" encoding="UTF-8"?>
<svg width="1200pt" height="1200pt" version="1.1" viewBox="0 0 1200 1200" xmlns="http://www.w3.org/2000/svg">
 <g>
  <path d="m225 825c-82.5 0-150 67.5-150 150s67.5 150 150 150c71.25 0 127.5-48.75 146.25-112.5h78.75v-75h-78.75c-18.75-63.75-75-112.5-146.25-112.5zm0 225c-41.25 0-75-33.75-75-75s33.75-75 75-75 75 33.75 75 75-33.75 75-75 75z"/>
  <path d="m375 262.5h453.75c15 63.75 75 112.5 146.25 112.5 82.5 0 150-67.5 150-150s-67.5-150-150-150c-71.25 0-127.5 48.75-146.25 112.5h-453.75c-123.75 0-225 101.25-225 225s101.25 225 225 225h450c82.5 0 150 67.5 150 150s-67.5 150-150 150h-300v75h300c123.75 0 225-101.25 225-225s-101.25-225-225-225h-450c-82.5 0-150-67.5-150-150s67.5-150 150-150zm600-112.5c41.25 0 75 33.75 75 75s-33.75 75-75 75-75-33.75-75-75 33.75-75 75-75z"/>
 </g>
</svg>
