<?xml version="1.0" encoding="UTF-8"?>
<svg width="1200pt" height="1200pt" version="1.1" viewBox="0 0 1200 1200" xmlns="http://www.w3.org/2000/svg">
 <g>
  <path d="m888.75 311.25c-41.25-41.25-93.75-71.25-150-86.25l-37.5-11.25-18.75 71.25 37.5 11.25c45 11.25 86.25 33.75 116.25 67.5 33.75 33.75 56.25 75 67.5 116.25l11.25 37.5 71.25-18.75-11.25-37.5c-15-56.25-45-108.75-86.25-150z"/>
  <path d="m1125 420c-26.25-78.75-71.25-153.75-131.25-213.75s-135-105-213.75-131.25l-37.5-11.25-22.5 71.25 37.5 11.25c71.25 22.5 131.25 60 183.75 112.5s90 112.5 112.5 183.75l11.25 37.5 71.25-22.5z"/>
  <path d="m622.5 420c-22.5 22.5-33.75 48.75-33.75 78.75 0 18.75 3.75 33.75 11.25 48.75l-56.25 56.25-157.5-157.5-26.25 26.25c-33.75 33.75-56.25 75-67.5 120l-11.25 37.5 71.25 18.75 11.25-37.5c3.75-18.75 15-37.5 26.25-56.25l258.75 258.75c-30 18.75-67.5 30-105 30-48.75 0-97.5-18.75-131.25-56.25-15-15-30-33.75-37.5-56.25l-15-33.75-67.5 30 15 33.75c7.5 18.75 18.75 37.5 33.75 52.5l-138.75 236.25h-127.5v75h600v-75h-127.5l-82.5-142.5c26.25 7.5 52.5 11.25 78.75 11.25 71.25 0 135-26.25 183.75-78.75l26.25-26.25-157.5-157.5 56.25-56.25c15 7.5 30 11.25 48.75 11.25 30 0 60-11.25 78.75-33.75 22.5-22.5 33.75-48.75 33.75-78.75s-11.25-60-33.75-78.75c-41.25-45-116.25-45-157.5 0zm-333.75 630 86.25-150 86.25 150zm438.75-525c-15 15-37.5 15-52.5 0-7.5-7.5-11.25-15-11.25-26.25s3.75-18.75 11.25-26.25 15-11.25 26.25-11.25 18.75 3.75 26.25 11.25 11.25 15 11.25 26.25-3.75 18.75-11.25 26.25z"/>
 </g>
</svg>
