<?xml version="1.0" encoding="UTF-8"?>
<svg width="512pt" height="512pt" version="1.1" viewBox="0 0 512 512" xmlns="http://www.w3.org/2000/svg">
 <g>
  <path fill="black" d="m256 16c-132.34 0-240 107.66-240 240s107.66 240 240 240 240-107.66 240-240-107.66-240-240-240zm0 464c-123.52 0-224-100.48-224-224s100.48-224 224-224 224 100.48 224 224-100.48 224-224 224z"/>
  <path fill="black" d="m170.09 256c0 14.238-11.543 25.777-25.777 25.777-14.238 0-25.781-11.539-25.781-25.777s11.543-25.777 25.781-25.777c14.234 0 25.777 11.539 25.777 25.777"/>
  <path fill="black" d="m281.78 256c0 14.238-11.539 25.777-25.777 25.777s-25.777-11.539-25.777-25.777 11.539-25.777 25.777-25.777 25.777 11.539 25.777 25.777"/>
  <path fill="black" d="m393.47 256c0 14.238-11.543 25.777-25.781 25.777-14.234 0-25.777-11.539-25.777-25.777s11.543-25.777 25.777-25.777c14.238 0 25.781 11.539 25.781 25.777"/>
 </g>
</svg>
