<?xml version="1.0" encoding="UTF-8"?>
<svg width="512pt" height="512pt" version="1.1" viewBox="0 0 512 512" xmlns="http://www.w3.org/2000/svg">
 <g fill="#fff">
  <path d="m420.35 67.586h-107.52v47.105l50.688-0.003906-158.21 158.72 33.281 33.281 158.21-158.21v50.176h47.105v-107.52h-0.003906c0-6.2461-2.4805-12.238-6.8984-16.656-4.4141-4.4141-10.406-6.8945-16.652-6.8945z"/>
  <path d="m351.23 396.8h-236.03v-236.03h161.79v-47.617h-185.34c-6.2461 0-12.238 2.4805-16.652 6.8984-4.418 4.418-6.8984 10.406-6.8984 16.652v283.65c0 6.2461 2.4805 12.238 6.8984 16.652 4.4141 4.418 10.406 6.8984 16.652 6.8984h283.14c6.2461 0 12.234-2.4805 16.652-6.8984 4.418-4.4141 6.8984-10.406 6.8984-16.652v-185.34h-47.105z"/>
 </g>
</svg>
