<?xml version="1.0" encoding="UTF-8"?>
<svg width="1200pt" height="1200pt" version="1.1" viewBox="0 0 1200 1200" xmlns="http://www.w3.org/2000/svg">
 <path d="m646.8 390.84c-50.879-49.68-120.36-73.559-206.64-71.039-59.879 1.8008-111.72 17.16-153.96 45.719-33.961 22.922-61.68 54.238-82.441 93-34.801 65.281-37.559 128.76-37.68 131.52-0.35938 9.4805 7.0781 17.52 16.559 17.879s17.52-7.0781 17.879-16.559c0-0.60156 2.7617-59.281 34.199-117.6 18.121-33.48 42-60.359 71.281-80.039 36.719-24.602 82.078-37.801 135.12-39.359 76.441-2.2812 137.52 18.359 181.44 61.199 27.719 27.121 48.48 62.641 61.441 105.36 9.6016 31.922 12.961 62.16 12.84 78.359-0.23828 29.16-8.0391 87.48-58.68 150.84-39.48 49.441-81.84 113.4-96.121 213.84-6.1211 42.48-20.641 74.762-43.32 96-23.641 22.199-57.48 33.48-100.68 33.48-50.398 0-83.039-22.199-101.52-40.922-21.719-21.961-35.762-51.602-36.602-77.52-0.35938-9.4805-8.2812-17.039-17.762-16.68s-17.039 8.2812-16.68 17.762c1.0781 34.68 18.602 72.359 46.68 100.68 15.48 15.719 33.602 27.961 53.879 36.719 22.32 9.6016 46.559 14.398 72.238 14.398 52.199 0 93.961-14.398 124.2-42.84 28.559-26.762 46.68-65.879 53.879-116.4 5.7617-40.559 16.68-77.039 33.359-111.36 13.559-28.078 31.32-55.32 55.559-85.801 25.68-32.039 44.16-66.48 55.199-102.12 7.1992-23.641 10.922-47.16 11.16-69.961 0.12109-19.559-3.6016-53.039-14.398-88.559-14.641-48.48-38.398-88.922-70.32-120.12z"/>
 <path d="m583.68 580.8c-0.12109-1.1992-4.4414-29.52-22.922-57.84-17.52-26.762-51.238-58.68-112.56-58.68-61.32 0-96.84 28.199-115.44 51.961-20.16 25.801-27.719 54.84-27.719 67.078 0 1.5586 0 3.9609-0.23828 6.6016-0.83984 20.879-2.5195 64.199 22.922 93.48 0.83984 0.96094 1.6797 1.9219 2.6406 3 12.121 13.922 28.68 33 36.359 54.238 8.2812 23.039 3.7188 42.84-14.398 62.16-31.801 34.078-45.961 66.84-42 97.559 3.3594 25.68 19.68 48.48 47.281 65.879 14.039 8.8789 28.32 13.32 42.602 13.32h0.60156c11.879 0 23.281-3.2383 34.078-9.4805 4.9219-2.8789 9.2383-6 12.961-9.1211 8.6406-7.4414 7.6797-21.238-1.8008-27.48-6.4805-4.1992-14.879-3.6016-20.641 1.3203-2.3984 2.0391-5.1602 4.0781-8.3984 5.8789-12.719 6.9609-26.039 5.7617-40.801-3.6016-18.84-11.879-29.398-25.68-31.441-41.039-2.5195-19.68 8.8789-43.68 33-69.48 14.398-15.359 23.281-32.16 26.398-49.922 2.6406-15.238 1.0781-31.199-4.6797-47.398-9.8398-27.48-29.641-50.281-42.84-65.281-0.83984-0.96094-1.6797-2.0391-2.5195-2.8789-16.441-18.961-15.238-51.84-14.52-69.602 0-3 0.23828-5.7617 0.23828-7.9219 0-3.2383 4.0781-25.199 20.641-46.199 20.16-25.441 49.801-38.398 87.961-38.398 38.16 0 64.32 14.16 83.039 42.121 14.641 21.961 18.238 44.762 18.359 45 1.4414 9.3594 10.078 15.961 19.559 14.52 9.4805-1.3203 15.961-10.078 14.641-19.559z"/>
 <path d="m1008.6 355.8c-16.199-45.84-39.719-88.68-69.961-127.08-29.879-38.039-65.52-70.801-105.96-97.32-41.039-27-85.922-46.801-133.44-58.922-9.2383-2.3984-18.602 3.2383-21 12.48-2.3984 9.2383 3.2383 18.602 12.48 21 43.801 11.16 85.199 29.52 123 54.359 37.32 24.48 70.199 54.719 97.801 89.762 27.84 35.398 49.559 74.879 64.441 117.12 15.48 43.801 23.281 89.762 23.281 136.68 0 37.441-5.0391 74.398-14.879 110.16-2.5195 9.2383 2.8789 18.719 12 21.238 1.5586 0.48047 3.1211 0.60156 4.6797 0.60156 7.5586 0 14.52-5.0391 16.68-12.602 10.801-38.762 16.199-78.84 16.199-119.4 0-50.762-8.5195-100.68-25.199-148.08z"/>
 <path d="m708.96 307.08c-25.199-18.961-53.039-33.84-82.801-44.281-9-3.1211-18.84 1.5586-21.961 10.559-3.1211 9 1.5586 18.84 10.559 21.961 26.281 9.2383 51 22.559 73.441 39.359 22.199 16.68 41.641 36.602 57.84 59.039 33.719 46.68 51.48 102 51.48 159.72 0 22.68-2.7617 45.238-8.2812 67.078-2.2812 9.2383 3.2383 18.602 12.48 21 1.4414 0.35938 2.8789 0.48047 4.1992 0.48047 7.6797 0 14.762-5.1602 16.68-13.078 6.2383-24.602 9.3594-50.039 9.3594-75.602 0-65.039-20.039-127.32-57.961-179.88-18.238-25.32-40.199-47.641-65.16-66.48z"/>
 <path d="m815.76 250.56c-71.641-65.879-151.44-84.719-154.8-85.559-9.2383-2.1602-18.48 3.7188-20.641 12.961-2.1602 9.2383 3.6016 18.602 12.961 20.762 0.71875 0.12109 75.359 18.121 140.28 78.238 37.68 34.922 64.922 77.16 80.879 125.76 20.281 61.199 22.801 132.72 7.5586 212.76-1.8008 9.3594 4.3203 18.359 13.68 20.16 1.0781 0.23828 2.1602 0.35938 3.2383 0.35938 8.1602 0 15.359-5.7617 16.922-14.039 16.441-86.281 13.441-164.04-9-231.12-18.121-54.238-48.719-101.4-91.078-140.28z"/>
</svg>
