<?xml version="1.0" encoding="UTF-8"?>
<svg width="1200pt" height="1200pt" version="1.1" viewBox="0 0 1200 1200" xmlns="http://www.w3.org/2000/svg">
 <path d="m731.63 604.31c0-77.812-63.375-141.19-141.19-141.19s-141.19 63.375-141.19 141.19 63.375 141.19 141.19 141.19 141.19-63.375 141.19-141.19zm-226.31 0c0-46.875 38.062-84.938 84.938-84.938s84.938 38.062 84.938 84.938-38.062 84.938-84.938 84.938-84.938-38.062-84.938-84.938z"/>
 <path d="m1100.4 952.31c5.25-68.812-16.312-153.74-63.562-247.69-6.9375-13.875-23.812-19.5-37.688-12.562s-19.5 23.812-12.562 37.688c38.812 77.062 58.875 147.94 58.5 203.81-2.25 0-4.6875-0.375-6.9375-0.375-62.25 0-113.06 50.625-113.06 113.06 0 4.125 0.1875 8.0625 0.75 12.188-41.062 1.3125-90.188-8.4375-144.74-29.625 39.938-70.5 69.562-163.31 84.375-269.81 39.375-44.25 74.812-89.625 105.38-135v-0.5625c57.375-84.75 97.312-168.56 116.62-243.37 37.5-18.375 63.375-56.812 63.375-101.44 0-51.562-34.688-95.062-82.125-108.56-4.875-6.9375-10.125-13.688-16.312-19.688-44.062-44.062-112.88-58.5-200.06-42.188-34.125 7.3125-66.562 17.25-97.312 29.25-46.688-64.688-103.31-101.06-165-101.06s-116.25 35.625-162.56 98.625c-128.63-49.125-231.56-44.062-291.19 15.375-7.3125 7.3125-13.5 15.75-19.312 24.562-40.125 17.438-68.438 57.375-68.438 103.88 0 39.375 20.25 73.875 50.812 94.312 28.312 115.69 107.62 253.69 219.56 380.81 0.1875 0.375 0.5625 0.5625 0.75 0.9375 19.688 22.312 40.5 44.438 62.062 66.188 51.938 51.938 106.5 98.438 162.37 139.13-30.938 19.125-61.5 35.625-91.5 49.688-20.812-35.438-39.375-78.562-54.188-128.26-4.5-14.812-20.062-23.438-35.062-18.938-14.812 4.5-23.438 20.062-18.938 35.062 15.188 51.375 34.125 96.375 55.875 134.44-46.875 17.438-89.812 26.438-126.56 27 0.375-4.125 0.75-8.0625 0.75-12.375 0-62.25-50.625-113.06-113.06-113.06-6 0-11.812 0.5625-17.625 1.5-0.75-58.125 20.625-132.19 62.625-213.37 7.125-13.875 1.6875-30.75-12-37.875s-30.75-1.6875-37.875 12c-52.312 101.06-75.188 191.81-67.5 264-24.938 20.812-40.688 51.938-40.688 86.812 0 62.25 50.812 113.06 113.06 113.06 36.75 0 69.375-17.625 90-45 6 0.375 12.188 0.5625 18.375 0.5625 47.812 0 102.94-12 162.19-35.438 45.562 59.25 99.938 91.875 157.69 91.875 57.754 0 113.62-34.688 159-94.875 62.25 25.125 119.62 38.062 169.13 38.062 9.75 0 19.312-0.75 28.5-1.6875 20.625 27.938 53.625 46.125 90.938 46.125 62.25 0 113.06-50.812 113.06-113.06 0-39.188-20.062-73.875-50.625-94.125zm-938.26 151.13c-31.312 0-56.812-25.5-56.812-56.812s25.5-56.812 56.812-56.812 56.812 25.5 56.812 56.812-25.5 56.812-56.812 56.812zm566.81-96.938c-27.375-13.125-55.5-28.5-84.375-46.5 51-37.125 100.88-79.312 149.26-126.37-15.75 67.312-38.25 126.37-64.875 172.87zm67.5-621c-40.125-40.312-92.25-82.5-155.81-126.19 31.125-19.5 61.875-36.375 92.25-50.812 26.25 47.438 48.375 107.62 63.562 177zm78 269.63c1.875-33.375 1.875-65.625 0.75-97.125 13.125 16.688 25.5 33.562 37.5 50.625-12.188 17.438-24.938 35.062-38.625 52.312 0-1.875 0.1875-3.75 0.375-5.8125zm163.31-319.5c-31.312 0-56.812-25.5-56.812-56.812s25.5-56.812 56.812-56.812 56.812 25.5 56.812 56.812-25.5 56.812-56.812 56.812zm-174-172.13c39.375-7.5 90.75-10.125 128.81 11.812-39.938 17.438-67.875 57.375-67.875 103.5 0 58.312 44.25 106.31 101.06 112.31-16.5 52.125-43.5 108.94-79.688 167.06-15-20.625-30.562-41.25-47.25-61.312-2.0625-2.625-8.0625-10.125-31.312-35.812-1.875-14.25-3.75-28.312-6.1875-42.375l-7.3125-33.375c-15.938-78-39.562-145.13-68.625-199.31 24.938-9.1875 51.188-16.875 78.188-22.688zm-273.37-70.688c39.188 0 77.812 24.75 111.75 68.25-37.125 18-74.625 39.75-112.31 64.5-45-28.688-84.562-51.562-109.88-65.438 33.75-42.75 71.812-67.312 110.44-67.312zm-193.31 90.938c-33.188 60.375-59.25 137.06-75.375 226.31-0.75 4.5-16.688 111-16.688 194.06 0 15.188 0.75 30.375 1.3125 45.375-67.688-88.125-117.56-177.94-143.06-257.81 61.688-0.75 111.75-51 111.75-113.06 0-48.75-30.938-90.188-74.25-105.94 44.438-22.875 113.06-19.125 196.13 10.875zm-234.94 38.25c31.312 0 56.812 25.5 56.812 56.812s-25.5 56.812-56.812 56.812-56.812-25.5-56.812-56.812 25.5-56.812 56.812-56.812zm205.87 501.94c-4.3125-39-6.75-79.312-6.75-119.62 0-78.938 15.938-184.69 15.938-184.87 15-83.812 40.125-156.74 71.438-212.26 20.625 11.438 53.25 30 90.75 53.25-28.125 20.625-56.438 43.312-84.375 67.5-11.812 10.125-12.938 27.938-2.8125 39.75 5.625 6.375 13.312 9.75 21.188 9.75 6.5625 0 13.125-2.25 18.375-6.9375 32.625-28.312 65.438-54 98.25-77.062 73.125 48.938 133.69 97.5 176.06 141.56 3.375 3.375 25.125 26.25 48 51.375 5.8125 52.875 7.3125 107.81 4.125 166.13-1.125 28.125-3.5625 55.688-6.9375 82.312-14.062 15.562-28.688 30.938-43.875 46.312-55.688 55.5-113.62 104.06-172.69 145.5-59.625-41.625-117.56-90.375-172.69-145.5-18.75-18.75-36.75-37.875-54-57.188zm222.37 391.69c-36.375 0-72.188-21.188-104.44-59.25 35.812-17.25 72.188-38.062 108.75-61.875 34.875 22.688 69 42.562 102.19 58.875-32.25 39.375-68.625 62.062-106.5 62.062zm447.37-12.188c-31.312 0-56.812-25.5-56.812-56.812s25.5-56.812 56.812-56.812 56.812 25.5 56.812 56.812-25.5 56.812-56.812 56.812z"/>
</svg>
