<svg xmlns="http://www.w3.org/2000/svg" viewBox="0 0 628 220"><path d="M628.2 109.8c-.2 1-.5 2.1-.7 3.1-2.3 8.2-7.8 13.5-15.9 15.4-13.7 3.2-25.8.3-35.7-10.2-.2-.2-.4-.5-.7-.8 3.6-3.4 7.1-6.8 10.6-10.2 1.3 1.2 2.4 2.4 3.7 3.5 4.3 3.7 9.3 5.3 15 4.9 6-.5 9.7-5.6 8.1-11.1-.8-2.5-2.6-4-4.9-5-2.7-1.2-5.6-1.5-8.5-1.5h-6.5c-.6-2.2-.9-4.5-1.7-6.6-.9-2.4-.3-4 1.6-5.8 4.7-4.3 9-9 13.5-13.5.2-.2.5-.5.9-1h-27.6V57.6H627c0 .2.1.5.1.7v10.3c0 .5-.5 1.2-.9 1.6-5.5 5.3-11 10.5-16.5 15.8l-.3.3c.8.2 1.4.3 2.1.5 3.5.8 6.9 2.1 9.8 4.3 3.7 2.8 5.8 6.5 6.6 11 0 .2.1.4.2.7.1 2.3.1 4.7.1 7zM2.8 59c.4-.3.7-.5 1-.6 27.9-15.9 55.7-31.8 83.6-47.8.6-.3.9-.3 1.5 0 27.9 15.9 55.7 31.9 83.6 47.8.2.1.5.3 1 .6-25.7 14.9-51.3 29.6-76.9 44.4-2.2-2.6-4.8-4.2-8.3-4.3-3.5 0-6.2 1.6-8.4 4.3C54.1 88.6 28.5 73.8 2.8 59zm88.3 150.4v-88.3c0-.8.2-1.2 1-1.6 3.8-1.6 6.1-4.5 6.6-8.6 0-.4.2-.8 0-1.1-.5-1.2.3-1.5 1.1-2 25.3-14.6 50.5-29.2 75.8-43.8.2-.1.4-.2.7-.4 0 .4.1.7.1 1v94.6c0 .6-.1 1-.7 1.3-27.9 16.1-55.9 32.2-83.8 48.3-.1.3-.4.4-.8.6zM-.2 63.6c26 15 51.9 30 77.8 44.9-.8 3.6 1.3 8.9 6.5 11 .7.3.9.6.9 1.3v88.5c-.4-.2-.7-.3-.9-.5-27.8-16.1-55.7-32.2-83.5-48.2-.6-.4-.8-.7-.8-1.4V63.6zM356.5 165V59.4h1.2c13.2 0 26.5-.1 39.7 0 14.5.2 27.5 4.6 38.3 14.4 8.7 7.9 13.9 17.7 15.6 29.3 1.6 10.8.6 21.3-4 31.3-5.8 12.7-15.6 21.2-28.4 26.4-7 2.8-14.2 4.1-21.7 4.1h-39.3c-.5.1-1 .1-1.4.1zm18.4-16.8h.7c6.8 0 13.6.1 20.4 0 3.2-.1 6.4-.4 9.5-1.1 10.7-2.4 18.6-8.5 23.3-18.5 3.7-8 4.2-16.3 2.5-24.8C430 96.9 427 91 422 86.1c-7-6.7-15.5-9.7-25-9.9-7-.1-14 0-20.9 0H375c-.1 24.1-.1 48-.1 72zm178.8-60.4c-3.6-3.3-7.4-6.1-11.5-8.5-12.1-7-29.5-6.5-41.1 4.3-6.4 6-10 13.4-11.3 22-1.3 8.8-.2 17.3 3.9 25.3 5.4 10.3 13.7 16.7 25.3 18.4 9.9 1.5 19.2-.7 27.3-6.7 2.8-2.1 5.4-4.2 8-6.2 4 3.8 8.1 7.8 12.2 11.7-4.8 5.2-10.2 9.5-16.3 12.8-7.3 3.9-15.2 5.6-23.5 5.9-13.4.6-25.6-2.8-36.3-11.1-11.3-8.8-17.9-20.5-20-34.6-1.8-11.8-.4-23.2 5.1-33.9 8.5-16.6 22.2-26.4 40.7-29.1 10.4-1.5 20.7-.5 30.6 3.3 7.2 2.8 13.3 7.2 19 12.6-4.1 4.6-8 9.2-12.1 13.8zm-289 34.2v42.9h-18.4V59.4h78.3v16.7h-59.9v29h53.1v16.8c-17.6.1-35.3.1-53.1.1z" fill="#fff"/></svg>