<svg xmlns="http://www.w3.org/2000/svg" viewBox="0 0 621 72.7"><path d="M229.6 36.3c-.1.4-.2.8-.3 1.1-.8 3-2.8 4.9-5.8 5.6-5 1.2-9.4.1-13-3.7-.1-.1-.1-.2-.3-.3 1.3-1.2 2.6-2.5 3.9-3.7.5.4.9.9 1.4 1.3 1.6 1.4 3.4 1.9 5.5 1.8 2.2-.2 3.5-2 3-4.1-.3-.9-.9-1.5-1.8-1.8-1-.4-2-.5-3.1-.5h-2.4c-.2-.8-.3-1.6-.6-2.4-.3-.9-.1-1.5.6-2.1 1.7-1.6 3.3-3.3 4.9-4.9.1-.1.2-.2.3-.4h-10.1v-4.9h17.4v4.1c0 .2-.2.4-.3.6-2 1.9-4 3.8-6 5.8l-.1.1c.3.1.5.1.8.2 1.3.3 2.5.8 3.6 1.6 1.4 1 2.1 2.4 2.4 4 0 .1 0 .1.1.3-.1.6-.1 1.5-.1 2.3zM1.1 17.8c.1-.1.3-.2.4-.2C11.7 11.7 21.8 5.9 32 .1c.2-.1.3-.1.5 0C42.7 5.9 52.9 11.8 63 17.6c.1 0 .2.1.4.2-9.3 5.4-18.7 10.8-28 16.2-.8-.9-1.8-1.5-3-1.6-1.3 0-2.3.6-3.1 1.6-9.5-5.4-18.8-10.8-28.2-16.2zm32.3 54.9V40.5c0-.3.1-.4.4-.6 1.4-.6 2.2-1.6 2.4-3.1 0-.1.1-.3 0-.4-.2-.4.1-.5.4-.7 9.2-5.3 18.5-10.7 27.7-16 .1 0 .1-.1.3-.1v35c0 .2 0 .4-.3.5C54.1 61 43.9 66.9 33.7 72.7c-.1-.1-.2-.1-.3 0zM0 19.4c9.5 5.5 19 11 28.4 16.4-.3 1.3.5 3.3 2.4 4 .3.1.3.2.3.5v32.4c-.1-.1-.3-.1-.3-.2C20.6 66.6 10.4 60.7.3 54.9c-.2-.2-.3-.3-.3-.5v-35zm130.3 37.1V17.9h14.9c5.3.1 10 1.7 14 5.3 3.2 2.9 5.1 6.5 5.7 10.7.6 3.9.2 7.8-1.5 11.4-2.1 4.6-5.7 7.7-10.4 9.6-2.6 1-5.2 1.5-7.9 1.5h-14.4c0 .1-.2.1-.4.1zm6.7-6.1h7.8c1.2 0 2.3-.1 3.5-.4 3.9-.9 6.8-3.1 8.5-6.8 1.4-2.9 1.5-6 .9-9.1-.5-2.5-1.6-4.7-3.4-6.5-2.6-2.4-5.7-3.5-9.1-3.6h-8c-.2 8.9-.2 17.6-.2 26.4zm65.4-22.1c-1.3-1.2-2.7-2.2-4.2-3.1-4.4-2.6-10.8-2.4-15 1.6-2.3 2.2-3.7 4.9-4.1 8-.5 3.2-.1 6.3 1.4 9.2 2 3.8 5 6.1 9.2 6.7 3.6.5 7-.3 10-2.4 1-.8 2-1.5 2.9-2.3 1.5 1.4 3 2.8 4.5 4.3-1.8 1.9-3.7 3.5-6 4.7-2.7 1.4-5.6 2-8.6 2.2-4.9.2-9.4-1-13.3-4.1-4.1-3.2-6.5-7.5-7.3-12.6-.7-4.3-.1-8.5 1.9-12.4 3.1-6.1 8.1-9.6 14.9-10.6 3.8-.5 7.6-.2 11.2 1.2 2.6 1 4.9 2.6 6.9 4.6-1.5 1.6-2.9 3.3-4.4 5zM96.8 40.8v15.7h-6.7V18h28.6v6.1H96.8v10.6h19.4v6.1H96.8zM261.1 57c0-4.1.6-6.7.6-10.5 0-2.1-1.6-4.3-8.1-4.4v-4c6.5-.1 8.1-2.2 8.1-4.4 0-3.6-.6-6.5-.6-10.5 0-6.1 3.4-7.9 10.7-7.9h4V19h-2.7c-5.3 0-6.5 1.2-6.5 4.6 0 3.2.3 6.4.3 9.9 0 4.1-1.5 5.8-5.5 6.5v.2c4.1.7 5.5 2.5 5.5 6.5 0 3.7-.3 6.6-.3 9.9 0 3.5 1.2 4.6 6.5 4.6h2.7v3.6h-4c-7.3.1-10.7-1.7-10.7-7.8zM282 27.8h6.5l2.5 14.7c.4 2.7.8 5.3 1.1 8.1h.2c.3-2.8.9-5.4 1.5-8.1l2.6-11.9h5.4l2.6 11.9c.6 2.7 1.2 5.3 1.6 8.1h.2c.4-2.8.6-5.4 1-8.1l2.5-14.7h6.2l-5.2 28.3h-8.1l-2.4-11.3c-.4-2.2-.8-5-1.2-8.4h-.2c-.4 3-.7 5.6-1.2 8.4l-2.3 11.3h-8L282 27.8zM319.3 42c0-9.5 6.8-14.9 14.2-14.9 7.5 0 14.2 5.4 14.2 14.9 0 9.4-6.8 14.8-14.2 14.8-7.5 0-14.2-5.4-14.2-14.8zm21.6 0c0-5.7-2.8-9.4-7.4-9.4-4.6 0-7.4 3.8-7.4 9.4 0 5.7 2.8 9.4 7.4 9.4 4.6 0 7.4-3.7 7.4-9.4zm17.4-14.2h5.5l.6 6.4h.2c2.9-4.6 7.2-7.1 12-7.1 2.3 0 3.8.4 5.5 1.2l-1.4 5.6c-1.9-.6-3-.9-5.1-.9-3.9 0-7.7 2-10.6 7.5v15.6h-6.7V27.8zm32.3-12.4h6.7v25.5h.2l12.7-13.1h7.4l-20.4 20.9v7.4h-6.7V15.4zm11.3 26.8l3.9-4.2 13 18.1h-7.3l-9.6-13.9zM430.7 53h-.2l-.6 3.1h-5.2V15.4h6.7V26l-.3 5h.2c2.3-2.3 5.6-3.8 8.6-3.8 7.3 0 11.6 5.7 11.6 14.4 0 9.7-6 15.3-12.5 15.3-2.7-.1-5.8-1.4-8.3-3.9zm13.9-11.4c0-5.6-2-8.9-6.6-8.9-2.1 0-4.4 1-6.7 3.4v12.7c2.1 1.9 4.5 2.5 6.2 2.5 4 0 7.1-3.3 7.1-9.7zm13.5.4c0-9.2 7-14.8 14.6-14.8 8.4 0 13.1 5.6 13.1 13.4 0 1.3-.2 2.6-.3 3.3h-22.7v-4.7h18.4l-1.3 1.5c0-5.6-2.6-8.4-7.1-8.4-4.7 0-8.3 3.4-8.3 9.7 0 6.6 4 9.7 9.9 9.7 3 0 5.4-.9 7.9-2.3l2.3 4.1c-3 2-6.9 3.3-11.1 3.3-8.6 0-15.4-5.4-15.4-14.8zm35.8-14.2h5.4l.5 4.3h.2c2.7-2.7 5.9-5 10.2-5 6.5 0 9.5 4.2 9.5 11.5v17.5H513V39.5c0-4.5-1.5-6.6-5.3-6.6-2.8 0-4.7 1.4-7.3 4v19.3h-6.7V27.8zM528 42c0-9.5 7.4-14.9 16.1-14.9 4.5 0 8.1 1.7 10.5 4l-3.1 4.2c-2.2-1.8-4.5-2.7-7-2.7-5.7 0-9.6 3.8-9.6 9.4 0 5.7 3.9 9.4 9.4 9.4 3.2 0 5.9-1.4 8.1-3.1l2.8 4.3c-3.3 2.8-7.4 4.3-11.4 4.3-9.1-.1-15.8-5.5-15.8-14.9zm35.1-26.6h6.7V26l-.4 6.1h.2c2.5-2.6 5.6-4.9 9.9-4.9 6.5 0 9.5 4.2 9.5 11.5v17.5h-6.7V39.5c0-4.5-1.5-6.6-5.3-6.6-2.8 0-4.7 1.4-7.3 4v19.3H563V15.4zm35.7 45.9h2.6c5.3 0 6.5-1.2 6.5-4.6 0-3.3-.3-6.2-.3-9.9 0-4.1 1.4-5.8 5.5-6.5V40c-4.1-.7-5.5-2.5-5.5-6.5 0-3.5.3-6.7.3-9.9 0-3.5-1.2-4.6-6.5-4.6h-2.6v-3.6h4c7.3 0 10.7 1.9 10.7 7.9 0 4-.6 6.9-.6 10.5 0 2.1 1.6 4.3 8.1 4.4v4c-6.5.1-8.1 2.2-8.1 4.4 0 3.8.6 6.3.6 10.5 0 6.1-3.3 7.9-10.7 7.9h-4v-3.7z" fill="#fff"/></svg>