<?xml version="1.0" encoding="utf-8"?>
<!-- Generator: Adobe Illustrator 26.5.0, SVG Export Plug-In . SVG Version: 6.00 Build 0)  -->
<svg version="1.1" id="Layer_1" xmlns="http://www.w3.org/2000/svg" xmlns:xlink="http://www.w3.org/1999/xlink" x="0px" y="0px"
	 viewBox="0 0 621 72.7" style="enable-background:new 0 0 621 72.7;" xml:space="preserve">
<style type="text/css">
	.st0{fill:#FFFFFF;}
</style>
<g>
	<g>
		<path class="st0" d="M229.6,36.3c-0.1,0.4-0.2,0.8-0.3,1.1c-0.8,3-2.8,4.9-5.8,5.6c-5,1.2-9.4,0.1-13-3.7
			c-0.1-0.1-0.1-0.2-0.3-0.3c1.3-1.2,2.6-2.5,3.9-3.7c0.5,0.4,0.9,0.9,1.4,1.3c1.6,1.4,3.4,1.9,5.5,1.8c2.2-0.2,3.5-2,3-4.1
			c-0.3-0.9-0.9-1.5-1.8-1.8c-1-0.4-2-0.5-3.1-0.5c-0.8,0-1.6,0-2.4,0c-0.2-0.8-0.3-1.6-0.6-2.4c-0.3-0.9-0.1-1.5,0.6-2.1
			c1.7-1.6,3.3-3.3,4.9-4.9c0.1-0.1,0.2-0.2,0.3-0.4c-3.4,0-6.7,0-10.1,0c0-1.6,0-3.3,0-4.9c5.8,0,11.6,0,17.4,0c0,0.1,0,0.2,0,0.3
			c0,1.2,0,2.5,0,3.8c0,0.2-0.2,0.4-0.3,0.6c-2,1.9-4,3.8-6,5.8c0,0,0,0-0.1,0.1c0.3,0.1,0.5,0.1,0.8,0.2c1.3,0.3,2.5,0.8,3.6,1.6
			c1.4,1,2.1,2.4,2.4,4c0,0.1,0,0.1,0.1,0.3C229.6,34.6,229.6,35.5,229.6,36.3z"/>
		<g>
			<path class="st0" d="M1.1,17.8c0.1-0.1,0.3-0.2,0.4-0.2C11.7,11.7,21.8,5.9,32,0.1c0.2-0.1,0.3-0.1,0.5,0
				c10.2,5.8,20.4,11.7,30.5,17.5c0.1,0,0.2,0.1,0.4,0.2C54.1,23.2,44.7,28.6,35.4,34c-0.8-0.9-1.8-1.5-3-1.6
				c-1.3,0-2.3,0.6-3.1,1.6C19.8,28.6,10.5,23.2,1.1,17.8z"/>
			<path class="st0" d="M33.4,72.7c0-0.2,0-0.3,0-0.4c0-10.6,0-21.2,0-31.8c0-0.3,0.1-0.4,0.4-0.6c1.4-0.6,2.2-1.6,2.4-3.1
				c0-0.1,0.1-0.3,0-0.4c-0.2-0.4,0.1-0.5,0.4-0.7c9.2-5.3,18.5-10.7,27.7-16c0.1,0,0.1-0.1,0.3-0.1c0,0.1,0,0.3,0,0.4
				c0,11.5,0,23.1,0,34.6c0,0.2,0,0.4-0.3,0.5c-10.2,5.9-20.4,11.8-30.6,17.6C33.6,72.6,33.5,72.6,33.4,72.7z"/>
			<path class="st0" d="M0,19.4c9.5,5.5,19,11,28.4,16.4c-0.3,1.3,0.5,3.3,2.4,4c0.3,0.1,0.3,0.2,0.3,0.5c0,10.7,0,21.3,0,32
				c0,0.1,0,0.2,0,0.4c-0.1-0.1-0.3-0.1-0.3-0.2C20.6,66.6,10.4,60.7,0.3,54.9C0.1,54.7,0,54.6,0,54.4c0-11.5,0-23,0-34.5
				C0,19.7,0,19.6,0,19.4z"/>
		</g>
		<path class="st0" d="M130.3,56.5c0-12.9,0-25.7,0-38.6c0.1,0,0.3,0,0.4,0c4.8,0,9.7,0,14.5,0c5.3,0.1,10,1.7,14,5.3
			c3.2,2.9,5.1,6.5,5.7,10.7c0.6,3.9,0.2,7.8-1.5,11.4c-2.1,4.6-5.7,7.7-10.4,9.6c-2.6,1-5.2,1.5-7.9,1.5c-4.8,0-9.6,0-14.4,0
			C130.7,56.5,130.5,56.5,130.3,56.5z M137,50.4c0.1,0,0.2,0,0.3,0c2.5,0,5,0,7.5,0c1.2,0,2.3-0.1,3.5-0.4c3.9-0.9,6.8-3.1,8.5-6.8
			c1.4-2.9,1.5-6,0.9-9.1c-0.5-2.5-1.6-4.7-3.4-6.5c-2.6-2.4-5.7-3.5-9.1-3.6c-2.6,0-5.1,0-7.6,0c-0.1,0-0.3,0-0.4,0
			C137,32.9,137,41.6,137,50.4z"/>
		<path class="st0" d="M202.4,28.3c-1.3-1.2-2.7-2.2-4.2-3.1c-4.4-2.6-10.8-2.4-15,1.6c-2.3,2.2-3.7,4.9-4.1,8
			c-0.5,3.2-0.1,6.3,1.4,9.2c2,3.8,5,6.1,9.2,6.7c3.6,0.5,7-0.3,10-2.4c1-0.8,2-1.5,2.9-2.3c1.5,1.4,3,2.8,4.5,4.3
			c-1.8,1.9-3.7,3.5-6,4.7c-2.7,1.4-5.6,2-8.6,2.2c-4.9,0.2-9.4-1-13.3-4.1c-4.1-3.2-6.5-7.5-7.3-12.6c-0.7-4.3-0.1-8.5,1.9-12.4
			c3.1-6.1,8.1-9.6,14.9-10.6c3.8-0.5,7.6-0.2,11.2,1.2c2.6,1,4.9,2.6,6.9,4.6C205.3,24.9,203.9,26.6,202.4,28.3z"/>
		<path class="st0" d="M96.8,40.8c0,5.3,0,10.4,0,15.7c-2.2,0-4.5,0-6.7,0c0-12.8,0-25.7,0-38.5c9.5,0,19.1,0,28.6,0
			c0,2,0,4.1,0,6.1c-7.3,0-14.6,0-21.9,0c0,3.5,0,7.1,0,10.6c6.5,0,12.9,0,19.4,0c0,2.1,0,4.1,0,6.1
			C109.8,40.8,103.3,40.8,96.8,40.8z"/>
	</g>
	<g>
		<path class="st0" d="M261.1,57c0-4.1,0.6-6.7,0.6-10.5c0-2.1-1.6-4.3-8.1-4.4v-4c6.5-0.1,8.1-2.2,8.1-4.4c0-3.6-0.6-6.5-0.6-10.5
			c0-6.1,3.4-7.9,10.7-7.9h4V19h-2.7c-5.3,0-6.5,1.2-6.5,4.6c0,3.2,0.3,6.4,0.3,9.9c0,4.1-1.5,5.8-5.5,6.5v0.2
			c4.1,0.7,5.5,2.5,5.5,6.5c0,3.7-0.3,6.6-0.3,9.9c0,3.5,1.2,4.6,6.5,4.6h2.7v3.6h-4C264.5,64.9,261.1,63.1,261.1,57z"/>
		<path class="st0" d="M282,27.8h6.5l2.5,14.7c0.4,2.7,0.8,5.3,1.1,8.1h0.2c0.3-2.8,0.9-5.4,1.5-8.1l2.6-11.9h5.4l2.6,11.9
			c0.6,2.7,1.2,5.3,1.6,8.1h0.2c0.4-2.8,0.6-5.4,1-8.1l2.5-14.7h6.2l-5.2,28.3h-8.1l-2.4-11.3c-0.4-2.2-0.8-5-1.2-8.4h-0.2
			c-0.4,3-0.7,5.6-1.2,8.4l-2.3,11.3h-8L282,27.8z"/>
		<path class="st0" d="M319.3,42c0-9.5,6.8-14.9,14.2-14.9c7.5,0,14.2,5.4,14.2,14.9c0,9.4-6.8,14.8-14.2,14.8
			C326,56.8,319.3,51.4,319.3,42z M340.9,42c0-5.7-2.8-9.4-7.4-9.4c-4.6,0-7.4,3.8-7.4,9.4c0,5.7,2.8,9.4,7.4,9.4
			C338.1,51.4,340.9,47.7,340.9,42z"/>
		<path class="st0" d="M358.3,27.8h5.5l0.6,6.4h0.2c2.9-4.6,7.2-7.1,12-7.1c2.3,0,3.8,0.4,5.5,1.2l-1.4,5.6c-1.9-0.6-3-0.9-5.1-0.9
			c-3.9,0-7.7,2-10.6,7.5v15.6h-6.7V27.8z"/>
		<path class="st0" d="M390.6,15.4h6.7v25.5h0.2l12.7-13.1h7.4l-20.4,20.9v7.4h-6.7V15.4z M401.9,42.2l3.9-4.2l13,18.1h-7.3
			L401.9,42.2z"/>
		<path class="st0" d="M430.7,53h-0.2l-0.6,3.1h-5.2V15.4h6.7V26l-0.3,5h0.2c2.3-2.3,5.6-3.8,8.6-3.8c7.3,0,11.6,5.7,11.6,14.4
			c0,9.7-6,15.3-12.5,15.3C436.3,56.8,433.2,55.5,430.7,53z M444.6,41.6c0-5.6-2-8.9-6.6-8.9c-2.1,0-4.4,1-6.7,3.4v12.7
			c2.1,1.9,4.5,2.5,6.2,2.5C441.5,51.3,444.6,48,444.6,41.6z"/>
		<path class="st0" d="M458.1,42c0-9.2,7-14.8,14.6-14.8c8.4,0,13.1,5.6,13.1,13.4c0,1.3-0.2,2.6-0.3,3.3h-22.7v-4.7h18.4l-1.3,1.5
			c0-5.6-2.6-8.4-7.1-8.4c-4.7,0-8.3,3.4-8.3,9.7c0,6.6,4,9.7,9.9,9.7c3,0,5.4-0.9,7.9-2.3l2.3,4.1c-3,2-6.9,3.3-11.1,3.3
			C464.9,56.8,458.1,51.4,458.1,42z"/>
		<path class="st0" d="M493.9,27.8h5.4l0.5,4.3h0.2c2.7-2.7,5.9-5,10.2-5c6.5,0,9.5,4.2,9.5,11.5v17.5h-6.7V39.5
			c0-4.5-1.5-6.6-5.3-6.6c-2.8,0-4.7,1.4-7.3,4v19.3h-6.7V27.8z"/>
		<path class="st0" d="M528,42c0-9.5,7.4-14.9,16.1-14.9c4.5,0,8.1,1.7,10.5,4l-3.1,4.2c-2.2-1.8-4.5-2.7-7-2.7
			c-5.7,0-9.6,3.8-9.6,9.4c0,5.7,3.9,9.4,9.4,9.4c3.2,0,5.9-1.4,8.1-3.1l2.8,4.3c-3.3,2.8-7.4,4.3-11.4,4.3
			C534.7,56.8,528,51.4,528,42z"/>
		<path class="st0" d="M563.1,15.4h6.7V26l-0.4,6.1h0.2c2.5-2.6,5.6-4.9,9.9-4.9c6.5,0,9.5,4.2,9.5,11.5v17.5h-6.7V39.5
			c0-4.5-1.5-6.6-5.3-6.6c-2.8,0-4.7,1.4-7.3,4v19.3h-6.7V15.4z"/>
		<path class="st0" d="M598.8,61.3h2.6c5.3,0,6.5-1.2,6.5-4.6c0-3.3-0.3-6.2-0.3-9.9c0-4.1,1.4-5.8,5.5-6.5V40
			c-4.1-0.7-5.5-2.5-5.5-6.5c0-3.5,0.3-6.7,0.3-9.9c0-3.5-1.2-4.6-6.5-4.6h-2.6v-3.6h4c7.3,0,10.7,1.9,10.7,7.9
			c0,4-0.6,6.9-0.6,10.5c0,2.1,1.6,4.3,8.1,4.4v4c-6.5,0.1-8.1,2.2-8.1,4.4c0,3.8,0.6,6.3,0.6,10.5c0,6.1-3.3,7.9-10.7,7.9h-4V61.3z
			"/>
	</g>
</g>
</svg>
