<?xml version="1.0" encoding="UTF-8"?>
<svg width="1200pt" height="1200pt" version="1.1" viewBox="0 0 1200 1200" xmlns="http://www.w3.org/2000/svg">
 <path d="m225.05 187.5c-61.688 0-112.64 50.672-112.64 112.36v600.14c0 61.688 50.953 112.41 112.64 112.41h749.9c61.688 0 112.64-50.766 112.64-112.41v-600.14c0-61.688-50.953-112.36-112.64-112.36zm0 75h749.9c21.422 0 37.641 15.938 37.641 37.359v600.14c0 21.422-16.219 37.406-37.641 37.406h-749.9c-21.422 0-37.641-15.984-37.641-37.406v-600.14c0-21.422 16.219-37.359 37.641-37.359zm569.9 187.4c-6.5625 0-13.031 1.6875-18.75 4.9688-8.625 4.9688-14.953 13.125-17.531 22.734s-1.2656 19.875 3.7031 28.5c33.516 58.078 33.516 129.66 0 187.74v-0.046875c-4.9688 8.625-6.2812 18.891-3.7031 28.453 2.5781 9.6094 8.9062 17.812 17.531 22.734 8.625 4.9688 18.844 6.2812 28.453 3.7031s17.766-8.9062 22.734-17.531c46.875-81.188 46.875-181.26 0-262.4-6.6562-11.625-19.031-18.797-32.438-18.844zm-389.81 0.09375c-3.2344 0-6.4688 0.46875-9.5625 1.3125-9.7031 2.4844-18 8.7656-23.016 17.438-46.875 81.188-46.875 181.26 0 262.4 4.9688 8.6719 13.125 14.953 22.781 17.578 9.6094 2.5781 19.875 1.2656 28.5-3.75 8.625-4.9219 14.906-13.125 17.531-22.734 2.5781-9.5625 1.2656-19.828-3.7031-28.453-33.516-58.078-33.516-129.66 0-187.74v0.046875c4.9688-8.625 6.2812-18.891 3.7031-28.5-2.625-9.6094-8.9062-17.766-17.531-22.734-5.7188-3.2344-12.141-4.9219-18.703-4.875zm194.81 112.5h0.046875c-20.719 0-37.5 16.781-37.5 37.5 0 9.9375 3.9375 19.453 10.969 26.484s16.547 11.016 26.531 11.016c9.9375 0 19.453-3.9844 26.484-11.016s11.016-16.547 11.016-26.484c0-9.9844-3.9844-19.5-11.016-26.531s-16.547-10.969-26.484-10.969z"/>
</svg>
