<?xml version="1.0" encoding="UTF-8"?>
<svg width="1200pt" height="1200pt" version="1.1" viewBox="0 0 1200 1200" xmlns="http://www.w3.org/2000/svg">
 <path d="m989 211c-103.16-103.11-243.05-161.02-388.9-161-145.86 0.023438-285.73 57.98-388.86 161.12-103.12 103.14-161.06 243.02-161.06 388.88s57.934 285.73 161.06 388.88c103.13 103.14 243 161.1 388.86 161.12 145.85 0.023438 285.74-57.891 388.9-161 68.305-68.273 117.43-153.33 142.43-246.61 25.004-93.281 25.004-191.5 0-284.78-25-93.281-74.125-178.34-142.43-246.61zm-71 707c-62.91 62.988-143.09 105.9-230.4 123.31-87.309 17.41-177.82 8.5312-260.07-25.512-82.262-34.043-152.57-91.723-202.05-165.73-49.469-74.016-75.875-161.04-75.875-250.07s26.406-176.05 75.875-250.07c49.473-74.012 119.79-131.69 202.05-165.73 82.258-34.043 172.77-42.922 260.07-25.512 87.305 17.41 167.49 60.324 230.4 123.31 84.27 84.375 131.61 198.75 131.61 318s-47.336 233.62-131.61 318z"/>
 <path d="m850 352.5c-9.3672-9.3125-22.039-14.539-35.25-14.539s-25.883 5.2266-35.25 14.539l-179.5 177-177-177c-12.871-11.023-30.453-14.777-46.703-9.9688-16.25 4.8047-28.961 17.516-33.766 33.766-4.8086 16.25-1.0547 33.832 9.9688 46.703l177 177-177 177c-9.3125 9.3672-14.539 22.039-14.539 35.25s5.2266 25.883 14.539 35.25c9.4375 9.3594 22.211 14.578 35.5 14.5 13.117-0.054688 25.688-5.2617 35-14.5l177-177 177 179.5c9.3125 9.2383 21.883 14.445 35 14.5 14.148 0.76953 27.961-4.5 38-14.5 9.3125-9.3672 14.539-22.039 14.539-35.25s-5.2266-25.883-14.539-35.25l-179.5-179.5 179.5-177c9.3125-9.3672 14.539-22.039 14.539-35.25s-5.2266-25.883-14.539-35.25z"/>
</svg>
