<?xml version="1.0" encoding="UTF-8"?>
<svg width="1200pt" height="1200pt" version="1.1" viewBox="0 0 1200 1200" xmlns="http://www.w3.org/2000/svg">
 <path d="m405 750c39.781 0 77.938-15.805 106.07-43.934s43.934-66.285 43.934-106.07-15.805-77.938-43.934-106.07-66.285-43.934-106.07-43.934-77.938 15.805-106.07 43.934-43.934 66.285-43.934 106.07 15.805 77.938 43.934 106.07 66.285 43.934 106.07 43.934zm0-240c23.871 0 46.762 9.4805 63.641 26.359s26.359 39.77 26.359 63.641-9.4805 46.762-26.359 63.641-39.77 26.359-63.641 26.359-46.762-9.4805-63.641-26.359-26.359-39.77-26.359-63.641 9.4805-46.762 26.359-63.641 39.77-26.359 63.641-26.359z"/>
 <path d="m405 360c39.781 0 77.938-15.805 106.07-43.934s43.934-66.285 43.934-106.07-15.805-77.938-43.934-106.07-66.285-43.934-106.07-43.934-77.938 15.805-106.07 43.934-43.934 66.285-43.934 106.07 15.805 77.938 43.934 106.07 66.285 43.934 106.07 43.934zm0-240c23.871 0 46.762 9.4805 63.641 26.359s26.359 39.77 26.359 63.641-9.4805 46.762-26.359 63.641-39.77 26.359-63.641 26.359-46.762-9.4805-63.641-26.359-26.359-39.77-26.359-63.641 9.4805-46.762 26.359-63.641 39.77-26.359 63.641-26.359z"/>
 <path d="m405 1140c39.781 0 77.938-15.805 106.07-43.934s43.934-66.285 43.934-106.07-15.805-77.938-43.934-106.07-66.285-43.934-106.07-43.934-77.938 15.805-106.07 43.934-43.934 66.285-43.934 106.07 15.805 77.938 43.934 106.07 66.285 43.934 106.07 43.934zm0-240c23.871 0 46.762 9.4805 63.641 26.359s26.359 39.77 26.359 63.641-9.4805 46.762-26.359 63.641-39.77 26.359-63.641 26.359-46.762-9.4805-63.641-26.359-26.359-39.77-26.359-63.641 9.4805-46.762 26.359-63.641 39.77-26.359 63.641-26.359z"/>
 <path d="m795 750c39.781 0 77.938-15.805 106.07-43.934s43.934-66.285 43.934-106.07-15.805-77.938-43.934-106.07-66.285-43.934-106.07-43.934-77.938 15.805-106.07 43.934-43.934 66.285-43.934 106.07 15.805 77.938 43.934 106.07 66.285 43.934 106.07 43.934zm0-240c23.871 0 46.762 9.4805 63.641 26.359s26.359 39.77 26.359 63.641-9.4805 46.762-26.359 63.641-39.77 26.359-63.641 26.359-46.762-9.4805-63.641-26.359-26.359-39.77-26.359-63.641 9.4805-46.762 26.359-63.641 39.77-26.359 63.641-26.359z"/>
 <path d="m795 360c39.781 0 77.938-15.805 106.07-43.934s43.934-66.285 43.934-106.07-15.805-77.938-43.934-106.07-66.285-43.934-106.07-43.934-77.938 15.805-106.07 43.934-43.934 66.285-43.934 106.07 15.805 77.938 43.934 106.07 66.285 43.934 106.07 43.934zm0-240c23.871 0 46.762 9.4805 63.641 26.359s26.359 39.77 26.359 63.641-9.4805 46.762-26.359 63.641-39.77 26.359-63.641 26.359-46.762-9.4805-63.641-26.359-26.359-39.77-26.359-63.641 9.4805-46.762 26.359-63.641 39.77-26.359 63.641-26.359z"/>
 <path d="m795 1140c39.781 0 77.938-15.805 106.07-43.934s43.934-66.285 43.934-106.07-15.805-77.938-43.934-106.07-66.285-43.934-106.07-43.934-77.938 15.805-106.07 43.934-43.934 66.285-43.934 106.07 15.805 77.938 43.934 106.07 66.285 43.934 106.07 43.934zm0-240c23.871 0 46.762 9.4805 63.641 26.359s26.359 39.77 26.359 63.641-9.4805 46.762-26.359 63.641-39.77 26.359-63.641 26.359-46.762-9.4805-63.641-26.359-26.359-39.77-26.359-63.641 9.4805-46.762 26.359-63.641 39.77-26.359 63.641-26.359z"/>
</svg>
