<svg xmlns="http://www.w3.org/2000/svg" viewBox="0 0 612 792"><path d="M636.48 415.26c18.21 0 29.41-11.32 29.41-26.73v-.23c0-15.18-10.85-21.02-21.94-22.89l20.65-19.74v-13.53h-55.21v15.4h32.11L622 367.16l2.8 11.45h7.47c10.04 0 16 3.74 16 10.39v.23c0 6.07-4.79 9.93-11.56 9.93-8.29 0-14.13-3.5-19.73-9.81l-12.38 11.79c7.01 8.28 17.17 14.12 31.88 14.12zm-399.54 41.11h21.29v-49.73h61.6v-19.37h-61.6V353.6h69.45v-19.37h-90.73v122.14h-.01zm135.75-19.36V353.6h24.08c6.4 0 12.21 1.05 17.45 3.16 5.24 2.1 9.68 4.99 13.35 8.67 3.66 3.68 6.51 8.09 8.55 13.23 2.03 5.14 3.05 10.69 3.05 16.64v.35c0 5.96-1.02 11.48-3.05 16.56-2.04 5.08-4.89 9.46-8.55 13.14-3.66 3.68-8.11 6.54-13.35 8.59-5.23 2.05-11.05 3.07-17.45 3.07h-24.08zm-21.29 19.36h45.54c9.54 0 18.29-1.57 26.26-4.71 7.97-3.14 14.83-7.44 20.59-12.91s10.21-11.92 13.35-19.37c3.14-7.44 4.71-15.47 4.71-24.08v-.35c0-8.61-1.57-16.6-4.71-23.99-3.14-7.39-7.59-13.81-13.35-19.28-5.76-5.47-12.62-9.74-20.59-12.82-7.97-3.08-16.72-4.62-26.26-4.62H351.4v122.13zm208.95.61c4.71-.99 9.04-2.44 13-4.36a65.66 65.66 0 0011.08-6.8c3.43-2.62 6.72-5.61 9.86-8.99l-13.78-13.96c-5.23 4.89-10.53 8.75-15.88 11.6-5.35 2.85-11.75 4.28-19.19 4.28-5.82 0-11.2-1.14-16.14-3.4-4.94-2.27-9.22-5.38-12.82-9.33-3.61-3.95-6.4-8.58-8.38-13.87-1.98-5.29-2.97-10.91-2.97-16.84v-.35c0-5.93.99-11.52 2.97-16.75 1.98-5.23 4.77-9.8 8.38-13.7 3.6-3.9 7.88-6.98 12.82-9.25 4.94-2.27 10.32-3.4 16.14-3.4 6.98 0 13.2 1.4 18.67 4.19 5.47 2.79 10.64 6.46 15.53 10.99l13.79-15.88a83.54 83.54 0 00-9.25-7.68c-3.26-2.32-6.81-4.33-10.64-6.02-3.84-1.68-8.06-2.99-12.65-3.93-4.6-.93-9.68-1.4-15.27-1.4-9.31 0-17.8 1.66-25.47 4.97-7.68 3.32-14.33 7.85-19.94 13.61-5.62 5.76-9.98 12.45-13.09 20.07-3.11 7.62-4.66 15.79-4.66 24.51v.35c0 8.72 1.58 16.93 4.75 24.6 3.16 7.68 7.53 14.34 13.09 19.98 5.56 5.64 12.12 10.09 19.68 13.35 7.56 3.26 15.82 4.89 24.78 4.89 5.67.01 10.88-.49 15.59-1.48z"/><path d="M165.35 458.43V339.12l-96.22 55.55c.06.51.29.95.29 1.46 0 5.98-4.03 10.84-9.47 12.49v110.65l105.4-60.84z" fill="#0054a6"/><path d="M66.5 388.17l94.88-54.78v-.3L56.17 273l-105.2 60.1v.3l94.88 54.77c2.42-3.14 6.05-5.29 10.32-5.29 4.28 0 7.9 2.16 10.33 5.29z" fill="#5d93cd"/><path d="M43.22 394.67L-53 339.12v119.3l105.39 60.85V408.62c-5.44-1.65-9.47-6.51-9.47-12.49 0-.51.24-.95.3-1.46z"/></svg>