<svg xmlns="http://www.w3.org/2000/svg" viewBox="0 0 1200 628"><path d="M871.7 477.6V358.2l-96.3 55.6c.1.5.3.9.3 1.5 0 6-4 10.8-9.5 12.5v110.7l105.5-60.9zm-99-70.3l95-54.8v-.3L762.4 292l-105.3 60.2v.3l95 54.8c2.4-3.1 6.1-5.3 10.3-5.3 4.3 0 7.9 2.1 10.3 5.3zm-23.3 6.5l-96.3-55.6v119.4l105.5 60.9V427.7c-5.4-1.7-9.5-6.5-9.5-12.5.1-.5.3-.9.3-1.4zm-302.8-6.5l95-54.8v-.3L436.3 292 331 352.1v.3l95 54.8c2.4-3.1 6.1-5.3 10.3-5.3 4.2.1 7.9 2.2 10.3 5.4zm-23.3 6.5L327 358.2v119.4l105.5 60.9V427.7c-5.4-1.7-9.5-6.5-9.5-12.5 0-.5.2-.9.3-1.4zm122.2 63.8V358.2l-96.3 55.6c.1.5.3.9.3 1.5 0 6-4 10.8-9.5 12.5v110.7l105.5-60.9zm186.1-296.8c0-50.2-59.2-90.8-132.3-90.8S467 130.7 467 180.8c0 25.2 15 48 39.1 64.5l-1.4 52 38.1-34.4c17.1 5.6 36.2 8.8 56.5 8.8 73.1 0 132.3-40.7 132.3-90.9zm-166.3-33.9l-33.9 33.9 33.9 33.9-6.3 6.3-40.2-40.2 40.2-40.2 6.3 6.3zm7.9 33.9c0 3-2.4 5.4-5.4 5.4s-5.4-2.4-5.4-5.4 2.4-5.4 5.4-5.4c2.9 0 5.4 2.4 5.4 5.4zm30.1 0c0 3-2.4 5.4-5.4 5.4s-5.4-2.4-5.4-5.4 2.4-5.4 5.4-5.4c2.9 0 5.4 2.4 5.4 5.4zm30.1 0c0 3-2.4 5.4-5.4 5.4s-5.4-2.4-5.4-5.4 2.4-5.4 5.4-5.4c2.9 0 5.4 2.4 5.4 5.4zm46.4 0L639.7 221l-6.3-6.3 33.9-33.9-33.9-33.9 6.3-6.3 40.1 40.2z" fill="#0033a0"/></svg>