<svg xmlns="http://www.w3.org/2000/svg" viewBox="0 0 1200 628"><path d="M823.2 473.5V354.1l-96.3 55.6c.1.5.3.9.3 1.5 0 6-4 10.8-9.5 12.5v110.7l105.5-60.9zm-99-70.3l95-54.8v-.3l-105.3-60.2-105.3 60.2v.3l95 54.8c2.4-3.1 6.1-5.3 10.3-5.3 4.3 0 7.9 2.2 10.3 5.3zm-23.3 6.5l-96.3-55.6v119.4l105.5 60.9V423.7c-5.4-1.7-9.5-6.5-9.5-12.5 0-.5.3-1 .3-1.5zm-106.4 63.8V354.1l-96.3 55.6c.1.5.3.9.3 1.5 0 6-4 10.8-9.5 12.5v110.7l105.5-60.9zm-98.9-70.3l95-54.8v-.3l-105.3-60.2L380 348.1v.3l95 54.8c2.4-3.1 6.1-5.3 10.3-5.3 4.2 0 7.9 2.2 10.3 5.3zm-23.3 6.5L376 354.1v119.4l105.5 60.9V423.7c-5.4-1.7-9.5-6.5-9.5-12.5 0-.5.2-1 .3-1.5zm236.6-129.1V161.2l-96.3 55.6c.1.5.3.9.3 1.5 0 6-4 10.8-9.5 12.5v110.7l105.5-60.9zm-99-70.3l95-54.8v-.3L599.6 95l-105.3 60.2v.3l95 54.8c2.4-3.1 6.1-5.3 10.3-5.3 4.3 0 7.9 2.1 10.3 5.3zm-23.3 6.5l-96.3-55.6v119.4l105.5 60.9V230.7c-5.4-1.7-9.5-6.5-9.5-12.5 0-.5.3-.9.3-1.4z" fill="#0033a0"/></svg>