<svg width="100" height="100" xmlns="http://www.w3.org/2000/svg"><g class="layer"><path d="M30.709 25.342h1.28a.6.6 0 0 0 .601-.601V20.6a.6.6 0 0 0-.601-.601h-1.506c-7.366 0-11.59 3.813-11.59 10.462 0 2.079.309 4.242.609 6.335.293 2.05.595 4.17.595 6.234 0 2.457-.653 4.97-5.496 4.97a.6.6 0 0 0-.601.601v3.839a.6.6 0 0 0 .601.601c4.927 0 5.496 2.88 5.496 5.045 0 1.486-.177 3.012-.365 4.63-.054.463-.108.931-.152 1.358-.475 2.565-.687 4.502-.687 6.281 0 7.037 4.09 10.912 11.515 10.912h1.581a.6.6 0 0 0 .601-.601v-4.14a.6.6 0 0 0-.601-.601H30.72c-3.757-.067-5.432-1.901-5.432-5.948 0-1.405.193-2.855.38-4.257l.141-1.079c.299-1.87.608-3.803.608-5.871.063-4.08-1.495-6.97-4.425-8.297 3.002-1.357 4.489-4.109 4.425-8.197 0-2.007-.28-3.758-.578-5.613l-.175-1.301c-.194-1.449-.376-2.816-.376-4.152 0-4.048 1.624-5.804 5.421-5.868zm54.347 22.66c-4.844 0-5.497-2.513-5.497-4.97 0-2.06.302-4.176.598-6.251.298-2.089.606-4.249.606-6.319C80.764 23.813 76.539 20 69.173 20h-1.505a.6.6 0 0 0-.601.601v4.141a.6.6 0 0 0 .601.601h1.269c3.807.065 5.432 1.82 5.432 5.872 0 1.336-.182 2.704-.376 4.152l-.173 1.283c-.298 1.859-.58 3.616-.58 5.621-.065 4.096 1.423 6.849 4.425 8.206-2.931 1.327-4.489 4.216-4.425 8.287 0 2.084.31 4.02.607 5.87l.142 1.09c.187 1.402.38 2.852.38 4.257 0 4.047-1.676 5.881-5.422 5.948h-1.279a.6.6 0 0 0-.601.601v4.14a.6.6 0 0 0 .601.601h1.581c7.426 0 11.515-3.876 11.515-10.912 0-2.149-.338-4.429-.608-6.257l-.034-.237c-.289-2.023-.562-3.935-.562-5.776 0-2.165.57-5.045 5.497-5.045a.6.6 0 0 0 .601-.601v-3.839a.603.603 0 0 0-.602-.602zM38.361 54.1c-1.87 0-3.19-1.485-3.19-3.465 0-1.98 1.375-3.465 3.3-3.465 1.925 0 3.245 1.43 3.245 3.465 0 1.98-1.32 3.465-3.3 3.465h-.055zm11.385 0c-1.87 0-3.19-1.485-3.19-3.465 0-1.98 1.375-3.465 3.3-3.465 1.925 0 3.246 1.43 3.246 3.465 0 1.98-1.32 3.465-3.3 3.465h-.056zm11.384 0c-1.87 0-3.19-1.485-3.19-3.465 0-1.98 1.375-3.465 3.3-3.465 1.925 0 3.246 1.43 3.246 3.465 0 1.98-1.32 3.465-3.3 3.465h-.056z"/><text font-family="'Helvetica Neue', Helvetica, Arial-Unicode, Arial, Sans-serif" font-size="5" font-weight="bold" y="115">Created by Sam Smith</text><text font-family="'Helvetica Neue', Helvetica, Arial-Unicode, Arial, Sans-serif" font-size="5" font-weight="bold" y="120">from the Noun Project</text></g></svg>