<svg xmlns="http://www.w3.org/2000/svg" width="460" height="491" viewBox="66.14 99.445 460 491"><path d="M505.985 221.527c0-32.937-26.491-59.858-64.178-78.13-37.687-18.273-88.361-29.02-144.167-29.02s-106.479 10.747-144.17 29.02c-37.688 18.272-64.178 45.193-64.178 78.13.06 82.118 0 166.926 0 250.018 0 32.937 26.491 59.67 64.178 77.944 37.689 18.273 88.364 29.206 144.17 29.206s106.48-10.933 144.17-29.206c37.687-18.272 64.178-45.008 64.178-77.943M297.64 138.186c52.687 0 100.342 10.403 133.752 26.602 33.409 16.199 50.785 37.072 50.785 56.738 0 19.666-17.376 40.353-50.785 56.552-33.41 16.199-81.065 26.788-133.752 26.788-52.686 0-100.342-10.59-133.752-26.788s-50.785-36.886-50.785-56.552 17.375-40.54 50.785-56.738 81.066-26.601 133.752-26.601zm-184.537 133.94c10.749 10.503 24.525 19.665 40.367 27.345 37.689 18.273 88.364 29.207 144.17 29.207s106.48-10.933 144.17-29.207c15.842-7.681 29.618-16.842 40.367-27.345v32.74c0 19.667-17.376 40.354-50.785 56.552-33.41 16.199-81.065 26.788-133.752 26.788-52.686 0-100.342-10.59-133.752-26.788s-50.785-36.886-50.785-56.551v-32.741zm0 83.34c10.749 10.503 24.525 19.665 40.367 27.345 37.689 18.273 88.364 29.207 144.17 29.207s106.48-10.933 144.17-29.207c15.842-7.681 29.618-16.842 40.367-27.345v32.74c0 19.666-17.376 40.353-50.785 56.55-33.41 16.2-81.065 26.789-133.752 26.789-52.686 0-100.342-10.59-133.752-26.788-33.41-16.198-50.785-36.885-50.785-56.551v-32.74zm0 83.339c10.749 10.503 24.525 19.665 40.367 27.345 37.689 18.273 88.364 29.207 144.17 29.207s106.48-10.933 144.17-29.207c15.842-7.68 29.618-16.842 40.367-27.345v32.74c0 19.665-17.376 40.353-50.785 56.552-33.41 16.199-81.065 26.787-133.752 26.787-52.686 0-100.342-10.588-133.752-26.787-33.409-16.2-50.785-36.887-50.785-56.552v-32.74z"/><text transform="translate(0 733.469)" font-family="'HelveticaNeue-Bold'" font-size="29.764">Created by Aybige</text><text transform="translate(0 763.23)" font-family="'HelveticaNeue-Bold'" font-size="29.764">from the Noun Project</text></svg>