<svg version="1.1" id="Layer_1" xmlns="http://www.w3.org/2000/svg" x="0" y="0" viewBox="0 0 1200 628" xml:space="preserve"><style>.st0{fill:#0033a0}</style><path class="st0" d="M596 242h6.2c.3 0 .7.1 1 .1 4.1.2 8.1.8 12.1 1.7 12 2.8 22.8 8.2 32 16.4 15 13.5 23.2 30.3 24.6 50.4.4 5.7 0 11.3-1 16.9-1.6 8.9-4.7 17.2-9.3 25-.1.2-.2.4-.4.7l.6.6 40.9 40.9c.6.6 1.2 1.2 1.4 2v2.5c-.2.6-.3 1.1-.5 1.7-.9 2.3-2.3 4.3-4 6.1-2.3 2.4-4.6 4.7-7 7-2.2 2.2-4.7 3.9-7.8 4.6l-.1.1h-2.4c-.9-.3-1.5-.9-2.2-1.6l-40.4-40.4c-.2-.2-.5-.4-.7-.6-.1 0-.2 0-.2.1-.3.2-.5.3-.8.5-10.6 6.7-22.1 10.4-34.6 11.2-3.9.2-7.8.2-11.6-.2-3.9-.4-7.7-1-11.4-2.1-14.9-4-27.4-11.9-37.3-23.7-10.2-12.1-15.8-26.1-16.9-41.9 0-.6-.2-1.2-.3-1.8v-6.4c.1-.2.1-.5.1-.7.1-1 .2-1.9.3-2.9.4-4.3 1.2-8.5 2.3-12.7 8.3-30.2 35.1-51.7 66.3-53.4.6 0 .8-.1 1.1-.1zm-45.6 73c-.1 26.6 21.6 48.7 48.7 48.8 26.9 0 48.7-21.8 48.8-48.7 0-27.2-22-48.8-48.7-48.8-26.9 0-48.8 21.8-48.8 48.7zm2.1-164.3c19.7-5.6 31.1-26.2 25.4-45.9-5.6-19.7-26.2-31.1-45.9-25.4-19.7 5.6-31.1 26.2-25.4 45.9 5.7 19.7 26.2 31.1 45.9 25.4zM667 549.9c19.7-5.6 31.1-26.2 25.4-45.9-5.6-19.7-26.2-31.1-45.9-25.4-19.7 5.6-31.1 26.2-25.4 45.9 5.7 19.6 26.2 31 45.9 25.4zM434.1 273.4c5-19.9-7.1-40-27-44.9-19.9-5-40 7.1-44.9 27-5 19.9 7.1 40 27 44.9 19.8 5 39.9-7.1 44.9-27zM837 373.9c5-19.9-7.1-40-27-44.9-19.9-5-40 7.1-44.9 27-5 19.9 7.1 40 27 44.9 19.8 4.9 39.9-7.2 44.9-27zM718 192c-14.7-14.2-15.1-37.7-.9-52.4 14.2-14.7 37.7-15.1 52.4-.9s15.1 37.7.9 52.4c-14.2 14.7-37.7 15.1-52.4.9zM429.6 490.7c-14.7-14.2-15.1-37.7-.9-52.4 14.2-14.7 37.7-15.1 52.4-.9 14.7 14.2 15.1 37.7.9 52.4s-37.7 15.1-52.4.9z"/><path class="st0" d="M402.5 263l-10.7 3.1L449.1 466l10.7-3.1zM750 163.3l-10.7 3.1 57.3 199.9 10.7-3z"/><path class="st0" d="M456.3 459.5l-2.7 10.8 201.8 50.3 2.7-10.8zm87.4-350.8l-2.7 10.8 201.8 50.3 2.7-10.7z"/><path class="st0" d="M797.8 361.5l8 7.8-144.5 149.6-8-7.7zm-260-251.1l8 7.8-144.5 149.6-8-7.7zm19.8 57.9c2.4-.7 3.8-3.2 3.1-5.6-.7-2.4-3.2-3.8-5.6-3.1-2.4.7-3.8 3.2-3.1 5.6s3.2 3.8 5.6 3.1zm4.6 16.1c2.4-.7 3.8-3.2 3.1-5.6-.7-2.4-3.2-3.8-5.6-3.1-2.4.7-3.8 3.2-3.1 5.6.7 2.4 3.2 3.8 5.6 3.1zm4.6 16.1c2.4-.7 3.8-3.2 3.1-5.6-.7-2.4-3.2-3.8-5.6-3.1-2.4.7-3.8 3.2-3.1 5.6s3.2 3.8 5.6 3.1zm4.6 16.1c2.4-.7 3.8-3.2 3.1-5.6-.7-2.4-3.2-3.8-5.6-3.1s-3.8 3.2-3.1 5.6c.7 2.4 3.2 3.8 5.6 3.1zm4.6 16.1c2.4-.7 3.8-3.2 3.1-5.6-.7-2.4-3.2-3.8-5.6-3.1s-3.8 3.2-3.1 5.6c.7 2.4 3.2 3.8 5.6 3.1zm49.5 172.6c2.4-.7 3.8-3.2 3.1-5.6s-3.2-3.8-5.6-3.1-3.8 3.2-3.1 5.6c.7 2.4 3.2 3.8 5.6 3.1zm4.7 16.1c2.4-.7 3.8-3.2 3.1-5.6s-3.2-3.8-5.6-3.1-3.8 3.2-3.1 5.6c.6 2.4 3.1 3.8 5.6 3.1zm4.6 16.1c2.4-.7 3.8-3.2 3.1-5.6s-3.2-3.8-5.6-3.1c-2.4.7-3.8 3.2-3.1 5.6s3.2 3.8 5.6 3.1zm4.6 16.1c2.4-.7 3.8-3.2 3.1-5.6s-3.2-3.8-5.6-3.1c-2.4.7-3.8 3.2-3.1 5.6.7 2.4 3.2 3.8 5.6 3.1zm4.6 16.1c2.4-.7 3.8-3.2 3.1-5.6s-3.2-3.8-5.6-3.1c-2.4.7-3.8 3.2-3.1 5.6.7 2.4 3.2 3.8 5.6 3.1zM451.8 277.8c.6-2.4-.9-4.9-3.3-5.5s-4.9.9-5.5 3.3.9 4.9 3.3 5.5c2.5.6 4.9-.8 5.5-3.3zm16.3 4.1c.6-2.4-.9-4.9-3.3-5.5s-4.9.9-5.5 3.3.9 4.9 3.3 5.5 4.9-.9 5.5-3.3zm16.2 4c.6-2.4-.9-4.9-3.3-5.5s-4.9.9-5.5 3.3.9 4.9 3.3 5.5c2.5.6 4.9-.8 5.5-3.3zm16.3 4.1c.6-2.4-.9-4.9-3.3-5.5s-4.9.9-5.5 3.3.9 4.9 3.3 5.5 4.9-.9 5.5-3.3zm16.2 4c.6-2.4-.9-4.9-3.3-5.5-2.4-.6-4.9.9-5.5 3.3s.9 4.9 3.3 5.5c2.4.6 4.9-.8 5.5-3.3zm174.3 43.5c.6-2.4-.9-4.9-3.3-5.5-2.4-.6-4.9.9-5.5 3.3s.9 4.9 3.3 5.5c2.4.6 4.9-.9 5.5-3.3zm16.2 4c.6-2.4-.9-4.9-3.3-5.5-2.4-.6-4.9.9-5.5 3.3s.9 4.9 3.3 5.5c2.4.6 4.9-.8 5.5-3.3zm16.3 4.1c.6-2.4-.9-4.9-3.3-5.5-2.4-.6-4.9.9-5.5 3.3s.9 4.9 3.3 5.5c2.4.6 4.8-.9 5.5-3.3zm16.2 4c.6-2.4-.9-4.9-3.3-5.5-2.4-.6-4.9.9-5.5 3.3s.9 4.9 3.3 5.5c2.4.6 4.9-.8 5.5-3.3zm16.2 4.1c.6-2.4-.9-4.9-3.3-5.5-2.4-.6-4.9.9-5.5 3.3s.9 4.9 3.3 5.5c2.5.6 4.9-.9 5.5-3.3zm-50.7-148.5c-1.8-1.7-1.8-4.6-.1-6.4 1.7-1.8 4.6-1.9 6.4-.1 1.8 1.7 1.9 4.6.1 6.4-1.8 1.8-4.6 1.8-6.4.1zm-11.7 12c-1.8-1.7-1.8-4.6-.1-6.4 1.7-1.8 4.6-1.9 6.4-.1 1.8 1.7 1.9 4.6.1 6.4s-4.5 1.8-6.4.1zm-11.6 12c-1.8-1.7-1.8-4.6-.1-6.4 1.7-1.8 4.6-1.9 6.4-.1 1.8 1.7 1.9 4.6.1 6.4s-4.6 1.9-6.4.1zm-11.6 12.1c-1.8-1.7-1.8-4.6-.1-6.4 1.7-1.8 4.6-1.9 6.4-.1 1.8 1.7 1.9 4.6.1 6.4-1.7 1.8-4.6 1.8-6.4.1zm-11.6 12c-1.8-1.7-1.8-4.6-.1-6.4 1.7-1.8 4.6-1.9 6.4-.1 1.8 1.7 1.9 4.6.1 6.4-1.8 1.8-4.6 1.9-6.4.1zM534 382.5c-1.8-1.7-1.9-4.6-.1-6.4 1.7-1.8 4.6-1.9 6.4-.1 1.8 1.7 1.8 4.6.1 6.4-1.7 1.8-4.6 1.9-6.4.1zm-11.6 12.1c-1.8-1.7-1.9-4.6-.1-6.4 1.7-1.8 4.6-1.9 6.4-.1 1.8 1.7 1.8 4.6.1 6.4-1.7 1.8-4.6 1.8-6.4.1zm-11.6 12c-1.8-1.7-1.9-4.6-.1-6.4 1.7-1.8 4.6-1.9 6.4-.1 1.8 1.7 1.8 4.6.1 6.4-1.8 1.8-4.6 1.8-6.4.1zm-11.7 12c-1.8-1.7-1.9-4.6-.1-6.4 1.7-1.8 4.6-1.9 6.4-.1 1.8 1.7 1.9 4.6.1 6.4-1.7 1.8-4.6 1.9-6.4.1zm-11.6 12.1c-1.8-1.7-1.9-4.6-.1-6.4 1.7-1.8 4.6-1.9 6.4-.1 1.8 1.7 1.9 4.6.1 6.4-1.7 1.8-4.6 1.8-6.4.1z"/></svg>