<svg xmlns="http://www.w3.org/2000/svg" viewBox="0 0 100 100"><path d="M94.455 22.233l-.012-.081a3.186 3.186 0 0 0-.072-.333c-.006-.022-.01-.044-.018-.065a2.755 2.755 0 0 0-.172-.444 4.081 4.081 0 0 0-.086-.176c-.019-.032-.041-.062-.062-.093a3.225 3.225 0 0 0-.286-.408 3.386 3.386 0 0 0-.276-.285c-.021-.018-.039-.034-.062-.051a2.905 2.905 0 0 0-.267-.208l-.059-.041a2.768 2.768 0 0 0-.344-.195c-.008-.004-.014-.01-.023-.014L51.348-.033a3.11 3.11 0 0 0-2.694 0L7.279 19.838a3.111 3.111 0 0 0-1.764 2.804v51.116c0 1.131.613 2.172 1.602 2.721l41.375 22.942a2.943 2.943 0 0 0 .69.279c.031.008.062.017.093.023.089.022.18.038.272.053.03.005.061.011.092.015a2.884 2.884 0 0 0 .723 0c.031-.004.062-.01.092-.015.092-.015.183-.029.271-.053.031-.008.064-.017.096-.023.097-.026.191-.059.285-.094.021-.006.039-.014.06-.021a3.632 3.632 0 0 0 .344-.164l41.375-22.942a3.114 3.114 0 0 0 1.603-2.721V22.635a3.89 3.89 0 0 0-.033-.402zm-6.187 49.691L53.111 91.422V80.459a3.11 3.11 0 0 0-6.221 0v10.963L11.735 71.926V27.689a17.873 17.873 0 0 1 9.548 4.976l6.278 6.935c-1.046 1.328-2.385 3.19-2.758 4.592a11.947 11.947 0 0 0 1.208 9.086l20.724-12.01a11.946 11.946 0 0 0-7.282-5.567c-1.854-.493-4.69-.179-6.47.188l-.475.304-7.006-7.749a23.92 23.92 0 0 0-9.58-5.857L50 6.22l34.604 16.62-22.547 12.504a3.11 3.11 0 0 0 1.512 5.832c.509 0 1.027-.126 1.504-.392l23.193-12.86v18.553h-.188c0 10.202-8.298 18.5-18.5 18.5-3.63 0-7.005-1.064-9.861-2.877a9.227 9.227 0 0 0-2.096-9.832l-2.369 2.367-4.594-4.592-.003.003a1.538 1.538 0 1 0-2.175 2.177l4.591 4.592-3.987 3.986-4.728-4.728-.003.003a1.54 1.54 0 0 0-2.176 2.177l4.729 4.729-2.369 2.367a9.226 9.226 0 0 0 6.542 2.709 9.205 9.205 0 0 0 4.594-1.228 24.525 24.525 0 0 0 13.906 4.312c7.467 0 14.162-3.338 18.689-8.596v9.378z"/></svg>