<svg xmlns="http://www.w3.org/2000/svg" viewBox="0 0 1000 1000"><path d="M256.2 376.9v366.9H990V10H256.2v366.9zm693.17 0v326.27H296.83V50.63h652.54V376.9z"/><path d="M621.9 111.59v20.31h216.32L647 323.12 455.78 514.34l14.34 14.34 14.34 14.34 190.5-190.5L865.7 161.78l.48 107.56.72 107.56 19.84.72 19.6.72.24-12.19V99.64l-.24-8.37H621.9v20.32zM10 296.83v40.63h40.64v-40.64h40.64V256.2H10v40.63zm122.38-21.03l.72 19.84h81.26l.72-19.84.72-19.6h-84.14l.72 19.6zM10 418.73v40.64h40.64V378.1H10v40.63zm0 121.9v40.63h40.64V500H10v40.63zm0 121.91v40.63h40.64v-81.26H10v40.63zm1.67 82.94c-.96.72-1.67 28.68-1.67 62.15v60.47h40.64V743.8H31.99c-10.28 0-19.6.72-20.32 1.68zm692.46 42.07c-.48 1.67-.72 20.32-.48 41.11l.72 38.24 19.84.72 19.6.72v-83.9h-19.12c-13.63 0-19.61.96-20.56 3.11zM10 949.37V990h81.26v-40.64H50.63v-40.64H10v40.65zm693.17-20.32v20.32h-40.64V990h81.27v-81.26h-40.64v20.31zm-570.79 39.92l.72 19.84H255l.72-19.84.72-19.6H131.66l.72 19.6zm164.45.71V990h81.27v-40.64h-81.26v20.32zm121.9 0V990H500v-40.64h-81.26v20.32zm121.9 0V990h81.27v-40.64h-81.26v20.32z"/></svg>