<svg xmlns="http://www.w3.org/2000/svg" viewBox="0 0 576 720"><path d="M374.1 136.8v75.3l-189.4 60.7v-75.1l189.2-60.8zM184.7 320.2v133.3h73.6v-81.8l115.8-37v-75.1z" fill="#00b5e2"/><path d="M114.1 527.6h56.2v14.8h-40V558h35.2v14.8h-35.2v28.6h-16.2v-73.8zm70.7 0H201v73.8h-16.2v-73.8zm34.7 0h15l34.6 45.5v-45.5h16v73.8h-13.8l-35.8-46.9v46.9h-16v-73.8zm79.5 37.1v-.2c0-21 16.6-38.2 39.3-38.2 22.8 0 39.1 17 39.1 38v.2c0 21-16.6 38.2-39.3 38.2s-39.1-17-39.1-38zm61.5 0v-.2c0-12.7-9.3-23.2-22.4-23.2s-22.1 10.3-22.1 23v.2c0 12.7 9.3 23.2 22.4 23.2s22.1-10.4 22.1-23zm25.3 25.9l9.6-11.5c6.6 5.5 13.6 9 22 9 6.6 0 10.7-2.6 10.7-7v-.2c0-4.1-2.5-6.2-14.9-9.4-14.9-3.8-24.5-7.9-24.5-22.6v-.2c0-13.4 10.8-22.3 25.8-22.3 10.8 0 19.9 3.4 27.4 9.4l-8.4 12.2c-6.5-4.5-13-7.3-19.2-7.3-6.2 0-9.5 2.8-9.5 6.4v.2c0 4.9 3.2 6.4 15.9 9.7 15 3.9 23.4 9.3 23.4 22.1v.2c0 14.7-11.2 22.9-27.1 22.9-11 .3-22.3-3.7-31.2-11.6zm-11.7-331.4c0-.1 0-.2-.1-.2l-.1-.1-72.9-23.4-116.3 37.2v.4c0 .1 0 .2.1.2l.1.1 72.9 23.3L374 259.5c.1.1.1-.3.1-.3z" fill="#0086bf"/></svg>